<svg width="122" height="123" viewBox="0 0 122 123" fill="none" xmlns="http://www.w3.org/2000/svg">
<g clip-path="url(#clip0_1980_8386)">
<path d="M117.156 67.4293C117.228 66.7181 116.956 67.7804 117.14 66.9625C117.22 67.047 117.271 67.213 117.156 67.4293Z" fill="#DADADA"/>
<path d="M10.0767 53.4646C11.7965 54.993 13.3826 57.5599 15.3485 59.1225C15.5644 59.2931 15.0991 59.2528 15.6104 59.6784C16.096 60.021 16.6338 60.4743 17.1987 60.9562C17.7637 61.438 18.3274 61.9747 18.9457 62.5131C19.564 63.0506 20.1545 63.6155 20.7459 64.1258C21.0417 64.3805 21.3646 64.6637 21.6322 64.9453C21.928 65.2001 22.2236 65.4556 22.4925 65.6823L22.3017 65.6497C22.7044 66.0172 23.4118 66.256 23.871 66.5702C23.8429 66.5971 23.6799 66.5373 23.7319 66.6487C23.9524 66.5999 24.6796 67.1961 24.9253 67.2298C25.0864 67.3991 25.0022 67.4789 25.2161 67.7043L25.572 67.7418C26.0639 67.8097 26.5495 68.1523 27.0636 68.4685C27.5774 68.7843 28.1167 69.1831 28.7143 69.4187C28.6598 69.4171 28.5235 69.3862 28.6036 69.4708C30.5325 70.2639 32.8096 71.4237 34.958 72.2232C34.8484 72.2202 34.7362 72.3269 34.8163 72.4115C34.9835 72.3062 35.6641 72.517 36.2356 72.7245C36.4214 72.9767 37.3 72.9458 37.8953 73.2914L37.8125 73.3164C38.3605 73.3316 38.5174 73.6651 39.0121 73.6237L39.2811 73.8505C39.587 73.667 39.9582 74.2256 40.4248 74.211L40.4262 74.1561C40.8364 74.195 41.024 74.392 41.3784 74.4841L41.4052 74.5122C42.2786 74.7006 42.7387 74.9603 42.7708 74.769C43.0398 74.9958 41.9242 74.6086 42.3271 74.9762C45.2475 75.5779 48.2234 76.1804 51.204 76.5639C51.5302 76.6827 51.7481 76.7436 51.8019 76.7999C52.0761 76.8072 52.925 76.8581 53.2004 76.8107C53.0907 76.8078 53.3623 76.9249 53.5535 76.9576C54.0992 77.0823 54.1603 76.8096 54.7341 76.9076C54.5135 76.9565 54.4026 77.0083 54.483 77.0928C55.0069 76.97 55.6915 77.0163 56.2677 77.0046C56.1848 77.0298 56.0471 77.0534 56.0459 77.1083C56.7075 76.9618 57.2238 77.168 57.8294 77.0749L57.6075 77.1785C58.537 77.3138 57.8867 76.9667 58.6809 77.0159C58.4885 77.0381 58.542 77.0944 58.5408 77.1493C59.2865 76.9228 60.5193 76.9841 61.2357 76.8392C61.2076 76.8658 61.2077 76.8658 61.2077 76.8658C61.5927 76.8215 62.0312 76.8335 62.471 76.7908C62.8828 76.7746 63.3506 76.7052 63.7637 76.6342C64.0926 76.6433 63.6745 76.9335 64.5554 76.7931C64.5056 76.5723 65.9883 76.5033 65.4439 76.3238C65.8009 76.3061 66.2955 76.2648 66.7353 76.222C67.1751 76.1792 67.5882 76.1083 67.8099 76.0047C67.5053 76.1335 68.2166 76.2078 67.6098 76.3558L68.1019 76.4241C68.0446 76.5323 67.6341 76.4936 67.7973 76.5529C68.1007 76.4789 68.956 76.2556 69.2314 76.2082C69.7579 75.9758 70.2053 75.6041 71.0619 75.3259C70.6732 75.5347 71.359 75.526 71.0824 75.6282C71.4444 75.3912 71.8345 75.1276 72.1697 74.8625C72.4463 74.7604 72.2755 75.03 72.6911 74.8494C72.6376 74.793 72.8313 74.7161 72.9435 74.6094C73.0532 74.6125 74.1061 74.1476 74.2948 74.2899C74.4312 74.3211 73.8512 74.4972 74.1814 74.4514C74.6798 74.2457 74.7091 74.1641 75.2075 73.9584L75.2343 73.9866C75.5938 73.8592 76.1789 73.4639 75.7939 73.5081C75.572 73.6118 75.929 73.5942 75.5708 73.6666C75.7403 73.4519 76.2961 73.1379 76.7958 72.8773C76.6556 73.0106 76.6824 73.0388 76.6531 73.1203C77.2407 72.6153 77.8819 72.1666 78.5243 71.663C78.472 71.5519 78.379 72.0156 78.2413 72.0392C79.2114 71.5996 79.892 70.6307 80.6696 70.2132C80.5575 70.3199 80.5064 70.1539 80.5332 70.1821C80.9245 69.8636 80.9768 69.9748 81.2024 69.7067C81.3108 69.7645 81.4841 69.3853 81.6817 69.1438C81.7403 68.9809 81.7645 69.1186 81.595 69.3335C81.7365 69.1453 82.0768 68.6609 82.4732 68.1232C82.8696 67.5855 83.2673 66.9929 83.6063 66.5634C83.5515 66.5619 83.7592 65.8818 83.8738 65.6656L83.953 65.8048C84.1212 65.6449 84.2995 65.0463 84.4092 65.0493C84.4155 64.7752 84.2945 65.2657 84.0918 65.7264C83.9173 66.1605 83.7146 66.6212 83.8331 66.2404C84.0549 66.1368 84.0752 65.2596 84.1798 65.4819C84.2945 65.2656 84.3276 65.0197 84.4155 64.7752C84.5034 64.5308 84.5633 64.313 84.7048 64.1249C84.6474 64.233 84.7495 64.5649 84.868 64.1842C85.0757 63.5042 84.8731 63.9649 84.9954 63.4196L85.031 63.0641C84.9226 63.0062 85.1826 62.4373 84.985 62.6788C85.124 62.6003 85.0907 61.6668 85.3074 61.7824L85.4694 61.8966C85.5037 61.5958 85.3443 61.372 85.2678 61.1231C85.2958 61.0964 85.3252 61.0149 85.3519 61.0431C85.0791 60.9808 85.3964 60.3037 85.158 59.9406C85.228 59.2842 84.9754 58.3447 85.0646 58.0454C84.8555 57.6008 84.645 57.211 84.4933 56.6582C84.5456 56.7694 84.6246 56.9087 84.6794 56.9102C84.6322 56.5797 84.5519 56.4953 84.3657 56.2433C84.3925 56.2714 84.3695 56.0788 84.3197 55.858C84.27 55.6372 84.1667 55.36 84.117 55.1392C83.7969 54.7465 83.7638 54.9924 83.6541 54.9894C83.6605 54.7153 83.4195 54.4618 83.1785 54.2083C82.9375 53.9549 82.6405 53.7547 82.5652 53.4509C82.7003 53.537 83.1313 53.8779 82.9196 53.5429C82.8954 53.4051 82.8151 53.3206 82.7347 53.2361C82.6544 53.1516 82.546 53.0938 82.4377 53.036C82.3292 52.9782 82.1941 52.8921 82.059 52.8061C81.9238 52.7201 81.7887 52.6342 81.6816 52.5215L81.6752 52.7956C81.5184 52.4622 80.7535 52.3315 80.9498 52.1448C80.7318 52.084 80.2473 51.6867 80.2422 51.906C80.0267 51.7355 79.7003 51.6168 79.4288 51.4996C79.1292 51.4091 78.8028 51.2905 78.4739 51.2814C78.3094 51.2769 78.1462 51.2176 78.0098 51.1865C77.8454 51.1819 77.709 51.1507 77.5726 51.1196C77.2997 51.0573 77.0537 51.023 76.8917 50.9089C76.8089 50.934 76.6445 50.9295 76.5616 50.9547C76.4239 50.9783 76.3411 51.0035 76.3946 51.0598C76.6942 51.1503 76.7809 50.9607 76.8892 51.0186C76.7515 51.0422 76.6955 51.0955 76.6955 51.0955C76.3398 51.0583 76.0644 51.1056 76.3716 50.8672C75.9611 50.8285 75.7661 50.9603 75.543 51.1188C75.4321 51.1706 75.32 51.2772 75.209 51.329C75.0701 51.4075 74.9044 51.4578 74.6558 51.5333C74.6851 51.4518 74.5767 51.394 74.3268 51.5243L73.8527 51.8678C73.2982 52.1269 73.4141 51.8558 73.3351 51.7165C73.0292 51.9001 72.6671 52.137 72.5805 52.3267C72.416 52.3222 72.2771 52.4007 72.1394 52.4243C72.4708 52.3236 71.9686 52.6939 71.8832 52.8287C71.9113 52.802 71.9405 52.7206 71.9686 52.6939C71.8589 52.6909 71.6321 53.0138 71.4919 53.1471C71.6003 53.205 71.9087 52.9117 72.1038 52.7799C71.9904 52.9413 71.8208 53.1562 71.7342 53.3458C71.6564 53.1516 71.3148 53.6909 71.1452 53.9056C70.9477 54.1471 71.0816 54.2879 71.0255 54.3412C70.9987 54.3131 70.9133 54.4479 70.8572 54.5012C70.8279 54.5827 70.7718 54.636 70.7476 54.4982C70.7769 54.4167 70.9439 54.3116 70.9477 54.1471C70.8075 54.2804 70.6723 54.1944 70.5525 54.63C70.4901 54.9574 70.8534 54.6656 70.5399 55.1782C70.5437 55.0138 70.5169 54.9856 70.5207 54.8211C70.4073 54.9826 70.3207 55.1722 70.262 55.3352L70.3704 55.393C70.3143 55.4463 70.3155 55.3915 70.2875 55.4181C70.3398 55.5293 70.2799 55.7471 70.2481 55.9383C70.2162 56.1294 70.2112 56.3487 70.2635 56.4598C70.2329 56.5961 70.2023 56.7324 70.1437 56.8954C70.1131 57.0317 70.0545 57.1947 70.0239 57.3309L70.0252 57.2761C69.9347 57.6303 69.9794 58.0704 70.1095 58.3757L70.0827 58.3475C70.1057 58.5401 70.1504 58.9802 70.255 59.2025C70.2436 59.6959 69.7553 59.4631 70.018 59.9641C70.1162 60.4605 70.44 60.6888 70.4732 60.4429C70.5893 61.3512 71.1453 62.2168 71.2627 63.0703C71.3698 63.183 71.3724 63.0734 71.5037 63.3238C71.996 64.5716 72.8733 65.7752 73.2049 66.854C72.9652 66.5457 73.094 66.9058 73.0111 66.931C73.2802 67.1578 73.1119 67.3178 73.3312 67.3238C73.4153 67.2439 73.4982 67.2187 73.3413 66.8852C73.7927 67.5285 74.4826 68.5349 74.6369 68.978C74.5591 68.7839 74.6942 68.8698 74.8281 69.0107C74.6343 69.0876 74.9519 69.5901 75.3013 69.9014L75.4389 69.8777L75.5141 70.1815C75.676 70.2957 75.8431 70.1905 76.0254 70.607C75.9974 70.6336 75.9681 70.7151 75.9936 70.7981C76.371 71.0828 76.9103 71.4816 77.1462 71.9544C77.1705 72.0922 77.2495 72.2315 77.2738 72.3693C77.4344 72.5383 77.7596 72.7118 77.5198 72.4035C77.9967 73.1297 78.3716 73.524 78.4469 73.8278C79.7448 74.6315 81.3016 76.1005 82.5919 77.2331L82.509 77.2582C82.8023 77.6229 82.8099 77.2939 82.9961 77.5459C82.8048 77.5132 83.1517 77.9342 82.7985 77.7873C83.2538 78.2661 83.5571 78.1922 83.9358 78.422C84.0467 78.3702 83.6375 78.2767 83.7764 78.1982C83.858 78.2279 84.447 78.8475 84.6421 78.7157C84.7212 78.855 84.5554 78.9053 84.4458 78.9023L84.8258 79.0773C85.1165 79.5516 83.6821 78.7168 83.9716 79.2459L84.2687 79.446C84.4523 79.8077 83.3456 79.0367 84.0724 79.6326C84.4523 79.8076 84.9189 79.793 84.6511 79.5114C85.3817 79.9429 85.2299 79.3901 85.9592 79.8764C86.1186 80.1002 85.337 79.5028 85.3868 79.7236C85.68 80.0882 86.1453 80.1284 86.4412 80.3834C86.1186 80.1002 86.5291 80.1389 86.7739 80.2279C87.1232 80.5392 86.4449 80.2189 86.9855 80.5629C87.1232 80.5393 87.6944 80.7469 87.2902 80.4341C87.5936 80.3601 87.8576 80.8063 88.2413 80.8168C88.3726 81.0673 87.4726 80.8505 88.0667 81.2509C88.0438 81.0582 88.94 81.4394 88.7016 81.0763C88.917 81.2468 88.9145 81.3564 88.6672 81.3771C88.9898 81.6602 89.6514 81.5138 89.6438 81.8427L89.8375 81.7657C89.9179 81.8502 90.0798 81.9644 90.2405 82.1334C90.5388 82.2787 91.3611 82.3013 91.2464 82.5176C91.356 82.5206 92.1184 82.7609 91.8775 82.5075C91.444 82.2761 91.3025 82.4643 91.1176 82.1574C91.3853 82.4391 91.7983 82.3682 92.0724 82.3756L92.0699 82.4853C92.2344 82.4898 92.6156 82.61 92.7265 82.5582C92.5888 82.5818 92.6424 82.6382 92.7775 82.7242L92.9993 82.6205C93.6826 82.7215 93.1026 82.8977 93.7311 82.9972L93.2097 83.0103C93.3193 83.0133 93.5348 83.1838 93.8357 83.2195C94.0027 83.1144 94.2245 83.0107 94.3367 82.9041C94.6936 82.8864 94.4973 83.0731 94.8555 83.0006L94.3596 83.0967C94.2768 83.1218 94.6555 83.3517 95.1476 83.4201C95.4497 83.4009 96.0016 83.2515 95.4828 83.1549C95.7288 83.1892 96.0833 83.2811 95.8615 83.3848C96.4377 83.3731 95.7824 83.2454 96.277 83.2042C96.467 83.2917 97.0942 83.446 97.4754 83.5662C97.2817 83.6432 97.1427 83.7216 96.9489 83.7987C97.0586 83.8016 97.1682 83.8047 97.2778 83.8077C96.8342 84.015 97.5213 83.9515 97.2702 84.1366C97.5163 84.1708 97.8197 84.0968 98.0402 84.048C97.6871 83.9012 97.8809 83.8242 98.1307 83.6939C98.3806 83.5636 98.6852 83.4348 98.5781 83.3222C99.046 83.2527 99.1799 83.3935 99.3418 83.5077C99.5037 83.6219 99.6669 83.6812 100.14 83.3924C99.9766 83.3331 100.393 83.0977 99.8147 83.2189C100.392 83.1525 100.151 82.899 100.837 82.8904C100.367 83.0695 101.436 83.0714 100.744 83.3542C100.773 83.2727 100.332 83.3703 100.221 83.4221C100.494 83.4844 100.215 83.6962 100.821 83.6031C101.179 83.5307 101.676 83.3797 101.569 83.2671C101.518 83.1011 101.017 83.4165 101.241 83.2032C101.932 82.9753 102.12 83.1725 102.32 82.8214C101.877 82.9738 101.743 82.833 101.718 82.75C101.884 82.6997 102.023 82.6212 102.216 82.5442L102.131 82.679C102.957 82.5371 102.329 82.4376 103.101 82.2393L103.731 82.284C103.674 82.3922 103.37 82.4662 103.148 82.5698C102.9 82.6453 102.679 82.6941 102.813 82.8349C103.337 82.7121 103.452 82.4959 103.948 82.3998C103.837 82.4515 103.698 82.53 103.615 82.5552C103.781 82.5048 104.13 82.8162 104.772 82.3126C105.106 82.1024 104.83 82.2045 104.806 82.0667C105.582 81.704 105.751 81.4892 106.224 81.2004C106.246 81.4479 107.085 80.7577 106.635 81.2391C106.47 81.2346 106.138 81.3901 105.804 81.6003C105.471 81.7558 105.137 81.9661 105.023 82.1275C105.405 82.2477 104.387 82.3569 104.298 82.6562C104.962 82.4001 105.012 82.6209 105.174 82.7351C105.368 82.6581 105.508 82.5249 105.592 82.4449C105.596 82.2804 105.374 82.384 105.295 82.2447C106.042 81.9635 106.655 81.5414 106.965 81.1933C107.214 81.1179 107.237 81.3105 106.959 81.4674C107.739 80.9402 108.574 80.4146 109.299 79.8859C108.996 79.9599 109.164 79.7999 109.387 79.6414C109.583 79.4548 109.78 79.2682 109.587 79.2903C109.197 79.5539 108.756 79.6515 108.899 79.4086C109.122 79.2501 108.979 79.4931 109.09 79.4413C109.29 79.0902 109.671 79.2103 109.79 78.8296C109.199 79.4443 109.864 79.1882 109.859 79.4075C110.254 78.9246 109.938 79.5468 110.386 79.1203C110.781 78.6374 111.234 78.0463 111.658 77.4819C112.384 76.9533 113.015 75.7636 113.413 75.1163C113.722 74.823 113.741 75.1801 114.024 74.8039C114.281 74.3446 113.635 75.0126 114.116 74.395L114.141 74.4779C114.172 74.3416 114.397 74.0735 114.541 73.7758C114.714 73.4513 114.831 73.1254 114.725 72.9579L114.855 73.2632C114.94 73.1284 114.943 73.0187 114.974 72.8824C115.055 72.9121 115.195 72.7788 115.107 73.0232C115.304 72.8366 115.392 72.5922 115.451 72.3744C115.539 72.1299 115.573 71.884 115.66 71.6395C115.576 71.7195 115.492 71.7995 115.408 71.8795C115.528 71.4439 115.645 71.1179 115.79 70.7653C115.908 70.4394 116.053 70.0868 116.118 69.6497L116.226 69.7075L116.266 69.1874C116.371 69.3549 116.574 68.8942 116.499 68.5904C116.515 69.0572 116.532 69.5239 116.522 69.9625C116.35 70.287 116.477 69.5224 116.281 69.709C116.113 69.869 115.931 70.632 116.036 70.7995C116.152 70.5284 116.126 70.5003 116.132 70.2261C116.352 70.1773 116.205 70.6395 116.281 70.8885C116.34 70.7255 116.426 70.5359 116.373 70.4796C116.365 70.8086 116.276 71.1078 116.127 71.6249C116.163 71.2693 115.959 71.7848 115.963 71.6204C116.124 71.7345 115.977 72.1968 115.689 72.7923C115.492 72.9789 115.376 73.2501 115.286 73.6042C115.169 73.9301 115.05 74.3109 114.851 74.6071C114.832 74.25 114.924 73.8411 115.044 73.4055C114.761 73.7818 114.786 73.8648 114.503 74.241C114.497 74.5151 114.602 74.7374 114.342 75.3063L114.205 75.2752C113.946 75.7892 114.108 75.9034 113.684 76.4678C112.894 77.4335 112.077 78.3712 111.376 79.0377L111.267 78.9798C111.09 79.5236 110.059 80.2359 109.554 80.7158C108.552 81.3466 107.406 82.2752 106.774 82.3401C105.829 82.8628 104.969 83.3055 104.001 83.6355C103.061 83.9937 102.067 84.2408 100.966 84.43L101.301 84.1649C100.941 84.347 101.029 84.1025 100.642 84.2017C100.888 84.2358 100.749 84.3143 100.556 84.3913C100.362 84.4683 100.058 84.5423 99.9194 84.6207C98.9327 84.5937 97.6936 84.8065 96.814 84.8921L96.7897 84.7543C95.8795 84.9762 94.8175 84.6453 93.7811 84.3975C93.6727 84.3397 93.5121 84.1707 93.1844 84.1068C92.5521 84.1717 92.2525 84.0812 91.3779 83.9475C91.0783 83.857 90.6703 83.7087 90.2904 83.5337C89.9105 83.3586 89.5305 83.1837 89.2335 82.9835C86.8915 82.2609 84.8961 80.7799 82.8167 79.3788L82.7669 79.158C81.7112 78.553 80.6899 77.6472 79.7502 76.7711C78.8105 75.895 77.9549 74.939 77.2027 74.26L77.5048 74.2409C77.1325 73.7369 76.4593 73.1973 76.4262 73.4432C76.0271 72.9111 75.2735 72.287 75.174 71.8454C74.7749 71.3133 74.5837 71.2806 74.2369 70.8596C73.5228 69.7154 73.2295 69.3508 72.5129 68.3162L72.671 68.5949C72.8062 68.6809 72.889 68.6557 72.7309 68.3771C72.4096 68.0391 71.888 66.8727 71.8753 67.421C71.3282 66.1716 70.2648 64.7162 69.9662 63.3913C69.9357 63.5277 69.8056 63.2223 69.6985 63.1097C69.2585 61.973 69.0683 60.706 68.7609 59.765C68.766 59.5457 68.9739 60.0452 68.8756 59.5487C68.8004 59.245 68.766 59.5457 68.664 59.2137C68.4675 58.2209 68.4648 57.151 68.652 56.1687C68.8673 55.1598 69.2458 54.2101 69.6765 53.3716L69.9913 52.8042L70.3877 52.2665C70.5292 52.0784 70.6694 51.9451 70.8109 51.757C70.9792 51.597 71.0926 51.4355 71.2876 51.3037C71.9326 50.6905 72.6834 50.2448 73.4317 49.9088C74.208 49.5461 75.0353 49.3494 75.8614 49.2074C76.6862 49.1203 77.5098 49.088 78.304 49.1373L78.2479 49.1906C78.7706 49.1227 79.4246 49.3052 79.9958 49.5129C80.5669 49.7205 81.082 49.9815 81.5473 50.0217C81.7628 50.1922 82.385 50.5659 82.1657 50.5599C82.5737 50.7082 83.0582 51.1055 83.4866 51.5561C83.7009 51.7814 83.9419 52.0349 84.156 52.2602C84.2631 52.3729 84.3702 52.4855 84.5041 52.6263C84.6112 52.739 84.7184 52.8517 84.8255 52.9643C84.7451 52.8798 84.6916 52.8235 84.6112 52.739C85.273 53.7721 85.9386 54.6407 86.2933 55.9121C86.241 55.801 86.1363 55.5787 86.0548 55.549C86.0765 55.7965 86.2626 56.0484 86.3672 56.2708C86.4986 56.5212 86.5764 56.7153 86.4897 56.905C86.5663 57.1539 86.6784 57.0473 86.6274 56.8814C86.9527 58.2343 87.111 59.6924 87.0501 61.1445C86.9891 62.5966 86.654 64.0412 86.129 65.3983C85.6141 66.3167 85.5058 66.2589 85.4242 66.2292C85.3706 66.1729 85.3999 66.0915 85.1081 66.8514C84.9959 66.9581 85.1591 67.0174 85.0775 66.9878C84.9616 67.2589 84.7652 67.4455 84.5703 67.5773C84.3752 67.7091 84.235 67.8424 84.175 68.0602C84.4224 68.0396 84.0859 68.3595 84.1662 68.4439C83.9419 68.6572 83.8004 68.8454 83.6322 69.0053C83.4919 69.1386 83.3517 69.272 83.2395 69.3786C82.9872 69.6185 82.7908 69.8051 82.5067 70.2362L82.4824 70.0984C81.8834 71.0969 80.7693 71.8343 80.1473 72.6401C77.5813 74.4898 74.7017 75.6726 71.8028 76.4982C68.904 77.3239 65.9579 77.8191 62.9901 78.0668C57.0838 78.4808 51.2221 78.1554 45.3869 76.6786C44.0556 76.1211 43.9742 76.0914 42.4726 75.8031C42.5554 75.778 42.6368 75.8078 42.5567 75.7232C42.415 75.9115 41.4931 75.4474 41.2981 75.5791C39.1745 74.9172 37.2414 74.2883 35.1225 73.4073C35.4492 73.5257 35.6974 73.4505 35.2898 73.302L34.8245 73.2617L34.7989 73.1788C34.4991 73.0884 34.1703 73.0793 34.4406 73.2513C31.749 72.2176 29.2299 70.8593 26.8244 69.3394C24.418 67.8195 22.1524 66.1665 19.9445 64.4053C19.4609 63.9532 18.8427 63.4149 18.1959 62.9037C17.5777 62.3654 16.9045 61.8258 16.3664 61.372C14.8672 59.7948 13.5591 58.2505 12.2519 56.6508C10.9451 55.0516 9.72083 53.4271 8.38962 51.6899C8.38962 51.6899 8.58078 51.7229 8.90497 51.9512C9.05909 52.3943 9.48863 52.7899 10.0767 53.4646Z" fill="#DADADA"/>
<path d="M117.082 68.3044C116.941 68.4377 116.82 68.9281 116.748 68.5147C116.859 68.4629 117.001 68.2199 117.082 68.3044Z" fill="#DADADA"/>
<path d="M110.143 78.9764C110.17 79.0045 109.976 79.0815 109.921 79.08C110.033 78.9734 110.092 78.8104 110.203 78.7586C110.091 78.8652 110.172 78.8949 110.143 78.9764Z" fill="#DADADA"/>
<path d="M107.549 80.8526C107.552 80.7429 108.055 80.3179 108.417 80.0809C108.11 80.3193 107.856 80.6141 107.549 80.8526Z" fill="#DADADA"/>
<path d="M104.755 81.9012C104.508 81.9218 104.537 81.8403 104.868 81.7397C104.895 81.7679 104.784 81.8197 104.755 81.9012Z" fill="#DADADA"/>
<path d="M104.639 82.1718C104.417 82.2755 104.281 82.2443 104.143 82.268C104.197 82.3243 104.671 81.9807 104.639 82.1718Z" fill="#DADADA"/>
<path d="M98.3603 83.2616C98.2226 83.2853 97.8644 83.3577 97.7293 83.2717C97.8925 83.3311 98.4725 83.155 98.3603 83.2616Z" fill="#DADADA"/>
<path d="M95.396 83.3447C95.3144 83.315 95.2596 83.3135 95.1499 83.3105C94.9867 83.2512 95.1525 83.2008 95.317 83.2054L95.396 83.3447Z" fill="#DADADA"/>
<path d="M82.2197 52.9756C82.1394 52.8911 82.0578 52.8614 81.9494 52.8036L82.0323 52.7784C82.1126 52.8629 82.1662 52.9192 82.2197 52.9756Z" fill="#DADADA"/>
<path d="M77.1313 72.6123C76.8521 72.8241 76.884 72.633 76.856 72.6596C77.0791 72.5012 76.7706 72.7944 77.1313 72.6123Z" fill="#DADADA"/>
<path d="M64.5058 76.5723L64.5887 76.5472L64.5836 76.7665L64.5058 76.5723Z" fill="#DADADA"/>
<path d="M19.5815 52.7931C19.6649 52.7679 19.5307 52.6267 19.638 52.7398C19.6364 52.7943 19.5807 52.8476 19.5815 52.7931Z" fill="#DADADA"/>
<path d="M7.40203 60.0295C6.9428 59.7154 7.39155 59.2885 7.09706 58.9788C7.07021 58.9507 7.37125 58.9862 7.2907 58.9019C6.91485 58.5626 7.11832 58.0469 7.37468 57.6421L7.4564 57.6722C7.48572 57.5904 7.24085 57.5013 7.27011 57.4203C7.32505 57.4215 7.3519 57.4496 7.40765 57.3963C7.24327 57.3922 7.32912 57.2571 7.19247 57.2258C7.24821 57.1725 7.35801 57.1757 7.44061 57.1505L7.24981 57.118C6.8402 57.0243 7.25717 56.7891 7.04163 56.6182C7.09693 56.6199 7.12334 56.6483 7.15143 56.6215C6.88379 56.3399 6.89157 56.0107 6.78912 55.6786C6.84399 55.6807 6.95386 55.6831 7.03682 55.6583C6.87207 55.6538 6.79195 55.5692 6.76634 55.4862C6.93189 55.4361 6.57758 55.3441 6.6895 55.2371L6.74479 55.2388C6.5532 55.2062 6.83023 55.1041 6.61098 55.098L6.74932 55.0194C6.47556 55.0117 6.8616 54.9128 6.75339 54.855L6.69846 54.8538C6.64518 54.7972 6.75586 54.7451 6.70216 54.689L6.73061 54.6625C6.6513 54.5233 6.79007 54.4444 6.56958 54.4932C6.73556 54.4428 6.67655 54.6059 6.87097 54.5291C6.60538 54.138 6.58755 53.7258 6.54163 53.3404C6.59738 53.2871 6.62583 53.2607 6.70842 53.2354C6.68157 53.2073 6.65719 53.0694 6.54775 53.0665L6.65879 53.0149C6.74262 52.9347 6.44079 52.9538 6.52498 52.8741C6.57992 52.8753 6.66127 52.905 6.74386 52.8798C6.58115 52.8204 6.61004 52.739 6.52992 52.6543C6.58443 52.6559 6.58443 52.6559 6.63973 52.6576C6.44937 52.5701 6.64344 52.4928 6.53523 52.435L6.64467 52.4379C6.75776 52.2767 6.39734 52.4586 6.48277 52.3239C6.50962 52.352 6.56412 52.3536 6.59257 52.3272C6.37456 52.2661 6.40629 52.0753 6.32617 51.9907L6.38068 51.9923C6.32822 51.8812 6.38599 51.7729 6.27865 51.6598C6.33476 51.6069 6.55402 51.613 6.50155 51.5019C6.28107 51.5507 6.36897 51.3062 6.11959 51.4364C6.12163 51.3269 6.18064 51.1638 6.12694 51.1076C6.20829 51.1373 6.40359 51.0051 6.42921 51.0881L6.56791 51.0099C6.67735 51.0128 6.53865 51.0909 6.64969 51.0393C6.62284 51.0112 6.51587 50.8985 6.54353 50.872C6.38082 50.8126 6.10786 50.7503 6.05664 50.5843C6.16484 50.6421 6.30398 50.5635 6.35768 50.6197C6.19453 50.5607 6.03227 50.4463 5.8427 50.3589C5.84351 50.3043 6.03387 50.3918 5.95375 50.3072C5.89845 50.3055 5.84474 50.2494 5.76339 50.2197C5.79147 50.1928 5.63204 49.969 5.90499 50.0313C5.98635 50.061 5.98511 50.1159 6.04041 50.1176C6.01479 50.0345 5.93265 50.0048 5.9074 49.9222L5.93424 49.9503C5.96233 49.9234 5.77481 49.7265 5.66501 49.7232C5.66377 49.7781 5.82852 49.7826 5.74556 49.8075C5.58365 49.6935 5.50434 49.5543 5.47996 49.4164C5.53366 49.4726 5.58736 49.5287 5.69593 49.5869C5.45471 49.3338 5.35021 49.1112 5.21887 48.8605C5.08381 48.7747 5.45966 49.114 5.40596 49.0579C5.48934 49.0327 5.38318 48.8654 5.30429 48.7259C5.22498 48.5867 5.1461 48.4471 5.28276 48.4784C5.33603 48.535 5.06678 48.3079 5.14893 48.3377C5.12332 48.2546 5.36535 48.4532 5.25838 48.3405C5.36535 48.4532 5.20592 48.2294 5.15345 48.1183C5.04648 48.0056 5.20716 48.1744 5.23277 48.2575C5.15346 48.1183 4.99562 47.84 4.94563 47.619C5.02742 47.6483 5.13599 47.7065 5.27105 47.7924C5.1905 47.7081 5.14093 47.4868 5.1942 47.5433L5.32678 47.739C5.4606 47.8798 5.4903 47.7985 5.62288 47.9942C5.57042 47.8831 5.51591 47.8815 5.45937 47.9347C5.43171 47.9612 5.37554 48.0149 5.37802 47.9051C5.56553 48.102 5.30117 47.656 5.48746 47.9079C5.56918 47.938 5.49153 47.7435 5.76041 47.9702C5.70671 47.914 5.89175 48.2208 5.94669 48.2221C6.05649 48.2253 5.92107 48.1391 6.00403 48.1142L6.00527 48.0593C5.87268 47.8636 6.14033 48.1452 5.95405 47.8933C6.05978 48.0609 6.11878 47.8978 6.27698 48.1765L6.38148 48.3991C6.43641 48.4003 6.33149 48.1781 6.33396 48.0682C6.36081 48.0963 6.41488 48.1529 6.41328 48.2074C6.22983 47.8461 6.5487 48.2937 6.52637 48.0463C6.71389 48.2432 6.87986 48.1928 6.98436 48.4154C7.0401 48.362 7.12473 48.2819 7.25978 48.3678C7.2317 48.3946 7.20485 48.3665 7.23046 48.4496C7.33743 48.5623 7.31182 48.4792 7.36675 48.4805C7.36552 48.5354 7.52618 48.7043 7.60507 48.8438C7.68926 48.7641 7.66489 48.6261 7.66772 48.5167C7.71858 48.6823 7.80154 48.6575 7.85648 48.6587C7.93907 48.6335 8.02203 48.6087 8.04604 48.7462C8.01839 48.7727 7.87926 48.8512 7.95974 48.9362C7.98047 49.2382 8.15504 48.804 8.26078 48.9717C8.2901 48.8899 8.29091 48.8353 8.32059 48.7539C8.34461 48.8915 8.51423 48.677 8.42633 48.9216C8.4825 48.8679 8.53372 49.0339 8.59354 48.8162C8.69768 49.0384 9.03168 48.828 8.995 49.2386C9.02309 49.2118 9.07636 49.2683 9.0792 49.1588C9.08167 49.049 8.995 49.2386 8.99747 49.1287C8.99747 49.1287 9.05358 49.0758 9.05482 49.0209C9.08043 49.1039 9.13537 49.1051 9.02185 49.2667C9.07308 49.4327 9.24845 48.944 9.38227 49.0848C9.35338 49.1662 9.35179 49.2207 9.38024 49.1943L9.52017 49.0612C9.60072 49.1454 9.51528 49.2801 9.45628 49.4433C9.51121 49.4445 9.56608 49.4465 9.62349 49.3379L9.61855 49.5576C9.62226 49.3928 9.70238 49.4775 9.73046 49.4506L9.70238 49.4775C9.70114 49.5324 9.75608 49.5336 9.78416 49.5068C9.81342 49.4258 9.76015 49.3692 9.7333 49.3412C9.78904 49.2878 9.81589 49.3159 9.872 49.263C9.81342 49.4258 9.9241 49.3737 9.95095 49.4018C9.9778 49.4299 10.0632 49.2952 10.0632 49.2952C10.0339 49.377 10.145 49.3253 10.0608 49.405C10.0327 49.4319 10.0351 49.322 9.9794 49.3753C9.9778 49.4299 9.94724 49.5666 10.0311 49.4864C10.0876 49.4331 10.1206 49.1873 10.173 49.2984C10.145 49.3253 10.1157 49.4063 10.0876 49.4331L10.1401 49.5442L10.1702 49.4079C10.169 49.4628 10.169 49.4628 10.169 49.4628C10.2544 49.3281 10.3069 49.4392 10.3923 49.3045C10.4472 49.3058 10.4444 49.4152 10.4712 49.4433C10.4968 49.5263 10.5798 49.5015 10.6636 49.4213L10.6356 49.4482C10.6624 49.4763 10.7173 49.4775 10.8015 49.3977C10.8536 49.5092 10.6802 49.8885 10.7925 49.7819C10.8743 49.8112 10.9622 49.5666 10.9915 49.4856C11.0984 49.5983 11.2669 49.438 11.3429 49.687C11.3714 49.6606 11.3726 49.6057 11.4007 49.5788C11.5626 49.6928 11.8404 49.5361 11.9157 49.8397C11.8595 49.8934 11.8851 49.9764 11.8559 50.0574C11.9132 49.9495 11.8802 50.1953 11.9401 49.9776C11.9705 49.8417 11.9986 49.8148 11.973 49.7318C12.1109 49.7082 12.2472 49.7391 12.2716 49.8771C12.2728 49.8222 12.3005 49.7957 12.3286 49.7688C12.2419 49.9585 12.3505 50.0167 12.4066 49.963L12.464 49.8551L12.488 49.9926C12.5161 49.9658 12.5759 49.7481 12.6003 49.886C12.599 49.941 12.571 49.9678 12.5697 50.0228C12.654 49.9422 12.7939 49.8091 12.8464 49.9202L12.8692 50.1127C12.8976 50.0863 12.9814 50.0061 12.9277 49.9499C13.007 50.0891 13.0884 50.1188 13.0847 50.2836C13.3931 49.9902 13.666 50.0525 13.884 50.1135L13.8548 50.1945C13.9068 50.306 13.9402 50.0598 13.939 50.1148C13.9097 50.1965 13.9618 50.3072 13.8779 50.3874C13.93 50.4989 14.0179 50.2543 14.1009 50.2287C14.1582 50.1209 14.0447 50.2824 14.0753 50.1457C14.1033 50.1196 14.1826 50.2588 14.2408 50.0956C14.2396 50.1505 14.2095 50.2869 14.1798 50.3683L14.264 50.2885C14.2591 50.5075 14.0374 50.6112 14.0308 50.8855L14.0858 50.8867C14.1089 51.0796 13.8896 51.0735 14.0247 51.1594C14.1089 51.0796 14.1968 50.835 14.1712 50.752C14.3091 50.7284 14.3177 50.3447 14.454 50.3756C14.4515 50.4855 14.3445 50.3728 14.3404 50.5371C14.3648 50.6751 14.4515 50.4855 14.5052 50.5416C14.4796 50.4586 14.5382 50.2958 14.6207 50.2706C14.6732 50.3817 14.5357 50.4057 14.6439 50.4635C14.6732 50.3817 14.7842 50.33 14.7318 50.2189C14.8197 49.9744 14.8123 50.3032 14.899 50.1135C14.8953 50.2784 14.6988 50.4647 14.8058 50.5774C14.8099 50.413 14.9738 50.4175 14.9804 50.1432C15.0072 50.1713 14.9767 50.308 14.9193 50.4159C14.9718 50.527 15.117 50.1746 15.0828 50.4753L15.141 50.3121C15.1398 50.3671 15.1666 50.3951 15.1642 50.505C15.2187 50.5066 15.3603 50.3182 15.3273 50.564C15.3553 50.538 15.4635 50.5957 15.4404 50.4028C15.3887 50.2918 15.3289 50.5095 15.3619 50.2637C15.3847 50.4562 15.4713 50.2665 15.5271 50.2132L15.4982 50.2946C15.5258 50.2682 15.5527 50.2962 15.6105 50.188C15.5824 50.2149 15.5795 50.3243 15.5795 50.3243L15.6105 50.188C15.7211 50.1359 15.5771 50.4342 15.6865 50.437L15.6027 50.5172C15.6308 50.4904 15.6267 50.6547 15.6832 50.6015C15.7402 50.4932 15.7988 50.3304 15.8285 50.2491C15.8842 50.1957 15.8244 50.4134 15.9098 50.2787L15.8244 50.4134C15.7963 50.4403 15.8191 50.6328 15.9012 50.6625C15.957 50.6092 16.0705 50.4476 16.0168 50.3915C16.0717 50.3927 16.0973 50.4757 16.0396 50.5839C16.123 50.5587 16.0705 50.4476 16.1547 50.3679C16.1799 50.4505 16.2312 50.6165 16.2555 50.7545L16.1408 50.9709L16.1957 50.9722C16.0822 51.1337 16.2197 51.1097 16.1331 51.2993C16.1599 51.3274 16.216 51.2745 16.2441 51.2477C16.2234 50.9457 16.4174 50.8684 16.4785 50.5958C16.6441 50.5457 16.4084 51.2525 16.6367 50.8745C16.6111 50.7915 16.7523 50.6035 16.6416 50.6556C16.7234 50.6849 16.7576 50.3842 16.8369 50.5233C16.7523 50.6035 16.8572 50.8257 16.7168 50.9591C16.7461 50.8773 16.6912 50.8761 16.6635 50.9026C16.6611 51.0125 16.6025 51.1752 16.6838 51.2049C16.7384 51.2065 16.7937 51.2082 16.8242 51.0715C16.8547 50.9356 16.7412 51.0971 16.7998 50.9335C16.9105 50.8822 16.8775 51.128 16.9654 50.8835C16.9105 50.8822 16.9145 50.7178 16.9439 50.6361L17.0264 50.6108L16.9971 50.6926C17.1045 50.8049 17.0838 50.503 17.1924 50.5604L17.1875 50.7801C17.1289 50.9429 17.0252 50.6657 16.991 50.9665C17.0724 50.9962 17.1033 50.8599 17.1834 50.9445C17.1553 50.9713 17.1557 50.971 17.1277 50.9978C17.1545 51.0259 17.0906 51.408 17.2602 51.1936C17.3441 51.1134 17.2896 51.1118 17.3201 50.9758C17.4295 50.9787 17.4873 50.8705 17.5967 50.8733C17.5365 51.0914 17.7329 50.905 17.6183 51.1207C17.5942 50.9832 17.4295 50.9787 17.3428 51.1683C17.3367 51.4422 17.2346 51.1105 17.2017 51.3563C17.283 51.386 17.2501 51.6318 17.2195 51.7685C17.2463 51.7966 17.2752 51.7152 17.3033 51.6884C17.3342 51.5521 17.3074 51.524 17.3375 51.3876C17.4465 51.4455 17.5572 51.3934 17.6426 51.2587C17.6683 51.3417 17.6373 51.478 17.5828 51.4764C17.7203 51.4532 17.8566 51.4841 17.9635 51.5968C17.942 51.3494 18.1014 51.5732 18.1067 51.3539C18.053 51.2977 18.0299 51.1048 18.0877 50.9966C18.1141 51.0251 18.0848 51.1061 18.0836 51.161C18.169 51.0263 18.1336 51.382 18.2203 51.1923C18.1092 51.244 18.1308 51.4914 18.0725 51.6546C18.184 51.548 18.0416 51.7909 18.123 51.8206C18.2353 51.714 18.3463 51.6623 18.4557 51.6652C18.5338 51.8593 18.7568 51.7006 18.8654 51.7588C18.9175 51.8695 18.8308 52.0591 18.8841 52.1156C18.9394 52.1173 18.8625 51.8682 18.9695 51.9809L18.9418 52.0074C18.9976 51.9541 19.1025 52.1763 19.1916 51.8776L19.1318 52.0953C19.1586 52.1234 19.1598 52.0685 19.1879 52.0416C19.1586 52.1234 19.1839 52.206 19.1558 52.2328C19.207 52.3989 19.2937 52.2093 19.375 52.2389L19.3506 52.101C19.4898 52.0225 19.5687 52.162 19.652 52.1368L19.6211 52.2731L19.7053 52.1934C19.6748 52.3293 19.7004 52.4123 19.7578 52.3045L19.504 52.5987C19.4787 52.5161 19.5894 52.464 19.5935 52.2996C19.5955 52.1901 19.4861 52.1873 19.4556 52.3232C19.4824 52.3513 19.5101 52.3248 19.5666 52.2715C19.5345 52.4628 19.4799 52.4612 19.4222 52.5694C19.4503 52.5425 19.4759 52.6255 19.4771 52.5706C19.4197 52.6792 19.3652 52.6776 19.2835 52.6475C19.3396 52.5946 19.2859 52.5384 19.2871 52.4835C19.2285 52.6463 19.1728 52.6996 19.0922 52.6154C19.0691 52.4225 18.8986 52.6923 18.79 52.6341C18.8486 52.4713 18.934 52.3366 19.0166 52.3114C18.965 52.2003 18.9621 52.3098 18.9097 52.1987C18.8527 52.3069 18.7929 52.5246 18.7095 52.5498L18.7404 52.4135C18.6294 52.4652 18.6257 52.63 18.5439 52.5999C18.4089 52.514 18.2177 52.4811 18.1091 52.4237L18.14 52.2874C18.0237 52.5584 17.8642 52.3345 17.7523 52.4416C17.6181 52.3004 17.3675 52.4856 17.3175 52.2646C17.0157 52.2837 16.7402 52.3313 16.4685 52.2141L16.5552 52.0245C16.4698 52.1592 16.5577 51.9146 16.4751 51.9399C16.4991 52.0774 16.3616 52.1014 16.3042 52.2092C16.1981 52.042 16.0032 52.1738 15.8641 52.2523L15.895 52.116C15.7253 52.3305 15.6489 52.0819 15.4854 52.0224C15.487 51.9679 15.4894 51.858 15.4349 51.8564C15.293 52.0444 15.2661 52.0163 15.1274 52.0953C15.0456 52.0652 14.9106 51.9793 14.8305 51.8947C14.4415 52.1038 14.1735 51.8218 13.7875 51.9207L13.7911 51.7567C13.4026 51.9655 13.0541 51.5992 12.751 51.6733L12.8389 51.4287C12.7864 51.3176 12.6196 51.4226 12.5879 51.6135C12.5358 51.5028 12.3393 51.6892 12.3442 51.4702C12.2641 51.3856 12.2055 51.5484 12.1225 51.574C11.9883 51.4328 11.9057 51.458 11.7145 51.4251L11.7414 51.4531C11.7694 51.4271 11.8 51.2904 11.7731 51.2623C11.7174 51.3156 11.5567 51.1467 11.5502 51.421C11.4457 51.1984 11.0836 51.4356 10.9803 51.1581C10.951 51.2399 10.9225 51.2663 10.8949 51.2928C10.7317 51.2338 10.6537 51.0397 10.46 51.1166C10.4613 51.0616 10.5455 50.9819 10.491 50.9803C10.4625 51.0067 10.4613 51.0616 10.4051 51.1153C10.1017 51.189 9.94629 50.8008 9.70019 50.7666C9.23361 50.7813 8.88177 50.5794 8.47253 50.4862L8.47377 50.4313C8.27729 50.6177 8.26187 50.0964 8.03527 50.4191C8.0365 50.3642 7.92706 50.3613 7.98404 50.2531C7.95596 50.2799 7.90145 50.2783 7.8746 50.2502C7.84775 50.2221 7.84775 50.2221 7.84775 50.2221C7.8209 50.194 7.82213 50.1391 7.76479 50.247C7.76479 50.247 7.76479 50.247 7.79324 50.2205C7.74201 50.0545 7.70986 50.2457 7.65906 50.0793C7.63221 50.0512 7.66023 50.0252 7.66146 49.9702C7.61066 49.8038 7.65534 50.2441 7.58134 49.8856L7.63221 50.0512C7.55166 49.967 7.49715 49.9654 7.46906 49.9922C7.44098 50.0191 7.43974 50.074 7.43857 50.1281C7.1705 49.8469 6.85206 49.3989 7.06477 49.6793C6.98465 49.5947 7.1705 49.8469 7.11847 49.7354C7.19735 49.875 6.63645 49.2288 6.82397 49.4258C6.90409 49.5104 6.93095 49.5385 6.9578 49.5666C7.01107 49.6231 7.01107 49.6231 7.11847 49.7354C6.95656 49.6215 6.76904 49.4245 6.95532 49.6764L6.82151 49.5356C7.00903 49.7326 7.03463 49.8156 7.11475 49.9003C7.16845 49.9564 7.22049 50.0679 7.40925 50.2099C7.53776 50.57 7.65535 50.2441 7.90378 51.3481C7.9948 52.1734 8.25138 52.9486 8.17724 53.7697C7.95311 53.9826 7.97953 54.011 8.11254 54.2064C8.0576 54.2052 8.05761 54.2052 8.00231 54.2035C8.19513 54.1812 8.02669 54.3415 8.24636 54.3472C8.23858 54.6764 8.31505 54.925 8.36257 55.2559C8.33536 55.2273 8.14456 55.1948 8.19783 55.2514L8.33412 55.2823L8.27961 55.2807C8.30604 55.3091 8.41467 55.3665 8.47077 55.3136C8.72699 56.0884 8.37909 56.9019 8.47092 57.6726C8.38426 57.8622 8.48795 58.1394 8.53881 58.305C8.30523 58.9023 8.07368 59.4448 8.27867 60.0535C8.05366 60.3217 7.50653 60.2521 7.40203 60.0295Z" fill="#DADADA"/>
<path d="M19.4719 52.79C19.4744 52.6802 19.4207 52.624 19.5066 52.4889C19.4488 52.5971 19.4744 52.6802 19.4719 52.79Z" fill="#DADADA"/>
<path d="M17.8578 51.4286C17.8298 51.4555 17.831 51.4006 17.8322 51.3456C17.8322 51.3456 17.89 51.2374 17.9156 51.3204C17.8875 51.3473 17.8859 51.4018 17.8578 51.4286Z" fill="#DADADA"/>
<path d="M17.4223 51.3076C17.4512 51.2262 17.5623 51.1745 17.6172 51.1758L17.4223 51.3076Z" fill="#DADADA"/>
<path d="M17.0766 50.8314C17.051 50.7484 17.0791 50.7215 17.1339 50.7236C17.1323 50.7781 17.1047 50.8046 17.0766 50.8314Z" fill="#DADADA"/>
<path d="M17.0164 51.0492C16.9615 51.048 16.9627 50.9931 16.964 50.9381C16.9627 50.9931 17.075 50.8864 17.0164 51.0492Z" fill="#DADADA"/>
<path d="M16.1774 50.56C16.1774 50.56 16.0932 50.6397 16.0961 50.5303C16.0932 50.6397 16.2352 50.4518 16.1774 50.56Z" fill="#DADADA"/>
<path d="M15.7095 50.6294C15.6562 50.5729 15.7119 50.5195 15.7119 50.5195L15.7095 50.6294Z" fill="#DADADA"/>
<path d="M8.09944 48.8024L8.1824 48.7776L8.15351 48.859L8.09944 48.8024Z" fill="#DADADA"/>
<path d="M5.18324 49.2155C5.29021 49.3282 5.10146 49.1862 5.07344 49.2123C5.04819 49.1297 5.20886 49.2986 5.18324 49.2155Z" fill="#DADADA"/>
</g>
<defs>
<clipPath id="clip0_1980_8386">
<rect width="79.8287" height="93.3209" fill="white" transform="translate(121.273 71.0742) rotate(139.607)"/>
</clipPath>
</defs>
</svg>
