<svg width="122" height="123" viewBox="0 0 122 123" fill="none" xmlns="http://www.w3.org/2000/svg">
<g clip-path="url(#clip0_1980_8410)">
<path d="M4.11704 67.4293C4.04574 66.7181 4.31713 67.7804 4.13366 66.9625C4.05332 67.047 4.00233 67.213 4.11704 67.4293Z" fill="#DADADA"/>
<path d="M111.197 53.4646C109.477 54.993 107.891 57.5599 105.925 59.1225C105.709 59.2931 106.174 59.2528 105.663 59.6784C105.177 60.021 104.64 60.4743 104.075 60.9562C103.51 61.438 102.946 61.9747 102.328 62.5131C101.709 63.0506 101.119 63.6155 100.528 64.1258C100.232 64.3805 99.9088 64.6637 99.6412 64.9453C99.3455 65.2001 99.0498 65.4556 98.7809 65.6823L98.9717 65.6497C98.569 66.0172 97.8617 66.256 97.4024 66.5702C97.4305 66.5971 97.5936 66.5373 97.5416 66.6487C97.3211 66.5999 96.5938 67.1961 96.3481 67.2298C96.1871 67.3991 96.2713 67.4789 96.0573 67.7043L95.7014 67.7418C95.2096 67.8097 94.7239 68.1523 94.2098 68.4685C93.6961 68.7843 93.1567 69.1831 92.5591 69.4187C92.6137 69.4171 92.75 69.3862 92.6698 69.4708C90.7409 70.2639 88.4639 71.4237 86.3154 72.2232C86.4251 72.2202 86.5373 72.3269 86.4571 72.4115C86.2899 72.3062 85.6093 72.517 85.0379 72.7245C84.852 72.9767 83.9734 72.9458 83.3782 73.2914L83.4609 73.3164C82.9129 73.3316 82.7561 73.6651 82.2613 73.6237L81.9923 73.8505C81.6864 73.667 81.3152 74.2256 80.8486 74.211L80.8473 74.1561C80.437 74.195 80.2495 74.392 79.8951 74.4841L79.8682 74.5122C78.9948 74.7006 78.5348 74.9603 78.5027 74.769C78.2336 74.9958 79.3492 74.6086 78.9463 74.9762C76.0259 75.5779 73.0501 76.1804 70.0694 76.5639C69.7432 76.6827 69.5253 76.7436 69.4716 76.7999C69.1974 76.8072 68.3484 76.8581 68.0731 76.8107C68.1827 76.8078 67.9111 76.9249 67.7199 76.9576C67.1742 77.0823 67.1131 76.8096 66.5394 76.9076C66.76 76.9565 66.8709 77.0083 66.7905 77.0928C66.2666 76.97 65.582 77.0163 65.0058 77.0046C65.0886 77.0298 65.2263 77.0534 65.2275 77.1083C64.566 76.9618 64.0496 77.168 63.4441 77.0749L63.6659 77.1785C62.7365 77.3138 63.3867 76.9667 62.5925 77.0159C62.785 77.0381 62.7314 77.0944 62.7327 77.1493C61.9869 76.9228 60.7542 76.9841 60.0377 76.8392C60.0658 76.8658 60.0658 76.8658 60.0658 76.8658C59.6808 76.8215 59.2422 76.8335 58.8024 76.7908C58.3906 76.7746 57.9228 76.7052 57.5098 76.6342C57.1809 76.6433 57.5989 76.9335 56.718 76.7931C56.7678 76.5723 55.2852 76.5033 55.8296 76.3238C55.4726 76.3061 54.9779 76.2648 54.5382 76.222C54.0983 76.1792 53.6853 76.1083 53.4635 76.0047C53.7682 76.1335 53.0568 76.2078 53.6636 76.3558L53.1715 76.4241C53.2289 76.5323 53.6394 76.4936 53.4762 76.5529C53.1728 76.4789 52.3174 76.2556 52.042 76.2082C51.5156 75.9758 51.0681 75.6041 50.2115 75.3259C50.6003 75.5347 49.9144 75.526 50.1911 75.6282C49.829 75.3912 49.439 75.1276 49.1037 74.8625C48.8271 74.7604 48.9979 75.03 48.5823 74.8494C48.6359 74.793 48.4421 74.7161 48.3299 74.6094C48.2203 74.6125 47.1673 74.1476 46.9787 74.2899C46.8422 74.3211 47.4223 74.4972 47.0921 74.4514C46.5937 74.2457 46.5643 74.1641 46.0659 73.9584L46.0391 73.9866C45.6797 73.8592 45.0946 73.4639 45.4796 73.5081C45.7014 73.6118 45.3444 73.5942 45.7026 73.6666C45.5331 73.4519 44.9773 73.1379 44.4777 72.8773C44.6178 73.0106 44.5911 73.0388 44.6204 73.1203C44.0328 72.6153 43.3916 72.1666 42.7491 71.663C42.8014 71.5519 42.8944 72.0156 43.0321 72.0392C42.062 71.5996 41.3814 70.6307 40.6038 70.2132C40.7159 70.3199 40.767 70.1539 40.7403 70.1821C40.3489 69.8636 40.2966 69.9748 40.071 69.7067C39.9626 69.7645 39.7893 69.3853 39.5918 69.1438C39.5331 68.9809 39.5089 69.1186 39.6784 69.3335C39.5369 69.1453 39.1966 68.6609 38.8002 68.1232C38.4039 67.5855 38.0062 66.9929 37.6671 66.5634C37.7219 66.5619 37.5143 65.8818 37.3996 65.6656L37.3205 65.8048C37.1523 65.6449 36.9739 65.0463 36.8642 65.0493C36.8579 64.7752 36.979 65.2657 37.1816 65.7264C37.3562 66.1605 37.5588 66.6212 37.4403 66.2404C37.2185 66.1368 37.1982 65.2596 37.0936 65.4819C36.9789 65.2656 36.9459 65.0197 36.8579 64.7752C36.77 64.5308 36.7101 64.313 36.5686 64.1249C36.626 64.233 36.5239 64.5649 36.4054 64.1842C36.1977 63.5042 36.4004 63.9649 36.2781 63.4196L36.2425 63.0641C36.3508 63.0062 36.0908 62.4373 36.2884 62.6788C36.1495 62.6003 36.1827 61.6668 35.966 61.7824L35.8041 61.8966C35.7697 61.5958 35.9291 61.372 36.0056 61.1231C35.9776 61.0964 35.9483 61.0149 35.9215 61.0431C36.1943 60.9808 35.877 60.3037 36.1155 59.9406C36.0454 59.2842 36.298 58.3447 36.2088 58.0454C36.418 57.6008 36.6284 57.211 36.7802 56.6582C36.7279 56.7694 36.6488 56.9087 36.594 56.9102C36.6412 56.5797 36.7216 56.4953 36.9077 56.2433C36.8809 56.2714 36.9039 56.0788 36.9537 55.858C37.0035 55.6372 37.1067 55.36 37.1565 55.1392C37.4765 54.7465 37.5096 54.9924 37.6193 54.9894C37.6129 54.7153 37.8539 54.4618 38.0949 54.2083C38.3359 53.9549 38.633 53.7547 38.7082 53.4509C38.5731 53.537 38.1421 53.8779 38.3538 53.5429C38.3781 53.4051 38.4584 53.3206 38.5387 53.2361C38.6191 53.1516 38.7274 53.0938 38.8358 53.036C38.9442 52.9782 39.0793 52.8921 39.2144 52.8061C39.3496 52.7201 39.4847 52.6342 39.5919 52.5215L39.5982 52.7956C39.755 52.4622 40.5199 52.3315 40.3237 52.1448C40.5417 52.084 41.0262 51.6867 41.0312 51.906C41.2467 51.7355 41.5731 51.6168 41.8446 51.4996C42.1442 51.4091 42.4706 51.2905 42.7995 51.2814C42.964 51.2769 43.1272 51.2176 43.2636 51.1865C43.4281 51.1819 43.5645 51.1507 43.7009 51.1196C43.9737 51.0573 44.2198 51.023 44.3817 50.9089C44.4645 50.934 44.629 50.9295 44.7119 50.9547C44.8496 50.9783 44.9324 51.0035 44.8788 51.0598C44.5792 51.1503 44.4926 50.9607 44.3842 51.0186C44.5219 51.0422 44.578 51.0955 44.578 51.0955C44.9336 51.0583 45.209 51.1056 44.9018 50.8672C45.3123 50.8285 45.5074 50.9603 45.7305 51.1188C45.8413 51.1706 45.9535 51.2772 46.0644 51.329C46.2033 51.4075 46.3691 51.4578 46.6176 51.5333C46.5883 51.4518 46.6967 51.394 46.9466 51.5243L47.4207 51.8678C47.9753 52.1269 47.8593 51.8558 47.9384 51.7165C48.2443 51.9001 48.6063 52.137 48.693 52.3267C48.8574 52.3222 48.9964 52.4007 49.1341 52.4243C48.8026 52.3236 49.3048 52.6939 49.3902 52.8287C49.3621 52.802 49.3329 52.7206 49.3049 52.6939C49.4145 52.6909 49.6413 53.0138 49.7815 53.1471C49.6732 53.205 49.3647 52.9117 49.1697 52.7799C49.2831 52.9413 49.4526 53.1562 49.5393 53.3458C49.6171 53.1516 49.9586 53.6909 50.1282 53.9056C50.3257 54.1471 50.1919 54.2879 50.2479 54.3412C50.2747 54.3131 50.3601 54.4479 50.4162 54.5012C50.4455 54.5827 50.5016 54.636 50.5259 54.4982C50.4965 54.4167 50.3295 54.3116 50.3258 54.1471C50.466 54.2804 50.6011 54.1944 50.7209 54.63C50.7833 54.9574 50.42 54.6656 50.7335 55.1782C50.7297 55.0138 50.7565 54.9856 50.7527 54.8211C50.8662 54.9826 50.9528 55.1722 51.0114 55.3352L50.903 55.393C50.9591 55.4463 50.9579 55.3915 50.9859 55.4181C50.9336 55.5293 50.9935 55.7471 51.0254 55.9383C51.0572 56.1294 51.0622 56.3487 51.01 56.4598C51.0406 56.5961 51.0711 56.7324 51.1297 56.8954C51.1603 57.0317 51.2189 57.1947 51.2495 57.3309L51.2482 57.2761C51.3387 57.6303 51.294 58.0704 51.1639 58.3757L51.1907 58.3475C51.1677 58.5401 51.123 58.9802 51.0184 59.2025C51.0298 59.6959 51.5182 59.4631 51.2555 59.9641C51.1572 60.4605 50.8334 60.6888 50.8003 60.4429C50.6841 61.3512 50.1281 62.2168 50.0107 63.0703C49.9036 63.183 49.9011 63.0734 49.7697 63.3238C49.2774 64.5716 48.4001 65.7752 48.0686 66.854C48.3082 66.5457 48.1794 66.9058 48.2623 66.931C47.9933 67.1578 48.1616 67.3178 47.9423 67.3238C47.8581 67.2439 47.7753 67.2187 47.9321 66.8852C47.4808 67.5285 46.7909 68.5349 46.6366 68.978C46.7144 68.7839 46.5792 68.8698 46.4453 69.0107C46.6391 69.0876 46.3216 69.5901 45.9722 69.9014L45.8346 69.8777L45.7593 70.1815C45.5974 70.2957 45.4304 70.1905 45.248 70.607C45.276 70.6336 45.3053 70.7151 45.2798 70.7981C44.9025 71.0828 44.3631 71.4816 44.1272 71.9544C44.103 72.0922 44.0239 72.2315 43.9997 72.3693C43.839 72.5383 43.5139 72.7118 43.7536 72.4035C43.2767 73.1297 42.9018 73.524 42.8266 73.8278C41.5287 74.6315 39.9718 76.1005 38.6815 77.2331L38.7644 77.2582C38.4711 77.6229 38.4635 77.2939 38.2773 77.5459C38.4686 77.5132 38.1218 77.9342 38.4749 77.7873C38.0197 78.2661 37.7163 78.1922 37.3376 78.422C37.2268 78.3702 37.636 78.2767 37.497 78.1982C37.4154 78.2279 36.8264 78.8475 36.6313 78.7157C36.5523 78.855 36.718 78.9053 36.8276 78.9023L36.4477 79.0773C36.157 79.5516 37.5913 78.7168 37.3018 79.2459L37.0048 79.446C36.8211 79.8077 37.9278 79.0367 37.201 79.6326C36.8211 79.8076 36.3546 79.793 36.6223 79.5114C35.8918 79.9429 36.0435 79.3901 35.3143 79.8764C35.1549 80.1002 35.9364 79.5028 35.8867 79.7236C35.5934 80.0882 35.1281 80.1284 34.8323 80.3834C35.1549 80.1002 34.7443 80.1389 34.4995 80.2279C34.1502 80.5392 34.8285 80.2189 34.2879 80.5629C34.1502 80.5393 33.579 80.7469 33.9832 80.4341C33.6798 80.3601 33.4159 80.8063 33.0321 80.8168C32.9008 81.0673 33.8008 80.8505 33.2067 81.2509C33.2297 81.0582 32.3334 81.4394 32.5719 81.0763C32.3564 81.2468 32.3589 81.3564 32.6062 81.3771C32.2837 81.6602 31.622 81.5138 31.6296 81.8427L31.4359 81.7657C31.3556 81.8502 31.1936 81.9644 31.0329 82.1334C30.7346 82.2787 29.9123 82.3013 30.0271 82.5176C29.9174 82.5206 29.155 82.7609 29.396 82.5075C29.8295 82.2761 29.971 82.4643 30.1559 82.1574C29.8881 82.4391 29.4751 82.3682 29.201 82.3756L29.2035 82.4853C29.0391 82.4898 28.6578 82.61 28.5469 82.5582C28.6846 82.5818 28.6311 82.6382 28.496 82.7242L28.2741 82.6205C27.5908 82.7215 28.1708 82.8977 27.5423 82.9972L28.0637 83.0103C27.9541 83.0133 27.7386 83.1838 27.4378 83.2195C27.2708 83.1144 27.0489 83.0107 26.9368 82.9041C26.5798 82.8864 26.7761 83.0731 26.4179 83.0006L26.9138 83.0967C26.9967 83.1218 26.618 83.3517 26.1259 83.4201C25.8238 83.4009 25.2718 83.2515 25.7907 83.1549C25.5446 83.1892 25.1902 83.2811 25.412 83.3848C24.8357 83.3731 25.491 83.2454 24.9964 83.2042C24.8064 83.2917 24.1792 83.446 23.798 83.5662C23.9918 83.6432 24.1307 83.7216 24.3245 83.7987C24.2149 83.8016 24.1052 83.8047 23.9956 83.8077C24.4392 84.015 23.7521 83.9515 24.0032 84.1366C23.7571 84.1708 23.4537 84.0968 23.2332 84.048C23.5864 83.9012 23.3926 83.8242 23.1427 83.6939C22.8929 83.5636 22.5882 83.4348 22.6953 83.3222C22.2275 83.2527 22.0936 83.3935 21.9317 83.5077C21.7697 83.6219 21.6066 83.6812 21.1336 83.3924C21.2968 83.3331 20.88 83.0977 21.4587 83.2189C20.8812 83.1525 21.1222 82.899 20.4364 82.8904C20.9067 83.0695 19.8372 83.0714 20.5294 83.3542C20.5 83.2727 20.9411 83.3703 21.052 83.4221C20.7792 83.4844 21.0584 83.6962 20.4528 83.6031C20.0946 83.5307 19.5974 83.3797 19.7046 83.2671C19.7556 83.1011 20.2566 83.4165 20.0322 83.2032C19.3413 82.9753 19.1538 83.1725 18.9537 82.8214C19.3961 82.9738 19.5299 82.833 19.5555 82.75C19.3897 82.6997 19.2508 82.6212 19.057 82.5442L19.1424 82.679C18.3163 82.5371 18.9449 82.4376 18.1723 82.2393L17.5426 82.284C17.5999 82.3922 17.9033 82.4662 18.1251 82.5698C18.3737 82.6453 18.5942 82.6941 18.4604 82.8349C17.9364 82.7121 17.8218 82.4959 17.3259 82.3998C17.4367 82.4515 17.5757 82.53 17.6585 82.5552C17.4928 82.5048 17.1435 82.8162 16.501 82.3126C16.1671 82.1024 16.4436 82.2045 16.4679 82.0667C15.6916 81.704 15.5221 81.4892 15.0492 81.2004C15.0275 81.4479 14.1887 80.7577 14.6386 81.2391C14.8031 81.2346 15.1358 81.3901 15.4698 81.6003C15.8025 81.7558 16.1365 81.9661 16.2499 82.1275C15.8687 82.2477 16.886 82.3569 16.9752 82.6562C16.3111 82.4001 16.2613 82.6209 16.0994 82.7351C15.9056 82.6581 15.7654 82.5249 15.6813 82.4449C15.6775 82.2804 15.8993 82.384 15.9784 82.2447C15.2313 81.9635 14.6182 81.5414 14.3085 81.1933C14.0599 81.1179 14.0369 81.3105 14.3148 81.4674C13.5347 80.9402 12.6998 80.4146 11.9745 79.8859C12.2779 79.9599 12.1096 79.7999 11.8865 79.6414C11.6902 79.4548 11.4939 79.2682 11.6864 79.2903C12.0765 79.5539 12.5175 79.6515 12.3748 79.4086C12.1517 79.2501 12.2945 79.4931 12.1836 79.4413C11.9835 79.0902 11.6023 79.2103 11.4838 78.8296C12.0739 79.4443 11.4098 79.1882 11.4149 79.4075C11.0197 78.9246 11.3358 79.5468 10.8871 79.1203C10.492 78.6374 10.0395 78.0463 9.61508 77.4819C8.8898 76.9533 8.25891 75.7636 7.86002 75.1163C7.55154 74.823 7.53237 75.1801 7.24944 74.8039C6.99197 74.3446 7.6382 75.0126 7.15769 74.395L7.13218 74.4779C7.10159 74.3416 6.87598 74.0735 6.73199 73.7758C6.55992 73.4513 6.44271 73.1254 6.54857 72.9579L6.41846 73.2632C6.33306 73.1284 6.33053 73.0187 6.29994 72.8824C6.21836 72.9121 6.07815 72.7788 6.16608 73.0232C5.96976 72.8366 5.88187 72.5922 5.82199 72.3744C5.73406 72.1299 5.70093 71.884 5.61301 71.6395C5.69714 71.7195 5.78127 71.7995 5.86539 71.8795C5.74563 71.4439 5.62841 71.1179 5.48313 70.7653C5.3659 70.4394 5.22063 70.0868 5.15568 69.6497L5.04728 69.7075L5.00785 69.1874C4.90201 69.3549 4.69938 68.8942 4.77465 68.5904C4.758 69.0572 4.74136 69.5239 4.75149 69.9625C4.92354 70.287 4.79618 69.5224 4.99248 69.709C5.16073 69.869 5.34292 70.632 5.23708 70.7995C5.12111 70.5284 5.1479 70.5003 5.14157 70.2261C4.92103 70.1773 5.06881 70.6395 4.99228 70.8885C4.93366 70.7255 4.84703 70.5359 4.90058 70.4796C4.90818 70.8086 4.99737 71.1078 5.14645 71.6249C5.11081 71.2693 5.31468 71.7848 5.31088 71.6204C5.14896 71.7345 5.29676 72.1968 5.58478 72.7923C5.78106 72.9789 5.89706 73.2501 5.9875 73.6042C6.10476 73.9301 6.22324 74.3109 6.42207 74.6071C6.44124 74.25 6.34953 73.8411 6.22975 73.4055C6.51273 73.7818 6.48722 73.8648 6.77015 74.241C6.7765 74.5151 6.67189 74.7374 6.93188 75.3063L7.06834 75.2752C7.32702 75.7892 7.16509 75.9034 7.58953 76.4678C8.37979 77.4335 9.19682 78.3712 9.89789 79.0377L10.0062 78.9798C10.1833 79.5236 11.2146 80.2359 11.7193 80.7158C12.7213 81.3466 13.8672 82.2752 14.4995 82.3401C15.4441 82.8628 16.3045 83.3055 17.2721 83.6355C18.2129 83.9937 19.2059 84.2408 20.3074 84.43L19.9721 84.1649C20.3329 84.347 20.2449 84.1025 20.6312 84.2017C20.3851 84.2358 20.5241 84.3143 20.7179 84.3913C20.9116 84.4683 21.2151 84.5423 21.354 84.6207C22.3407 84.5937 23.5798 84.8065 24.4595 84.8921L24.4837 84.7543C25.3939 84.9762 26.4559 84.6453 27.4924 84.3975C27.6008 84.3397 27.7614 84.1707 28.089 84.1068C28.7214 84.1717 29.0209 84.0812 29.8955 83.9475C30.1951 83.857 30.6031 83.7087 30.983 83.5337C31.363 83.3586 31.7429 83.1837 32.04 82.9835C34.382 82.2609 36.3773 80.7799 38.4568 79.3788L38.5065 79.158C39.5622 78.553 40.5835 77.6472 41.5232 76.7711C42.4629 75.895 43.3185 74.939 44.0708 74.26L43.7686 74.2409C44.1409 73.7369 44.8141 73.1973 44.8473 73.4432C45.2464 72.9111 45.9999 72.287 46.0994 71.8454C46.4985 71.3133 46.6897 71.2806 47.0366 70.8596C47.7507 69.7154 48.0439 69.3508 48.7606 68.3162L48.6024 68.5949C48.4673 68.6809 48.3844 68.6557 48.5426 68.3771C48.8638 68.0391 49.3854 66.8727 49.3981 67.421C49.9452 66.1716 51.0087 64.7162 51.3072 63.3913C51.3377 63.5277 51.4678 63.2223 51.575 63.1097C52.0149 61.973 52.2051 60.706 52.5125 59.765C52.5074 59.5457 52.2996 60.0452 52.3978 59.5487C52.4731 59.245 52.5074 59.5457 52.6095 59.2137C52.806 58.2209 52.8086 57.151 52.6214 56.1687C52.4061 55.1598 52.0277 54.2101 51.5969 53.3716L51.2821 52.8042L50.8857 52.2665C50.7442 52.0784 50.6041 51.9451 50.4626 51.757C50.2943 51.597 50.1809 51.4355 49.9858 51.3037C49.3408 50.6905 48.5901 50.2448 47.8417 49.9088C47.0654 49.5461 46.2381 49.3494 45.4121 49.2074C44.5872 49.1203 43.7637 49.088 42.9694 49.1373L43.0255 49.1906C42.5028 49.1227 41.8488 49.3052 41.2776 49.5129C40.7065 49.7205 40.1914 49.9815 39.7261 50.0217C39.5106 50.1922 38.8884 50.5659 39.1077 50.5599C38.6997 50.7082 38.2153 51.1055 37.7868 51.5561C37.5726 51.7814 37.3316 52.0349 37.1174 52.2602C37.0103 52.3729 36.9032 52.4855 36.7693 52.6263C36.6622 52.739 36.5551 52.8517 36.448 52.9643C36.5283 52.8798 36.5819 52.8235 36.6622 52.739C36.0004 53.7721 35.3348 54.6407 34.9802 55.9121C35.0324 55.801 35.1371 55.5787 35.2186 55.549C35.197 55.7965 35.0108 56.0484 34.9062 56.2708C34.7748 56.5212 34.697 56.7153 34.7837 56.905C34.7072 57.1539 34.595 57.0473 34.646 56.8814C34.3208 58.2343 34.1624 59.6924 34.2234 61.1445C34.2843 62.5966 34.6194 64.0412 35.1445 65.3983C35.6593 66.3167 35.7677 66.2589 35.8493 66.2292C35.9028 66.1729 35.8735 66.0915 36.1654 66.8514C36.2775 66.9581 36.1143 67.0174 36.1959 66.9878C36.3119 67.2589 36.5082 67.4455 36.7032 67.5773C36.8982 67.7091 37.0385 67.8424 37.0984 68.0602C36.851 68.0396 37.1875 68.3595 37.1072 68.4439C37.3315 68.6572 37.473 68.8454 37.6413 69.0053C37.7815 69.1386 37.9217 69.272 38.0339 69.3786C38.2863 69.6185 38.4826 69.8051 38.7668 70.2362L38.791 70.0984C39.39 71.0969 40.5041 71.8343 41.1261 72.6401C43.6921 74.4898 46.5718 75.6726 49.4706 76.4982C52.3695 77.3239 55.3156 77.8191 58.2834 78.0668C64.1896 78.4808 70.0514 78.1554 75.8865 76.6786C77.2178 76.1211 77.2992 76.0914 78.8008 75.8031C78.7181 75.778 78.6366 75.8078 78.7167 75.7232C78.8584 75.9115 79.7803 75.4474 79.9753 75.5791C82.099 74.9172 84.032 74.2883 86.1509 73.4073C85.8243 73.5257 85.576 73.4505 85.9837 73.302L86.449 73.2617L86.4745 73.1788C86.7743 73.0884 87.1031 73.0793 86.8328 73.2513C89.5245 72.2176 92.0435 70.8593 94.4491 69.3394C96.8554 67.8195 99.121 66.1665 101.329 64.4053C101.813 63.9532 102.431 63.4149 103.077 62.9037C103.696 62.3654 104.369 61.8258 104.907 61.372C106.406 59.7948 107.714 58.2505 109.022 56.6508C110.328 55.0516 111.553 53.4271 112.884 51.6899C112.884 51.6899 112.693 51.7229 112.368 51.9512C112.214 52.3943 111.785 52.7899 111.197 53.4646Z" fill="#DADADA"/>
<path d="M4.1918 68.3044C4.33201 68.4377 4.45302 68.9281 4.52576 68.5147C4.41487 68.4629 4.27213 68.2199 4.1918 68.3044Z" fill="#DADADA"/>
<path d="M11.1303 78.9764C11.1035 79.0045 11.2973 79.0815 11.3521 79.08C11.2399 78.9734 11.1813 78.8104 11.0704 78.7586C11.1826 78.8652 11.101 78.8949 11.1303 78.9764Z" fill="#DADADA"/>
<path d="M13.7243 80.8526C13.7218 80.7429 13.2183 80.3179 12.8563 80.0809C13.1635 80.3193 13.4171 80.6141 13.7243 80.8526Z" fill="#DADADA"/>
<path d="M16.5186 81.9012C16.7659 81.9218 16.7366 81.8403 16.4051 81.7397C16.3783 81.7679 16.4893 81.8197 16.5186 81.9012Z" fill="#DADADA"/>
<path d="M16.6345 82.1718C16.8564 82.2755 16.9928 82.2443 17.1305 82.268C17.0769 82.3243 16.6027 81.9807 16.6345 82.1718Z" fill="#DADADA"/>
<path d="M22.9131 83.2616C23.0508 83.2853 23.409 83.3577 23.5441 83.2717C23.3809 83.3311 22.801 83.155 22.9131 83.2616Z" fill="#DADADA"/>
<path d="M25.8774 83.3447C25.959 83.315 26.0138 83.3135 26.1235 83.3105C26.2867 83.2512 26.1209 83.2008 25.9565 83.2054L25.8774 83.3447Z" fill="#DADADA"/>
<path d="M39.0537 52.9756C39.1341 52.8911 39.2156 52.8614 39.324 52.8036L39.2412 52.7784C39.1608 52.8629 39.1073 52.9192 39.0537 52.9756Z" fill="#DADADA"/>
<path d="M44.1421 72.6123C44.4213 72.8241 44.3894 72.633 44.4175 72.6596C44.1944 72.5012 44.5028 72.7944 44.1421 72.6123Z" fill="#DADADA"/>
<path d="M56.7676 76.5723L56.6847 76.5472L56.6898 76.7665L56.7676 76.5723Z" fill="#DADADA"/>
<path d="M101.692 52.7931C101.609 52.7679 101.743 52.6267 101.635 52.7398C101.637 52.7943 101.693 52.8476 101.692 52.7931Z" fill="#DADADA"/>
<path d="M113.871 60.0295C114.331 59.7154 113.882 59.2885 114.176 58.9788C114.203 58.9507 113.902 58.9862 113.983 58.9019C114.359 58.5626 114.155 58.0469 113.899 57.6421L113.817 57.6722C113.788 57.5904 114.033 57.5013 114.003 57.4203C113.948 57.4215 113.922 57.4496 113.866 57.3963C114.03 57.3922 113.944 57.2571 114.081 57.2258C114.025 57.1725 113.915 57.1757 113.833 57.1505L114.024 57.118C114.433 57.0243 114.016 56.7891 114.232 56.6182C114.177 56.6199 114.15 56.6483 114.122 56.6215C114.39 56.3399 114.382 56.0107 114.484 55.6786C114.429 55.6807 114.32 55.6831 114.237 55.6583C114.401 55.6538 114.481 55.5692 114.507 55.4862C114.342 55.4361 114.696 55.3441 114.584 55.2371L114.529 55.2388C114.72 55.2062 114.443 55.1041 114.662 55.098L114.524 55.0194C114.798 55.0117 114.412 54.9128 114.52 54.855L114.575 54.8538C114.628 54.7972 114.518 54.7451 114.571 54.689L114.543 54.6625C114.622 54.5233 114.483 54.4444 114.704 54.4932C114.538 54.4428 114.597 54.6059 114.402 54.5291C114.668 54.138 114.686 53.7258 114.732 53.3404C114.676 53.2871 114.648 53.2607 114.565 53.2354C114.592 53.2073 114.616 53.0694 114.726 53.0665L114.615 53.0149C114.531 52.9347 114.833 52.9538 114.748 52.8741C114.694 52.8753 114.612 52.905 114.53 52.8798C114.692 52.8204 114.663 52.739 114.744 52.6543C114.689 52.6559 114.689 52.6559 114.634 52.6576C114.824 52.5701 114.63 52.4928 114.738 52.435L114.629 52.4379C114.516 52.2767 114.876 52.4586 114.791 52.3239C114.764 52.352 114.709 52.3536 114.681 52.3272C114.899 52.2661 114.867 52.0753 114.947 51.9907L114.893 51.9923C114.945 51.8812 114.887 51.7729 114.995 51.6598C114.939 51.6069 114.719 51.613 114.772 51.5019C114.992 51.5507 114.904 51.3062 115.154 51.4364C115.152 51.3269 115.093 51.1638 115.147 51.1076C115.065 51.1373 114.87 51.0051 114.844 51.0881L114.706 51.0099C114.596 51.0128 114.735 51.0909 114.624 51.0393C114.651 51.0112 114.758 50.8985 114.73 50.872C114.893 50.8126 115.166 50.7503 115.217 50.5843C115.109 50.6421 114.969 50.5635 114.916 50.6197C115.079 50.5607 115.241 50.4463 115.431 50.3589C115.43 50.3043 115.24 50.3918 115.32 50.3072C115.375 50.3055 115.429 50.2494 115.51 50.2197C115.482 50.1928 115.641 49.969 115.368 50.0313C115.287 50.061 115.288 50.1159 115.233 50.1176C115.259 50.0345 115.341 50.0048 115.366 49.9222L115.339 49.9503C115.311 49.9234 115.499 49.7265 115.608 49.7232C115.61 49.7781 115.445 49.7826 115.528 49.8075C115.69 49.6935 115.769 49.5543 115.793 49.4164C115.74 49.4726 115.686 49.5287 115.578 49.5869C115.819 49.3338 115.923 49.1112 116.055 48.8605C116.19 48.7747 115.814 49.114 115.867 49.0579C115.784 49.0327 115.89 48.8654 115.969 48.7259C116.048 48.5867 116.127 48.4471 115.991 48.4784C115.937 48.535 116.207 48.3079 116.125 48.3377C116.15 48.2546 115.908 48.4532 116.015 48.3405C115.908 48.4532 116.068 48.2294 116.12 48.1183C116.227 48.0056 116.066 48.1744 116.041 48.2575C116.12 48.1183 116.278 47.84 116.328 47.619C116.246 47.6483 116.137 47.7065 116.002 47.7924C116.083 47.7081 116.133 47.4868 116.079 47.5433L115.947 47.739C115.813 47.8798 115.783 47.7985 115.651 47.9942C115.703 47.8831 115.758 47.8815 115.814 47.9347C115.842 47.9612 115.898 48.0149 115.895 47.9051C115.708 48.102 115.972 47.656 115.786 47.9079C115.704 47.938 115.782 47.7435 115.513 47.9702C115.567 47.914 115.382 48.2208 115.327 48.2221C115.217 48.2253 115.352 48.1391 115.269 48.1142L115.268 48.0593C115.401 47.8636 115.133 48.1452 115.319 47.8933C115.214 48.0609 115.155 47.8978 114.996 48.1765L114.892 48.3991C114.837 48.4003 114.942 48.1781 114.939 48.0682C114.913 48.0963 114.859 48.1529 114.86 48.2074C115.044 47.8461 114.725 48.2937 114.747 48.0463C114.56 48.2432 114.394 48.1928 114.289 48.4154C114.233 48.362 114.149 48.2819 114.014 48.3678C114.042 48.3946 114.069 48.3665 114.043 48.4496C113.936 48.5623 113.962 48.4792 113.907 48.4805C113.908 48.5354 113.747 48.7043 113.668 48.8438C113.584 48.7641 113.609 48.6261 113.606 48.5167C113.555 48.6823 113.472 48.6575 113.417 48.6587C113.334 48.6335 113.251 48.6087 113.227 48.7462C113.255 48.7727 113.394 48.8512 113.314 48.9362C113.293 49.2382 113.118 48.804 113.013 48.9717C112.983 48.8899 112.983 48.8353 112.953 48.7539C112.929 48.8915 112.759 48.677 112.847 48.9216C112.791 48.8679 112.74 49.0339 112.68 48.8162C112.576 49.0384 112.242 48.828 112.278 49.2386C112.25 49.2118 112.197 49.2683 112.194 49.1588C112.192 49.049 112.278 49.2386 112.276 49.1287C112.276 49.1287 112.22 49.0758 112.219 49.0209C112.193 49.1039 112.138 49.1051 112.252 49.2667C112.2 49.4327 112.025 48.944 111.891 49.0848C111.92 49.1662 111.922 49.2207 111.893 49.1943L111.753 49.0612C111.673 49.1454 111.758 49.2801 111.817 49.4433C111.762 49.4445 111.707 49.4465 111.65 49.3379L111.655 49.5576C111.651 49.3928 111.571 49.4775 111.543 49.4506L111.571 49.4775C111.572 49.5324 111.517 49.5336 111.489 49.5068C111.46 49.4258 111.513 49.3692 111.54 49.3412C111.484 49.2878 111.458 49.3159 111.401 49.263C111.46 49.4258 111.349 49.3737 111.322 49.4018C111.296 49.4299 111.21 49.2952 111.21 49.2952C111.24 49.377 111.128 49.3253 111.213 49.405C111.241 49.4319 111.238 49.322 111.294 49.3753C111.296 49.4299 111.326 49.5666 111.242 49.4864C111.186 49.4331 111.153 49.1873 111.1 49.2984C111.128 49.3253 111.158 49.4063 111.186 49.4331L111.133 49.5442L111.103 49.4079C111.104 49.4628 111.104 49.4628 111.104 49.4628C111.019 49.3281 110.967 49.4392 110.881 49.3045C110.826 49.3058 110.829 49.4152 110.802 49.4433C110.777 49.5263 110.694 49.5015 110.61 49.4213L110.638 49.4482C110.611 49.4763 110.556 49.4775 110.472 49.3977C110.42 49.5092 110.593 49.8885 110.481 49.7819C110.399 49.8112 110.311 49.5666 110.282 49.4856C110.175 49.5983 110.007 49.438 109.931 49.687C109.902 49.6606 109.901 49.6057 109.873 49.5788C109.711 49.6928 109.433 49.5361 109.358 49.8397C109.414 49.8934 109.388 49.9764 109.418 50.0574C109.36 49.9495 109.393 50.1953 109.333 49.9776C109.303 49.8417 109.275 49.8148 109.3 49.7318C109.163 49.7082 109.026 49.7391 109.002 49.8771C109.001 49.8222 108.973 49.7957 108.945 49.7688C109.032 49.9585 108.923 50.0167 108.867 49.963L108.809 49.8551L108.785 49.9926C108.757 49.9658 108.698 49.7481 108.673 49.886C108.674 49.941 108.702 49.9678 108.704 50.0228C108.619 49.9422 108.48 49.8091 108.427 49.9202L108.404 50.1127C108.376 50.0863 108.292 50.0061 108.346 49.9499C108.266 50.0891 108.185 50.1188 108.189 50.2836C107.88 49.9902 107.607 50.0525 107.389 50.1135L107.419 50.1945C107.367 50.306 107.333 50.0598 107.334 50.1148C107.364 50.1965 107.312 50.3072 107.396 50.3874C107.343 50.4989 107.256 50.2543 107.173 50.2287C107.115 50.1209 107.229 50.2824 107.198 50.1457C107.17 50.1196 107.091 50.2588 107.033 50.0956C107.034 50.1505 107.064 50.2869 107.094 50.3683L107.009 50.2885C107.014 50.5075 107.236 50.6112 107.243 50.8855L107.188 50.8867C107.165 51.0796 107.384 51.0735 107.249 51.1594C107.165 51.0796 107.077 50.835 107.102 50.752C106.964 50.7284 106.956 50.3447 106.819 50.3756C106.822 50.4855 106.929 50.3728 106.933 50.5371C106.909 50.6751 106.822 50.4855 106.768 50.5416C106.794 50.4586 106.735 50.2958 106.653 50.2706C106.6 50.3817 106.738 50.4057 106.63 50.4635C106.6 50.3817 106.489 50.33 106.542 50.2189C106.454 49.9744 106.461 50.3032 106.374 50.1135C106.378 50.2784 106.575 50.4647 106.468 50.5774C106.464 50.413 106.3 50.4175 106.293 50.1432C106.266 50.1713 106.297 50.308 106.354 50.4159C106.302 50.527 106.156 50.1746 106.191 50.4753L106.132 50.3121C106.134 50.3671 106.107 50.3951 106.109 50.505C106.055 50.5066 105.913 50.3182 105.946 50.564C105.918 50.538 105.81 50.5957 105.833 50.4028C105.885 50.2918 105.945 50.5095 105.912 50.2637C105.889 50.4562 105.802 50.2665 105.746 50.2132L105.775 50.2946C105.748 50.2682 105.721 50.2962 105.663 50.188C105.691 50.2149 105.694 50.3243 105.694 50.3243L105.663 50.188C105.552 50.1359 105.696 50.4342 105.587 50.437L105.671 50.5172C105.643 50.4904 105.647 50.6547 105.59 50.6015C105.533 50.4932 105.475 50.3304 105.445 50.2491C105.389 50.1957 105.449 50.4134 105.364 50.2787L105.449 50.4134C105.477 50.4403 105.454 50.6328 105.372 50.6625C105.316 50.6092 105.203 50.4476 105.257 50.3915C105.202 50.3927 105.176 50.4757 105.234 50.5839C105.15 50.5587 105.203 50.4476 105.119 50.3679C105.094 50.4505 105.042 50.6165 105.018 50.7545L105.133 50.9709L105.078 50.9722C105.191 51.1337 105.054 51.1097 105.14 51.2993C105.114 51.3274 105.057 51.2745 105.029 51.2477C105.05 50.9457 104.856 50.8684 104.795 50.5958C104.629 50.5457 104.865 51.2525 104.637 50.8745C104.662 50.7915 104.521 50.6035 104.632 50.6556C104.55 50.6849 104.516 50.3842 104.437 50.5233C104.521 50.6035 104.416 50.8257 104.557 50.9591C104.527 50.8773 104.582 50.8761 104.61 50.9026C104.612 51.0125 104.671 51.1752 104.59 51.2049C104.535 51.2065 104.48 51.2082 104.449 51.0715C104.419 50.9356 104.532 51.0971 104.474 50.9335C104.363 50.8822 104.396 51.128 104.308 50.8835C104.363 50.8822 104.359 50.7178 104.33 50.6361L104.247 50.6108L104.276 50.6926C104.169 50.8049 104.19 50.503 104.081 50.5604L104.086 50.7801C104.145 50.9429 104.248 50.6657 104.282 50.9665C104.201 50.9962 104.17 50.8599 104.09 50.9445C104.118 50.9713 104.118 50.971 104.146 50.9978C104.119 51.0259 104.183 51.408 104.013 51.1936C103.929 51.1134 103.984 51.1118 103.953 50.9758C103.844 50.9787 103.786 50.8705 103.677 50.8733C103.737 51.0914 103.54 50.905 103.655 51.1207C103.679 50.9832 103.844 50.9787 103.931 51.1683C103.937 51.4422 104.039 51.1105 104.072 51.3563C103.99 51.386 104.023 51.6318 104.054 51.7685C104.027 51.7966 103.998 51.7152 103.97 51.6884C103.939 51.5521 103.966 51.524 103.936 51.3876C103.827 51.4455 103.716 51.3934 103.631 51.2587C103.605 51.3417 103.636 51.478 103.691 51.4764C103.553 51.4532 103.417 51.4841 103.31 51.5968C103.331 51.3494 103.172 51.5732 103.167 51.3539C103.22 51.2977 103.244 51.1048 103.186 50.9966C103.159 51.0251 103.189 51.1061 103.19 51.161C103.104 51.0263 103.14 51.382 103.053 51.1923C103.164 51.244 103.143 51.4914 103.201 51.6546C103.089 51.548 103.232 51.7909 103.15 51.8206C103.038 51.714 102.927 51.6623 102.818 51.6652C102.74 51.8593 102.517 51.7006 102.408 51.7588C102.356 51.8695 102.443 52.0591 102.389 52.1156C102.334 52.1173 102.411 51.8682 102.304 51.9809L102.332 52.0074C102.276 51.9541 102.171 52.1763 102.082 51.8776L102.142 52.0953C102.115 52.1234 102.114 52.0685 102.086 52.0416C102.115 52.1234 102.09 52.206 102.118 52.2328C102.066 52.3989 101.98 52.2093 101.898 52.2389L101.923 52.101C101.784 52.0225 101.705 52.162 101.621 52.1368L101.652 52.2731L101.568 52.1934C101.599 52.3293 101.573 52.4123 101.516 52.3045L101.769 52.5987C101.795 52.5161 101.684 52.464 101.68 52.2996C101.678 52.1901 101.787 52.1873 101.818 52.3232C101.791 52.3513 101.763 52.3248 101.707 52.2715C101.739 52.4628 101.793 52.4612 101.851 52.5694C101.823 52.5425 101.798 52.6255 101.796 52.5706C101.854 52.6792 101.908 52.6776 101.99 52.6475C101.934 52.5946 101.988 52.5384 101.986 52.4835C102.045 52.6463 102.101 52.6996 102.181 52.6154C102.204 52.4225 102.375 52.6923 102.483 52.6341C102.425 52.4713 102.339 52.3366 102.257 52.3114C102.308 52.2003 102.311 52.3098 102.364 52.1987C102.421 52.3069 102.481 52.5246 102.564 52.5498L102.533 52.4135C102.644 52.4652 102.648 52.63 102.73 52.5999C102.865 52.514 103.056 52.4811 103.164 52.4237L103.133 52.2874C103.25 52.5584 103.409 52.3345 103.521 52.4416C103.655 52.3004 103.906 52.4856 103.956 52.2646C104.258 52.2837 104.533 52.3313 104.805 52.2141L104.718 52.0245C104.804 52.1592 104.716 51.9146 104.798 51.9399C104.774 52.0774 104.912 52.1014 104.969 52.2092C105.075 52.042 105.27 52.1738 105.409 52.2523L105.378 52.116C105.548 52.3305 105.625 52.0819 105.788 52.0224C105.786 51.9679 105.784 51.858 105.839 51.8564C105.98 52.0444 106.007 52.0163 106.146 52.0953C106.228 52.0652 106.363 51.9793 106.443 51.8947C106.832 52.1038 107.1 51.8218 107.486 51.9207L107.482 51.7567C107.871 51.9655 108.219 51.5992 108.522 51.6733L108.435 51.4287C108.487 51.3176 108.654 51.4226 108.686 51.6135C108.738 51.5028 108.934 51.6892 108.929 51.4702C109.009 51.3856 109.068 51.5484 109.151 51.574C109.285 51.4328 109.368 51.458 109.559 51.4251L109.532 51.4531C109.504 51.4271 109.473 51.2904 109.5 51.2623C109.556 51.3156 109.717 51.1467 109.723 51.421C109.828 51.1984 110.19 51.4356 110.293 51.1581C110.322 51.2399 110.351 51.2663 110.379 51.2928C110.542 51.2338 110.62 51.0397 110.813 51.1166C110.812 51.0616 110.728 50.9819 110.782 50.9803C110.811 51.0067 110.812 51.0616 110.868 51.1153C111.172 51.189 111.327 50.8008 111.573 50.7666C112.04 50.7813 112.392 50.5794 112.801 50.4862L112.8 50.4313C112.996 50.6177 113.012 50.0964 113.238 50.4191C113.237 50.3642 113.346 50.3613 113.289 50.2531C113.317 50.2799 113.372 50.2783 113.399 50.2502C113.426 50.2221 113.426 50.2221 113.426 50.2221C113.453 50.194 113.451 50.1391 113.509 50.247C113.509 50.247 113.509 50.247 113.48 50.2205C113.531 50.0545 113.564 50.2457 113.614 50.0793C113.641 50.0512 113.613 50.0252 113.612 49.9702C113.663 49.8038 113.618 50.2441 113.692 49.8856L113.641 50.0512C113.722 49.967 113.776 49.9654 113.804 49.9922C113.832 50.0191 113.834 50.074 113.835 50.1281C114.103 49.8469 114.421 49.3989 114.209 49.6793C114.289 49.5947 114.103 49.8469 114.155 49.7354C114.076 49.875 114.637 49.2288 114.449 49.4258C114.369 49.5104 114.342 49.5385 114.316 49.5666C114.262 49.6231 114.262 49.6231 114.155 49.7354C114.317 49.6215 114.504 49.4245 114.318 49.6764L114.452 49.5356C114.264 49.7326 114.239 49.8156 114.159 49.9003C114.105 49.9564 114.053 50.0679 113.864 50.2099C113.736 50.57 113.618 50.2441 113.37 51.3481C113.279 52.1734 113.022 52.9486 113.096 53.7697C113.32 53.9826 113.294 54.011 113.161 54.2064C113.216 54.2052 113.216 54.2052 113.271 54.2035C113.078 54.1812 113.247 54.3415 113.027 54.3472C113.035 54.6764 112.958 54.925 112.911 55.2559C112.938 55.2273 113.129 55.1948 113.076 55.2514L112.939 55.2823L112.994 55.2807C112.967 55.3091 112.859 55.3665 112.803 55.3136C112.546 56.0884 112.894 56.9019 112.803 57.6726C112.889 57.8622 112.785 58.1394 112.735 58.305C112.968 58.9023 113.2 59.4448 112.995 60.0535C113.22 60.3217 113.767 60.2521 113.871 60.0295Z" fill="#DADADA"/>
<path d="M101.802 52.79C101.799 52.6802 101.853 52.624 101.767 52.4889C101.825 52.5971 101.799 52.6802 101.802 52.79Z" fill="#DADADA"/>
<path d="M103.416 51.4286C103.444 51.4555 103.442 51.4006 103.441 51.3456C103.441 51.3456 103.383 51.2374 103.358 51.3204C103.386 51.3473 103.388 51.4018 103.416 51.4286Z" fill="#DADADA"/>
<path d="M103.851 51.3076C103.822 51.2262 103.711 51.1745 103.656 51.1758L103.851 51.3076Z" fill="#DADADA"/>
<path d="M104.197 50.8314C104.222 50.7484 104.194 50.7215 104.139 50.7236C104.141 50.7781 104.169 50.8046 104.197 50.8314Z" fill="#DADADA"/>
<path d="M104.257 51.0492C104.312 51.048 104.311 50.9931 104.309 50.9381C104.311 50.9931 104.198 50.8864 104.257 51.0492Z" fill="#DADADA"/>
<path d="M105.096 50.56C105.096 50.56 105.18 50.6397 105.177 50.5303C105.18 50.6397 105.038 50.4518 105.096 50.56Z" fill="#DADADA"/>
<path d="M105.564 50.6294C105.617 50.5729 105.561 50.5195 105.561 50.5195L105.564 50.6294Z" fill="#DADADA"/>
<path d="M113.174 48.8024L113.091 48.7776L113.12 48.859L113.174 48.8024Z" fill="#DADADA"/>
<path d="M116.09 49.2155C115.983 49.3282 116.172 49.1862 116.2 49.2123C116.225 49.1297 116.065 49.2986 116.09 49.2155Z" fill="#DADADA"/>
</g>
<defs>
<clipPath id="clip0_1980_8410">
<rect width="79.8287" height="93.3209" fill="white" transform="matrix(0.761617 0.648028 0.648028 -0.761617 0 71.0742)"/>
</clipPath>
</defs>
</svg>
