<svg width="24" height="24" viewBox="0 0 24 24" fill="none" xmlns="http://www.w3.org/2000/svg">
<path d="M4 8C4 5.79086 5.79086 4 8 4H16C18.2091 4 20 5.79086 20 8V16C20 18.2091 18.2091 20 16 20H8C5.79086 20 4 18.2091 4 16V8Z" fill="#D2F0FF"/>
<path fill-rule="evenodd" clip-rule="evenodd" d="M15.6221 8.89533C15.9473 9.18445 15.9766 9.6825 15.6875 10.0078L11.485 14.7355C11.3408 14.8977 11.1361 14.9933 10.9192 14.9997C10.7023 15.006 10.4924 14.9227 10.3389 14.7692L8.50032 12.9306C8.1926 12.6229 8.1926 12.124 8.50032 11.8163C8.80804 11.5086 9.30695 11.5086 9.61467 11.8163L10.8623 13.064L14.5096 8.96077C14.7987 8.63551 15.2968 8.60621 15.6221 8.89533Z" fill="#01A3F9"/>
</svg>
