<svg width="1440" height="560" viewBox="0 0 1440 560" fill="none" xmlns="http://www.w3.org/2000/svg">
<g clip-path="url(#clip0_1980_8536)">
<mask id="mask0_1980_8536" style="mask-type:luminance" maskUnits="userSpaceOnUse" x="-150" y="-55" width="1737" height="615">
<path d="M1587 -55H-150V560H1587V-55Z" fill="white"/>
</mask>
<g mask="url(#mask0_1980_8536)">
<g opacity="0.5">
<mask id="mask1_1980_8536" style="mask-type:luminance" maskUnits="userSpaceOnUse" x="1051" y="-55" width="536" height="615">
<path d="M1051 -55H1587V560H1051V-55Z" fill="white"/>
</mask>
<g mask="url(#mask1_1980_8536)">
<path opacity="0.5" fill-rule="evenodd" clip-rule="evenodd" d="M1587.01 -21.6011C1587.29 -21.1968 1587.29 -21.1958 1587.29 -21.1958V-21.193L1587.25 -21.1826L1587.16 -21.142C1587.07 -21.1061 1586.93 -21.053 1586.76 -20.983C1586.4 -20.8433 1585.85 -20.6363 1585.13 -20.3667C1583.69 -19.8275 1581.54 -19.0378 1578.62 -18.0332C1572.79 -16.0243 1563.97 -13.1563 1552.02 -9.71579C1528.1 -2.83475 1491.59 6.33635 1441.19 15.5062C1340.42 33.846 1184.16 52.1801 962.172 52.1801V51.2635C1184.08 51.2635 1340.24 32.9368 1440.91 14.6149C1491.25 5.45391 1527.71 -3.70584 1551.58 -10.5729C1563.53 -14.0065 1572.32 -16.8669 1578.12 -18.8678C1581.02 -19.8683 1583.18 -20.6538 1584.6 -21.1887C1585.31 -21.4561 1585.85 -21.6609 1586.2 -21.7986C1586.37 -21.8674 1586.51 -21.9194 1586.6 -21.9541L1586.7 -21.993L1586.72 -22.0026V-22.0049C1586.72 -22.0049 1586.72 -22.0055 1587.01 -21.6011ZM1587.01 15.0603C1587.27 15.4735 1587.27 15.4744 1587.27 15.4744V15.4769L1587.24 15.4862L1587.13 15.5228C1587.05 15.5549 1586.9 15.6028 1586.73 15.6657C1586.37 15.7915 1585.83 15.9777 1585.12 16.2203C1583.67 16.7055 1581.51 17.4162 1578.59 18.3202C1572.77 20.128 1563.96 22.7089 1551.99 25.8052C1528.07 31.9977 1491.56 40.2513 1441.18 48.5038C1340.42 65.0089 1184.16 76.9267 962.172 76.9267V76.0102C1184.09 76.0102 1340.25 64.0979 1440.92 47.6074C1491.26 39.3622 1527.74 31.1185 1551.61 24.9376C1563.55 21.8472 1572.33 19.2726 1578.13 17.4716C1581.04 16.5711 1583.2 15.864 1584.62 15.3825C1585.34 15.1418 1585.87 14.9575 1586.23 14.8335C1586.4 14.7716 1586.53 14.7247 1586.61 14.6935L1586.72 14.6585L1586.75 14.6498V14.6477C1586.75 14.6477 1586.75 14.6472 1587.01 15.0603ZM1587.01 256.11C1587.02 256.11 1587.02 256.11 1587.02 255.652C1587.02 255.193 1587.02 255.193 1587.01 255.193H962.182V256.11H1587.01ZM1587.02 287.731C1587.02 288.189 1587.02 288.189 1587.01 288.189H962.182V287.272H1587.01C1587.02 287.272 1587.02 287.272 1587.02 287.731ZM1587.02 317.977C1587.02 318.435 1587.02 318.435 1587.01 318.435H962.182V317.518H1587.01C1587.02 317.518 1587.02 317.518 1587.02 317.977ZM1587.19 55.8252C1587.19 55.8252 1587.19 55.8252 1587.01 55.3889C1586.83 54.9517 1586.83 54.9526 1586.83 54.9526L1586.82 54.9535L1586.79 54.9599L1586.7 54.9829C1586.61 55.0039 1586.48 55.0351 1586.3 55.0763C1585.95 55.1598 1585.42 55.2826 1584.7 55.443C1583.27 55.7647 1581.11 56.2358 1578.21 56.837C1572.4 58.0377 1563.61 59.7553 1551.67 61.8157C1527.79 65.9374 1491.32 71.4348 1440.97 76.9322C1340.27 87.9271 1184.1 98.9247 962.173 98.9247V99.8412C1184.15 99.8412 1340.38 88.8409 1441.14 77.8396C1491.51 72.3385 1528.03 66.8365 1551.93 62.7093C1563.9 60.6462 1572.71 58.9258 1578.53 57.7215C1581.44 57.1184 1583.6 56.6455 1585.05 56.3219C1585.76 56.1606 1586.3 56.0369 1586.65 55.9526C1586.83 55.9104 1586.96 55.8792 1587.06 55.8572L1587.16 55.8334L1587.18 55.827L1587.19 55.8252ZM1587.01 92.0497C1587.13 92.4979 1587.13 92.4979 1587.13 92.4979L1587.11 92.5034L1587 92.5189C1586.92 92.5336 1586.78 92.5547 1586.6 92.5822C1586.24 92.6381 1585.71 92.7206 1584.99 92.8287C1583.55 93.0441 1581.39 93.3594 1578.48 93.7609C1572.66 94.5638 1563.85 95.7094 1551.9 97.0852C1527.99 99.8366 1491.49 103.504 1441.12 107.171C1340.37 114.504 1184.14 121.837 962.175 121.837V120.921C1184.11 120.921 1340.3 113.588 1441 106.258C1491.34 102.593 1527.82 98.9274 1551.72 96.1787C1563.66 94.8048 1572.45 93.66 1578.27 92.859C1581.16 92.4585 1583.32 92.1441 1584.76 91.9296C1585.47 91.8224 1586 91.7399 1586.36 91.6849C1586.53 91.6574 1586.66 91.6363 1586.76 91.6226L1586.86 91.6061L1586.88 91.6015C1586.89 91.6015 1586.89 91.6015 1587.01 92.0497ZM1587.08 126.416C1587.08 126.416 1587.08 126.416 1587.01 125.962C1586.94 125.506 1586.94 125.506 1586.94 125.506L1586.81 125.518C1586.72 125.526 1586.59 125.538 1586.41 125.554C1586.06 125.584 1585.53 125.631 1584.8 125.691C1583.38 125.811 1581.22 125.989 1578.31 126.215C1572.5 126.666 1563.71 127.309 1551.75 128.083C1527.86 129.629 1491.38 131.691 1441.02 133.752C1340.31 137.877 1184.11 142.001 962.177 142.001V142.918C1184.14 142.918 1340.36 138.792 1441.09 134.668C1491.45 132.606 1527.95 130.543 1551.86 128.996C1563.82 128.222 1572.62 127.578 1578.44 127.126C1581.34 126.9 1583.5 126.723 1584.94 126.602C1585.66 126.542 1586.19 126.495 1586.55 126.464C1586.73 126.448 1586.87 126.437 1586.95 126.428L1587.08 126.416ZM1587.01 158.956C1587.07 159.414 1587.06 159.414 1587.06 159.414L1586.93 159.422C1586.84 159.427 1586.71 159.437 1586.53 159.448C1586.18 159.471 1585.64 159.504 1584.93 159.548C1583.49 159.635 1581.33 159.763 1578.42 159.926C1572.6 160.251 1563.79 160.717 1551.85 161.276C1527.94 162.393 1491.45 163.883 1441.08 165.372C1340.35 168.351 1184.14 171.33 962.177 171.33V170.413C1184.12 170.413 1340.32 167.434 1441.03 164.457C1491.39 162.967 1527.88 161.478 1551.77 160.361C1563.72 159.802 1572.51 159.338 1578.33 159.011C1581.23 158.849 1583.39 158.721 1584.83 158.634C1585.54 158.59 1586.07 158.557 1586.43 158.534L1586.83 158.509L1586.96 158.5C1586.96 158.5 1586.96 158.5 1587.01 158.956ZM1587.02 193.329C1587.02 193.329 1587.02 193.329 1587.01 192.87C1587 192.412 1587 192.412 1587 192.412L1586.47 192.423C1586.11 192.429 1585.58 192.44 1584.85 192.453C1583.43 192.481 1581.27 192.519 1578.36 192.57C1572.55 192.67 1563.74 192.813 1551.79 192.985C1527.89 193.329 1491.4 193.787 1441.04 194.245C1340.33 195.162 1184.12 196.078 962.176 196.078V196.995C1184.12 196.995 1340.33 196.078 1441.07 195.162C1491.43 194.703 1527.92 194.245 1551.81 193.901C1563.77 193.73 1572.57 193.586 1578.39 193.486C1581.29 193.436 1583.45 193.396 1584.89 193.37C1585.6 193.356 1586.14 193.346 1586.49 193.339L1587.02 193.329ZM1587.01 225.866C1587.01 225.866 1587.01 225.866 1587.01 225.408C1587.01 224.949 1587.01 224.949 1587.01 224.949H962.171V225.866H1587.01ZM1587.28 529.741C1587.28 529.741 1587.28 529.742 1587.02 530.155C1586.76 530.569 1586.76 530.568 1586.76 530.568L1586.75 530.566L1586.72 530.558L1586.63 530.522C1586.54 530.491 1586.41 530.444 1586.23 530.383C1585.88 530.258 1585.35 530.074 1584.64 529.833C1583.2 529.351 1581.05 528.645 1578.15 527.744C1572.34 525.943 1563.55 523.368 1551.62 520.279C1527.74 514.097 1491.27 505.853 1440.94 497.608C1340.26 481.117 1184.09 464.622 962.182 464.622V463.706C1184.17 463.706 1340.42 480.206 1441.19 496.711C1491.57 504.964 1528.09 513.218 1552.01 519.411C1563.97 522.507 1572.78 525.088 1578.6 526.896C1581.52 527.8 1583.68 528.51 1585.12 528.996C1585.84 529.238 1586.38 529.425 1586.73 529.55C1586.92 529.613 1587.05 529.661 1587.14 529.693L1587.24 529.73L1587.27 529.739L1587.28 529.741ZM1587.02 489.827C1587.21 489.391 1587.21 489.39 1587.21 489.39L1587.19 489.388L1587.17 489.383L1587.07 489.358C1586.98 489.337 1586.84 489.305 1586.66 489.263C1586.31 489.179 1585.77 489.056 1585.05 488.893C1583.61 488.571 1581.45 488.097 1578.53 487.495C1572.72 486.29 1563.9 484.57 1551.95 482.506C1528.03 478.379 1491.53 472.878 1441.15 467.377C1340.39 456.374 1184.16 445.375 962.183 445.375V446.292C1184.11 446.292 1340.29 457.289 1440.98 468.284C1491.32 473.781 1527.8 479.279 1551.68 483.401C1563.62 485.461 1572.42 487.178 1578.22 488.379C1581.13 488.979 1583.28 489.452 1584.71 489.772C1585.42 489.934 1585.96 490.056 1586.31 490.139C1586.49 490.18 1586.61 490.211 1586.71 490.232L1586.81 490.256L1586.83 490.262V490.264C1586.83 490.264 1586.84 490.264 1587.02 489.827ZM1587.14 452.717C1587.14 452.717 1587.14 452.718 1587.02 453.167C1586.89 453.615 1586.89 453.614 1586.89 453.614L1586.87 453.609L1586.77 453.594C1586.67 453.58 1586.54 453.559 1586.37 453.531C1586.01 453.475 1585.48 453.394 1584.77 453.287C1583.33 453.072 1581.17 452.758 1578.28 452.357C1572.46 451.556 1563.67 450.41 1551.73 449.037C1527.83 446.289 1491.36 442.624 1441.01 438.958C1340.31 431.627 1184.11 424.295 962.185 424.295V423.379C1184.15 423.379 1340.38 430.711 1441.13 438.045C1491.49 441.712 1527.99 445.38 1551.91 448.13C1563.86 449.506 1572.67 450.652 1578.48 451.455C1581.4 451.857 1583.56 452.172 1585 452.387C1585.72 452.495 1586.25 452.577 1586.61 452.633C1586.79 452.662 1586.93 452.683 1587.01 452.696L1587.11 452.713L1587.14 452.717ZM1587.02 419.254C1587.1 418.8 1587.1 418.8 1587.08 418.8L1586.95 418.788C1586.87 418.78 1586.73 418.768 1586.55 418.752C1586.2 418.721 1585.66 418.674 1584.95 418.614C1583.51 418.493 1581.34 418.316 1578.44 418.09C1572.62 417.639 1563.82 416.993 1551.86 416.22C1527.95 414.674 1491.46 412.61 1441.09 410.548C1340.36 406.423 1184.14 402.298 962.182 402.298V403.215C1184.12 403.215 1340.32 407.339 1441.03 411.463C1491.38 413.525 1527.87 415.587 1551.77 417.134C1563.71 417.906 1572.5 418.551 1578.31 419.002C1581.22 419.227 1583.38 419.404 1584.82 419.525C1585.53 419.585 1586.06 419.631 1586.42 419.662C1586.59 419.678 1586.72 419.69 1586.82 419.698L1586.95 419.709C1586.95 419.709 1586.95 419.71 1587.02 419.254ZM1587.07 385.802C1587.07 385.802 1587.07 385.802 1587.02 386.259C1586.96 386.716 1586.96 386.715 1586.96 386.715L1586.83 386.707C1586.75 386.702 1586.61 386.693 1586.43 386.681C1586.08 386.659 1585.55 386.626 1584.83 386.582C1583.41 386.495 1581.25 386.367 1578.34 386.204C1572.52 385.879 1563.72 385.413 1551.78 384.855C1527.88 383.738 1491.39 382.249 1441.04 380.76C1340.32 377.781 1184.12 374.802 962.183 374.802V373.886C1184.14 373.886 1340.36 376.864 1441.09 379.844C1491.45 381.333 1527.94 382.823 1551.85 383.94C1563.8 384.499 1572.61 384.965 1578.42 385.29C1581.33 385.453 1583.49 385.582 1584.93 385.669C1585.65 385.713 1586.18 385.746 1586.54 385.769C1586.71 385.78 1586.86 385.788 1586.94 385.794L1587.07 385.802ZM1587.02 352.348C1587.04 351.889 1587.04 351.889 1587.04 351.889L1586.51 351.879C1586.16 351.872 1585.61 351.861 1584.9 351.848C1583.47 351.821 1581.31 351.782 1578.4 351.732C1572.59 351.631 1563.78 351.488 1551.83 351.317C1527.93 350.973 1491.44 350.515 1441.08 350.056C1340.35 349.14 1184.14 348.223 962.185 348.223V349.14C1184.14 349.14 1340.35 350.056 1441.06 350.973C1491.42 351.431 1527.91 351.889 1551.8 352.232C1563.76 352.405 1572.55 352.548 1578.36 352.648C1581.27 352.698 1583.43 352.737 1584.86 352.764C1585.59 352.778 1586.12 352.788 1586.47 352.795L1587 352.805C1587.01 352.805 1587.01 352.805 1587.02 352.348Z" fill="url(#paint0_linear_1980_8536)"/>
</g>
<path opacity="0.5" fill-rule="evenodd" clip-rule="evenodd" d="M-149.764 -22.596C-150.002 -22.1913 -150 -22.1902 -150 -22.1902L-149.994 -22.1875L-149.973 -22.177L-149.887 -22.1364C-149.811 -22.1005 -149.698 -22.0473 -149.548 -21.9774C-149.246 -21.8375 -148.795 -21.6304 -148.19 -21.3605C-146.981 -20.8209 -145.162 -20.0306 -142.716 -19.0253C-137.822 -17.0147 -130.42 -14.1446 -120.375 -10.7014C-100.283 -3.81504 -69.6177 5.36316 -27.3025 14.5401C57.3292 32.8941 188.559 51.2423 374.999 51.2423V50.3251C188.633 50.3251 57.4831 31.9842 -27.0664 13.6481C-69.3406 4.48003 -99.9651 -4.6868 -120.016 -11.5592C-130.041 -14.9954 -137.424 -17.8581 -142.297 -19.8605C-144.734 -20.8618 -146.543 -21.6479 -147.742 -22.1832C-148.342 -22.4508 -148.789 -22.6558 -149.085 -22.7935C-149.234 -22.8624 -149.344 -22.9144 -149.417 -22.9492L-149.499 -22.9881L-149.519 -22.9977L-149.524 -23C-149.524 -23 -149.525 -23.0006 -149.764 -22.596ZM-149.763 14.0938C-149.983 14.5073 -149.98 14.5082 -149.98 14.5082L-149.975 14.5107L-149.953 14.5201L-149.868 14.5567C-149.792 14.5889 -149.679 14.6368 -149.528 14.6997C-149.227 14.8256 -148.776 15.012 -148.171 15.2547C-146.963 15.7403 -145.144 16.4515 -142.697 17.3562C-137.805 19.1655 -130.403 21.7484 -120.358 24.847C-100.268 31.0444 -69.6043 39.3043 -27.2903 47.5632C57.3373 64.0811 188.564 76.0081 374.999 76.0081V75.0909C188.63 75.0909 57.475 63.1694 -27.0766 46.6662C-69.3533 38.4146 -99.9793 30.1645 -120.031 23.9788C-130.058 20.886 -137.44 18.3094 -142.314 16.507C-144.751 15.6058 -146.561 14.8982 -147.76 14.4163C-148.36 14.1754 -148.807 13.9909 -149.104 13.8669C-149.252 13.8049 -149.363 13.758 -149.436 13.7268L-149.518 13.6917L-149.538 13.683L-149.543 13.681C-149.543 13.681 -149.544 13.6804 -149.763 14.0938ZM-149.768 255.33C-149.768 255.33 -149.769 255.33 -149.769 254.871C-149.769 254.413 -149.768 254.413 -149.768 254.413H374.993V255.33H-149.768ZM-149.769 286.975C-149.769 287.434 -149.768 287.434 -149.768 287.434H374.993V286.516H-149.768C-149.768 286.516 -149.769 286.516 -149.769 286.975ZM-149.769 317.244C-149.769 317.703 -149.768 317.703 -149.768 317.703H374.993V316.786H-149.768C-149.768 316.786 -149.769 316.786 -149.769 317.244ZM-149.917 54.8903C-149.917 54.8903 -149.919 54.8903 -149.765 54.4536C-149.61 54.0161 -149.609 54.017 -149.609 54.017L-149.604 54.0179L-149.584 54.0244L-149.501 54.0473C-149.428 54.0684 -149.317 54.0996 -149.168 54.1409C-148.871 54.2243 -148.424 54.3472 -147.823 54.5078C-146.623 54.8297 -144.812 55.3012 -142.374 55.9029C-137.498 57.1045 -130.112 58.8234 -120.084 60.8854C-100.026 65.0103 -69.3949 70.512 -27.113 76.0136C57.4517 87.017 188.618 98.0231 374.998 98.0231V98.9403C188.573 98.9403 57.3596 87.9315 -27.2569 76.9217C-69.5649 71.4164 -100.223 65.9101 -120.308 61.7797C-130.351 59.715 -137.75 57.9933 -142.64 56.788C-145.085 56.1845 -146.903 55.7112 -148.111 55.3874C-148.714 55.226 -149.166 55.1021 -149.466 55.0177C-149.617 54.9756 -149.729 54.9444 -149.805 54.9224L-149.89 54.8985L-149.911 54.8921L-149.917 54.8903ZM-149.766 91.1428C-149.871 91.5913 -149.869 91.5913 -149.869 91.5913L-149.843 91.5968L-149.758 91.6124C-149.683 91.6271 -149.57 91.6482 -149.42 91.6757C-149.12 91.7317 -148.669 91.8142 -148.066 91.9224C-146.86 92.138 -145.043 92.4535 -142.599 92.8553C-137.71 93.6588 -130.313 94.8054 -120.273 96.1822C-100.192 98.9358 -69.5381 102.606 -27.2346 106.276C57.3737 113.615 188.581 120.953 374.997 120.953V120.036C188.609 120.036 57.4345 112.698 -27.1374 105.362C-69.4239 101.694 -100.06 98.0258 -120.121 95.275C-130.152 93.9 -137.539 92.7544 -142.418 91.9527C-144.857 91.5519 -146.669 91.2373 -147.87 91.0226C-148.471 90.9153 -148.919 90.8328 -149.217 90.7777C-149.365 90.7502 -149.477 90.7291 -149.55 90.7153L-149.633 90.6988L-149.658 90.6942C-149.658 90.6942 -149.66 90.6942 -149.766 91.1428ZM-149.826 125.536C-149.826 125.536 -149.828 125.536 -149.767 125.081C-149.707 124.625 -149.705 124.625 -149.705 124.625L-149.597 124.637C-149.522 124.645 -149.411 124.657 -149.262 124.673C-148.964 124.703 -148.515 124.75 -147.914 124.811C-146.711 124.931 -144.898 125.109 -142.458 125.334C-137.578 125.786 -130.189 126.429 -120.156 127.204C-100.09 128.751 -69.4504 130.815 -27.1607 132.878C57.4193 137.005 188.602 141.133 374.995 141.133V142.05C188.585 142.05 57.3849 137.922 -27.2154 133.794C-69.5149 131.73 -100.165 129.666 -120.242 128.117C-130.28 127.343 -137.675 126.698 -142.561 126.246C-145.004 126.02 -146.82 125.843 -148.026 125.722C-148.628 125.662 -149.078 125.615 -149.378 125.584C-149.528 125.568 -149.64 125.556 -149.715 125.548L-149.826 125.536ZM-149.768 158.101C-149.812 158.559 -149.81 158.559 -149.81 158.559L-149.699 158.567C-149.625 158.573 -149.513 158.582 -149.363 158.593C-149.063 158.616 -148.613 158.649 -148.011 158.693C-146.806 158.78 -144.99 158.908 -142.548 159.072C-137.662 159.397 -130.268 159.863 -120.231 160.423C-100.155 161.541 -69.5067 163.031 -27.2083 164.522C57.3889 167.503 188.587 170.484 374.995 170.484V169.567C188.599 169.567 57.4142 166.586 -27.1688 163.606C-69.4601 162.115 -100.101 160.625 -120.168 159.507C-130.202 158.948 -137.592 158.483 -142.473 158.156C-144.914 157.994 -146.727 157.865 -147.93 157.778C-148.531 157.734 -148.98 157.701 -149.279 157.678L-149.614 157.654L-149.723 157.644C-149.723 157.644 -149.724 157.644 -149.768 158.101ZM-149.778 192.5C-149.778 192.5 -149.78 192.5 -149.766 192.041C-149.753 191.583 -149.751 191.583 -149.751 191.583L-149.306 191.594C-149.007 191.6 -148.558 191.611 -147.956 191.624C-146.753 191.652 -144.939 191.69 -142.497 191.741C-137.615 191.841 -130.223 191.984 -120.188 192.156C-100.118 192.5 -69.4745 192.959 -27.1809 193.417C57.4072 194.335 188.596 195.252 374.996 195.252V196.169C188.593 196.169 57.4001 195.252 -27.1931 194.335C-69.4888 193.876 -100.135 193.417 -120.207 193.073C-130.243 192.902 -137.636 192.758 -142.52 192.658C-144.962 192.607 -146.777 192.568 -147.981 192.541C-148.583 192.527 -149.033 192.517 -149.332 192.51L-149.778 192.5ZM-149.761 225.062C-149.761 225.062 -149.763 225.062 -149.763 224.604C-149.763 224.145 -149.761 224.145 -149.761 224.145H375V225.062H-149.761ZM-149.987 529.173C-149.987 529.173 -149.989 529.173 -149.77 529.587C-149.551 530.001 -149.549 530 -149.549 530L-149.544 529.998L-149.524 529.99L-149.442 529.954C-149.369 529.923 -149.258 529.876 -149.11 529.815C-148.813 529.69 -148.366 529.505 -147.767 529.265C-146.567 528.783 -144.758 528.076 -142.321 527.174C-137.447 525.372 -130.064 522.795 -120.038 519.703C-99.9855 513.517 -69.3596 505.266 -27.0837 497.015C57.4689 480.511 188.624 464.004 374.993 464.004V463.086C188.557 463.086 57.3312 479.6 -27.2964 496.118C-69.6106 504.376 -100.274 512.637 -120.364 518.834C-130.41 521.933 -137.811 524.516 -142.704 526.325C-145.15 527.23 -146.969 527.941 -148.178 528.427C-148.782 528.669 -149.234 528.856 -149.535 528.982C-149.685 529.044 -149.798 529.093 -149.874 529.125L-149.959 529.162L-149.981 529.171L-149.987 529.173ZM-149.771 489.228C-149.926 488.791 -149.923 488.791 -149.923 488.791L-149.918 488.789L-149.896 488.783L-149.811 488.758C-149.736 488.737 -149.623 488.705 -149.473 488.663C-149.172 488.58 -148.721 488.456 -148.117 488.293C-146.91 487.971 -145.092 487.496 -142.647 486.894C-137.756 485.688 -130.357 483.967 -120.315 481.901C-100.23 477.771 -69.5715 472.265 -27.264 466.76C57.3525 455.749 188.567 444.741 374.992 444.741V445.659C188.611 445.659 57.4446 456.665 -27.1191 467.668C-69.4015 473.17 -100.033 478.671 -120.09 482.796C-130.119 484.858 -137.504 486.576 -142.38 487.779C-144.819 488.38 -146.629 488.852 -147.83 489.173C-148.43 489.334 -148.878 489.457 -149.175 489.54C-149.323 489.581 -149.434 489.612 -149.508 489.634L-149.59 489.657L-149.61 489.663L-149.615 489.665C-149.615 489.665 -149.617 489.665 -149.771 489.228ZM-149.876 452.089C-149.876 452.089 -149.878 452.09 -149.772 452.539C-149.667 452.988 -149.665 452.987 -149.665 452.987L-149.64 452.982L-149.557 452.966C-149.483 452.953 -149.372 452.932 -149.223 452.904C-148.925 452.848 -148.477 452.766 -147.877 452.659C-146.675 452.444 -144.863 452.13 -142.424 451.729C-137.546 450.927 -130.159 449.781 -120.128 448.406C-100.066 445.656 -69.4305 441.988 -27.1444 438.32C57.4284 430.983 188.603 423.646 374.991 423.646V422.728C188.573 422.728 57.3666 430.066 -27.2407 437.406C-69.5447 441.076 -100.199 444.746 -120.279 447.499C-130.32 448.875 -137.717 450.023 -142.605 450.826C-145.049 451.228 -146.866 451.544 -148.073 451.759C-148.676 451.867 -149.127 451.949 -149.427 452.005C-149.577 452.034 -149.689 452.055 -149.764 452.068L-149.849 452.085L-149.876 452.089ZM-149.77 418.601C-149.83 418.146 -149.828 418.146 -149.828 418.146L-149.718 418.134C-149.643 418.126 -149.53 418.114 -149.381 418.098C-149.081 418.067 -148.631 418.02 -148.028 417.96C-146.823 417.838 -145.007 417.661 -142.564 417.435C-137.678 416.984 -130.283 416.338 -120.244 415.564C-100.168 414.016 -69.5175 411.952 -27.2174 409.888C57.3829 405.759 188.583 401.632 374.993 401.632V402.549C188.599 402.549 57.4173 406.676 -27.1627 410.803C-69.453 412.867 -100.093 414.931 -120.158 416.478C-130.191 417.251 -137.58 417.896 -142.461 418.348C-144.901 418.573 -146.714 418.75 -147.916 418.871C-148.518 418.932 -148.966 418.978 -149.264 419.009C-149.414 419.024 -149.525 419.036 -149.599 419.045L-149.708 419.056C-149.708 419.056 -149.71 419.057 -149.77 418.601ZM-149.812 385.123C-149.812 385.123 -149.814 385.123 -149.771 385.58C-149.727 386.037 -149.725 386.036 -149.725 386.036L-149.616 386.028C-149.542 386.023 -149.43 386.014 -149.281 386.002C-148.983 385.98 -148.534 385.947 -147.933 385.903C-146.73 385.816 -144.916 385.688 -142.476 385.525C-137.595 385.199 -130.204 384.733 -120.171 384.174C-100.104 383.057 -69.4627 381.567 -27.1708 380.076C57.4112 377.095 188.596 374.114 374.992 374.114V373.197C188.584 373.197 57.3869 376.178 -27.2103 379.16C-69.5093 380.65 -100.158 382.141 -120.233 383.259C-130.271 383.818 -137.665 384.284 -142.55 384.61C-144.993 384.773 -146.808 384.902 -148.013 384.989C-148.616 385.033 -149.066 385.066 -149.365 385.089C-149.515 385.1 -149.627 385.108 -149.702 385.115L-149.812 385.123ZM-149.773 351.642C-149.786 351.184 -149.785 351.184 -149.785 351.184L-149.339 351.173C-149.039 351.166 -148.59 351.155 -147.988 351.142C-146.783 351.115 -144.969 351.076 -142.527 351.026C-137.643 350.925 -130.25 350.782 -120.214 350.61C-100.141 350.266 -69.4954 349.808 -27.1992 349.349C57.393 348.432 188.586 347.515 374.99 347.515V348.432C188.59 348.432 57.4011 349.349 -27.187 350.266C-69.481 350.725 -100.125 351.183 -120.195 351.527C-130.23 351.699 -137.621 351.842 -142.504 351.943C-144.945 351.993 -146.759 352.032 -147.963 352.059C-148.565 352.072 -149.014 352.082 -149.313 352.09L-149.758 352.1C-149.758 352.1 -149.759 352.1 -149.773 351.642Z" fill="url(#paint1_linear_1980_8536)"/>
</g>
</g>
</g>
<g clip-path="url(#clip1_1980_8536)">
<path d="M361.622 235.656V237.624H359.558V236.352C359.558 234.744 359.87 233.808 360.446 232.68H361.382C360.974 233.832 360.734 234.504 360.734 235.656H361.622ZM357.878 235.656V237.624H355.862V236.352C355.862 234.744 356.174 233.808 356.726 232.68H357.662C357.254 233.832 357.038 234.504 357.038 235.656H357.878ZM369.782 249V234.072H363.998V232.68H377.174V234.072H371.414V249H369.782ZM379.797 249V231.72H381.357V238.44C382.221 236.88 383.685 236.04 385.485 236.04C388.173 236.04 389.709 237.648 389.709 240.504V249H388.173V240.84C388.173 238.776 387.213 237.36 385.077 237.36C382.725 237.36 381.357 239.496 381.357 241.416V249H379.797ZM393.414 234.456V231.72H394.974V234.456H393.414ZM393.414 249V236.304H394.974V249H393.414ZM399.624 239.52C399.624 243.48 408 240.168 408 245.448C408 247.824 405.96 249.264 403.128 249.264C400.176 249.264 398.16 247.824 397.68 244.872H399.24C399.552 246.912 400.992 248.016 403.176 248.016C405.312 248.016 406.44 247.008 406.44 245.568C406.44 241.608 398.136 244.872 398.136 239.64C398.136 237.72 399.576 236.04 402.576 236.04C405.216 236.04 407.16 237.336 407.544 240.432H405.984C405.672 238.2 404.424 237.312 402.48 237.312C400.656 237.312 399.624 238.248 399.624 239.52ZM417.095 240.432H415.535C415.943 237.672 417.671 236.04 420.743 236.04C424.007 236.04 425.567 237.96 425.567 240.936V246.024C425.567 247.416 425.687 248.328 426.047 249H424.391C424.079 248.4 424.007 247.44 424.007 246.552C422.927 248.448 421.031 249.264 419.423 249.264C416.807 249.264 415.103 248.016 415.103 245.664C415.103 243.936 416.039 242.784 417.863 242.184C419.615 241.608 421.391 241.44 424.007 241.44V241.008C424.007 238.68 422.975 237.384 420.599 237.384C418.487 237.384 417.383 238.56 417.095 240.432ZM416.687 245.616C416.687 247.056 417.815 247.92 419.567 247.92C422.063 247.92 424.007 245.856 424.007 243.504V242.616C417.983 242.64 416.687 243.888 416.687 245.616ZM430.904 254.28H429.368V236.304H430.904V238.368C431.744 236.88 433.088 236.04 434.792 236.04C438.08 236.04 440.048 238.512 440.048 242.616C440.048 246.936 438.032 249.264 434.792 249.264C433.064 249.264 431.72 248.472 430.904 247.008V254.28ZM434.696 237.384C432.248 237.384 430.904 239.232 430.904 242.64C430.904 245.976 432.296 247.92 434.696 247.92C437.12 247.92 438.44 246.024 438.44 242.616C438.44 239.304 437.072 237.384 434.696 237.384ZM444.615 254.28H443.079V236.304H444.615V238.368C445.455 236.88 446.799 236.04 448.503 236.04C451.791 236.04 453.759 238.512 453.759 242.616C453.759 246.936 451.743 249.264 448.503 249.264C446.775 249.264 445.431 248.472 444.615 247.008V254.28ZM448.407 237.384C445.959 237.384 444.615 239.232 444.615 242.64C444.615 245.976 446.007 247.92 448.407 247.92C450.831 247.92 452.151 246.024 452.151 242.616C452.151 239.304 450.783 237.384 448.407 237.384ZM461.711 249V231.72H463.271V238.44C464.135 236.88 465.599 236.04 467.399 236.04C470.087 236.04 471.623 237.648 471.623 240.504V249H470.087V240.84C470.087 238.776 469.127 237.36 466.991 237.36C464.639 237.36 463.271 239.496 463.271 241.416V249H461.711ZM476.696 240.432H475.136C475.544 237.672 477.272 236.04 480.344 236.04C483.608 236.04 485.168 237.96 485.168 240.936V246.024C485.168 247.416 485.288 248.328 485.648 249H483.992C483.68 248.4 483.608 247.44 483.608 246.552C482.528 248.448 480.632 249.264 479.024 249.264C476.408 249.264 474.704 248.016 474.704 245.664C474.704 243.936 475.64 242.784 477.464 242.184C479.216 241.608 480.992 241.44 483.608 241.44V241.008C483.608 238.68 482.576 237.384 480.2 237.384C478.088 237.384 476.984 238.56 476.696 240.432ZM476.288 245.616C476.288 247.056 477.416 247.92 479.168 247.92C481.664 247.92 483.608 245.856 483.608 243.504V242.616C477.584 242.64 476.288 243.888 476.288 245.616ZM489.906 239.52C489.906 243.48 498.282 240.168 498.282 245.448C498.282 247.824 496.242 249.264 493.41 249.264C490.458 249.264 488.442 247.824 487.962 244.872H489.522C489.834 246.912 491.274 248.016 493.458 248.016C495.594 248.016 496.722 247.008 496.722 245.568C496.722 241.608 488.418 244.872 488.418 239.64C488.418 237.72 489.858 236.04 492.858 236.04C495.498 236.04 497.442 237.336 497.826 240.432H496.266C495.954 238.2 494.706 237.312 492.762 237.312C490.938 237.312 489.906 238.248 489.906 239.52ZM507.568 249H506.008V231.72H507.568V238.344C508.408 236.856 509.728 236.04 511.432 236.04C514.744 236.04 516.688 238.512 516.688 242.616C516.688 246.936 514.672 249.264 511.432 249.264C509.728 249.264 508.408 248.496 507.568 247.032V249ZM511.336 237.384C508.888 237.384 507.568 239.256 507.568 242.64C507.568 245.976 508.936 247.92 511.336 247.92C513.76 247.92 515.104 246.024 515.104 242.616C515.104 239.304 513.712 237.384 511.336 237.384ZM530.28 244.872C529.584 247.848 527.52 249.264 524.736 249.264C521.136 249.264 519 246.792 519 242.664C519 238.368 521.16 236.04 524.616 236.04C528.12 236.04 530.208 238.464 530.208 242.472V242.904H520.584C520.656 246.096 522.168 247.92 524.736 247.92C526.728 247.92 528.168 246.888 528.672 244.872H530.28ZM524.616 237.384C522.264 237.384 520.872 238.896 520.632 241.704H528.6C528.36 238.968 526.944 237.384 524.616 237.384ZM543.897 244.872C543.201 247.848 541.137 249.264 538.353 249.264C534.753 249.264 532.617 246.792 532.617 242.664C532.617 238.368 534.777 236.04 538.233 236.04C541.737 236.04 543.825 238.464 543.825 242.472V242.904H534.201C534.273 246.096 535.785 247.92 538.353 247.92C540.345 247.92 541.785 246.888 542.289 244.872H543.897ZM538.233 237.384C535.881 237.384 534.489 238.896 534.249 241.704H542.217C541.977 238.968 540.561 237.384 538.233 237.384ZM546.93 249V236.304H548.49V238.44C549.354 236.88 550.818 236.04 552.618 236.04C555.306 236.04 556.842 237.648 556.842 240.504V249H555.306V240.84C555.306 238.776 554.346 237.36 552.21 237.36C549.858 237.36 548.49 239.496 548.49 241.416V249H546.93ZM566.861 240.432H565.301C565.709 237.672 567.437 236.04 570.509 236.04C573.773 236.04 575.333 237.96 575.333 240.936V246.024C575.333 247.416 575.453 248.328 575.813 249H574.157C573.845 248.4 573.773 247.44 573.773 246.552C572.693 248.448 570.797 249.264 569.189 249.264C566.573 249.264 564.869 248.016 564.869 245.664C564.869 243.936 565.805 242.784 567.629 242.184C569.381 241.608 571.157 241.44 573.773 241.44V241.008C573.773 238.68 572.741 237.384 570.365 237.384C568.253 237.384 567.149 238.56 566.861 240.432ZM566.453 245.616C566.453 247.056 567.581 247.92 569.333 247.92C571.829 247.92 573.773 245.856 573.773 243.504V242.616C567.749 242.64 566.453 243.888 566.453 245.616ZM588.447 249.12C585.255 249.12 583.359 246.672 583.359 242.592C583.359 238.344 585.303 236.04 588.447 236.04C590.319 236.04 591.663 236.784 592.479 238.2V236.304H594.039V249.456C594.039 253.008 591.879 254.568 589.047 254.568C586.143 254.568 584.151 253.128 583.695 250.32H585.255C585.543 252.24 586.983 253.272 589.047 253.272C591.159 253.272 592.479 252.096 592.479 249.504V246.888C591.615 248.352 590.223 249.12 588.447 249.12ZM588.711 247.776C591.159 247.776 592.479 245.928 592.479 242.568C592.479 239.304 591.111 237.384 588.711 237.384C586.287 237.384 584.943 239.232 584.943 242.592C584.943 245.88 586.311 247.776 588.711 247.776ZM597.766 249V236.304H599.326V238.632C600.166 236.904 601.582 236.04 603.238 236.04C603.718 236.04 604.15 236.136 604.39 236.304V237.72C604.054 237.6 603.598 237.528 603.142 237.528C600.55 237.528 599.326 239.448 599.326 241.704V249H597.766ZM616.881 244.872C616.185 247.848 614.121 249.264 611.337 249.264C607.737 249.264 605.601 246.792 605.601 242.664C605.601 238.368 607.761 236.04 611.217 236.04C614.721 236.04 616.809 238.464 616.809 242.472V242.904H607.185C607.257 246.096 608.769 247.92 611.337 247.92C613.329 247.92 614.769 246.888 615.273 244.872H616.881ZM611.217 237.384C608.865 237.384 607.473 238.896 607.233 241.704H615.201C614.961 238.968 613.545 237.384 611.217 237.384ZM621.282 240.432H619.722C620.13 237.672 621.858 236.04 624.93 236.04C628.194 236.04 629.754 237.96 629.754 240.936V246.024C629.754 247.416 629.874 248.328 630.234 249H628.578C628.266 248.4 628.194 247.44 628.194 246.552C627.114 248.448 625.218 249.264 623.61 249.264C620.994 249.264 619.29 248.016 619.29 245.664C619.29 243.936 620.226 242.784 622.05 242.184C623.802 241.608 625.578 241.44 628.194 241.44V241.008C628.194 238.68 627.162 237.384 624.786 237.384C622.674 237.384 621.57 238.56 621.282 240.432ZM620.874 245.616C620.874 247.056 622.002 247.92 623.754 247.92C626.25 247.92 628.194 245.856 628.194 243.504V242.616C622.17 242.64 620.874 243.888 620.874 245.616ZM633.772 245.52V237.552H631.852V236.304H633.772V233.376H635.332V236.304H638.164V237.552H635.332V245.52C635.332 247.2 635.812 247.944 637.756 247.944H638.14V249.072C637.948 249.144 637.516 249.192 637.084 249.192C634.78 249.192 633.772 248.064 633.772 245.52ZM645.321 249V231.72H646.881V238.44C647.745 236.88 649.209 236.04 651.009 236.04C653.697 236.04 655.233 237.648 655.233 240.504V249H653.697V240.84C653.697 238.776 652.737 237.36 650.601 237.36C648.249 237.36 646.881 239.496 646.881 241.416V249H645.321ZM669.522 244.872C668.826 247.848 666.762 249.264 663.978 249.264C660.378 249.264 658.242 246.792 658.242 242.664C658.242 238.368 660.402 236.04 663.858 236.04C667.362 236.04 669.45 238.464 669.45 242.472V242.904H659.826C659.898 246.096 661.41 247.92 663.978 247.92C665.97 247.92 667.41 246.888 667.914 244.872H669.522ZM663.858 237.384C661.506 237.384 660.114 238.896 659.874 241.704H667.842C667.602 238.968 666.186 237.384 663.858 237.384ZM672.555 249V231.72H674.115V249H672.555ZM679.365 254.28H677.829V236.304H679.365V238.368C680.205 236.88 681.549 236.04 683.253 236.04C686.541 236.04 688.509 238.512 688.509 242.616C688.509 246.936 686.493 249.264 683.253 249.264C681.525 249.264 680.181 248.472 679.365 247.008V254.28ZM683.157 237.384C680.709 237.384 679.365 239.232 679.365 242.64C679.365 245.976 680.757 247.92 683.157 247.92C685.581 247.92 686.901 246.024 686.901 242.616C686.901 239.304 685.533 237.384 683.157 237.384ZM696.701 245.52V237.552H694.781V236.304H696.701V233.376H698.261V236.304H701.093V237.552H698.261V245.52C698.261 247.2 698.741 247.944 700.685 247.944H701.069V249.072C700.877 249.144 700.445 249.192 700.013 249.192C697.709 249.192 696.701 248.064 696.701 245.52ZM708.273 249.264C704.697 249.264 702.609 246.792 702.609 242.664C702.609 238.368 704.769 236.04 708.273 236.04C711.825 236.04 713.913 238.536 713.913 242.664C713.913 246.936 711.753 249.264 708.273 249.264ZM708.273 247.92C710.889 247.92 712.329 246.048 712.329 242.664C712.329 239.328 710.841 237.384 708.273 237.384C705.633 237.384 704.193 239.256 704.193 242.664C704.193 246 705.681 247.92 708.273 247.92ZM721.868 249V236.304H723.428V238.344C724.22 236.832 725.564 236.04 727.22 236.04C729.068 236.04 730.316 236.928 730.844 238.56C731.636 236.928 733.052 236.04 734.804 236.04C737.324 236.04 738.788 237.648 738.788 240.504V249H737.228V240.84C737.228 238.776 736.388 237.36 734.468 237.36C732.356 237.36 731.108 239.496 731.108 241.416V249H729.548V240.84C729.548 238.776 728.708 237.36 726.788 237.36C724.676 237.36 723.428 239.496 723.428 241.416V249H721.868ZM753.077 244.872C752.381 247.848 750.317 249.264 747.533 249.264C743.933 249.264 741.797 246.792 741.797 242.664C741.797 238.368 743.957 236.04 747.413 236.04C750.917 236.04 753.005 238.464 753.005 242.472V242.904H743.381C743.453 246.096 744.965 247.92 747.533 247.92C749.525 247.92 750.965 246.888 751.469 244.872H753.077ZM747.413 237.384C745.061 237.384 743.669 238.896 743.429 241.704H751.397C751.157 238.968 749.741 237.384 747.413 237.384ZM772.167 249L769.095 238.944L768.807 237.648L768.495 238.944L765.423 249H763.527L759.567 236.304H761.247L764.247 246.672L764.559 247.848L764.847 246.672L768.039 236.304H769.719L772.935 246.672L773.199 247.776L773.463 246.672L776.463 236.304H778.071L774.111 249H772.167ZM780.274 249V231.72H781.834V238.44C782.698 236.88 784.162 236.04 785.962 236.04C788.65 236.04 790.186 237.648 790.186 240.504V249H788.65V240.84C788.65 238.776 787.69 237.36 785.554 237.36C783.202 237.36 781.834 239.496 781.834 241.416V249H780.274ZM804.475 244.872C803.779 247.848 801.715 249.264 798.931 249.264C795.331 249.264 793.195 246.792 793.195 242.664C793.195 238.368 795.355 236.04 798.811 236.04C802.315 236.04 804.403 238.464 804.403 242.472V242.904H794.779C794.851 246.096 796.363 247.92 798.931 247.92C800.923 247.92 802.363 246.888 802.867 244.872H804.475ZM798.811 237.384C796.459 237.384 795.067 238.896 794.827 241.704H802.795C802.555 238.968 801.139 237.384 798.811 237.384ZM807.508 249V236.304H809.068V238.44C809.932 236.88 811.396 236.04 813.196 236.04C815.884 236.04 817.42 237.648 817.42 240.504V249H815.884V240.84C815.884 238.776 814.924 237.36 812.788 237.36C810.436 237.36 809.068 239.496 809.068 241.416V249H807.508ZM826.071 234.456V231.72H827.631V234.456H826.071ZM826.071 249V236.304H827.631V249H826.071ZM831.561 245.52V237.552H829.641V236.304H831.561V233.376H833.121V236.304H835.953V237.552H833.121V245.52C833.121 247.2 833.601 247.944 835.545 247.944H835.929V249.072C835.737 249.144 835.305 249.192 834.873 249.192C832.569 249.192 831.561 248.064 831.561 245.52ZM853.286 240.6H851.726C851.342 238.488 849.902 237.384 848.006 237.384C845.414 237.384 843.998 239.256 843.998 242.664C843.998 246 845.486 247.92 848.078 247.92C849.998 247.92 851.366 246.888 851.822 244.8H853.382C852.782 247.92 850.742 249.264 848.03 249.264C844.502 249.264 842.414 246.768 842.414 242.664C842.414 238.368 844.55 236.04 848.006 236.04C850.766 236.04 852.854 237.624 853.286 240.6ZM861.25 249.264C857.674 249.264 855.586 246.792 855.586 242.664C855.586 238.368 857.746 236.04 861.25 236.04C864.802 236.04 866.89 238.536 866.89 242.664C866.89 246.936 864.73 249.264 861.25 249.264ZM861.25 247.92C863.866 247.92 865.306 246.048 865.306 242.664C865.306 239.328 863.818 237.384 861.25 237.384C858.61 237.384 857.17 239.256 857.17 242.664C857.17 246 858.658 247.92 861.25 247.92ZM869.899 249V236.304H871.459V238.344C872.251 236.832 873.595 236.04 875.251 236.04C877.099 236.04 878.347 236.928 878.875 238.56C879.667 236.928 881.083 236.04 882.835 236.04C885.355 236.04 886.819 237.648 886.819 240.504V249H885.259V240.84C885.259 238.776 884.419 237.36 882.499 237.36C880.387 237.36 879.139 239.496 879.139 241.416V249H877.579V240.84C877.579 238.776 876.739 237.36 874.819 237.36C872.707 237.36 871.459 239.496 871.459 241.416V249H869.899ZM901.108 244.872C900.412 247.848 898.348 249.264 895.564 249.264C891.964 249.264 889.828 246.792 889.828 242.664C889.828 238.368 891.988 236.04 895.444 236.04C898.948 236.04 901.036 238.464 901.036 242.472V242.904H891.412C891.484 246.096 892.996 247.92 895.564 247.92C897.556 247.92 898.996 246.888 899.5 244.872H901.108ZM895.444 237.384C893.092 237.384 891.7 238.896 891.46 241.704H899.428C899.188 238.968 897.772 237.384 895.444 237.384ZM905.101 239.52C905.101 243.48 913.477 240.168 913.477 245.448C913.477 247.824 911.437 249.264 908.605 249.264C905.653 249.264 903.637 247.824 903.157 244.872H904.717C905.029 246.912 906.469 248.016 908.653 248.016C910.789 248.016 911.917 247.008 911.917 245.568C911.917 241.608 903.613 244.872 903.613 239.64C903.613 237.72 905.053 236.04 908.053 236.04C910.693 236.04 912.637 237.336 913.021 240.432H911.461C911.149 238.2 909.901 237.312 907.957 237.312C906.133 237.312 905.101 238.248 905.101 239.52ZM921.443 245.52V237.552H919.523V236.304H921.443V233.376H923.003V236.304H925.835V237.552H923.003V245.52C923.003 247.2 923.483 247.944 925.427 247.944H925.811V249.072C925.619 249.144 925.187 249.192 924.755 249.192C922.451 249.192 921.443 248.064 921.443 245.52ZM933.015 249.264C929.439 249.264 927.351 246.792 927.351 242.664C927.351 238.368 929.511 236.04 933.015 236.04C936.567 236.04 938.655 238.536 938.655 242.664C938.655 246.936 936.495 249.264 933.015 249.264ZM933.015 247.92C935.631 247.92 937.071 246.048 937.071 242.664C937.071 239.328 935.583 237.384 933.015 237.384C930.375 237.384 928.935 239.256 928.935 242.664C928.935 246 930.423 247.92 933.015 247.92ZM951.17 249.264C947.882 249.264 945.914 246.792 945.914 242.664C945.914 238.368 947.93 236.04 951.17 236.04C952.874 236.04 954.194 236.808 955.034 238.272V231.72H956.594V249H955.034V246.96C954.194 248.424 952.874 249.264 951.17 249.264ZM951.266 247.92C953.714 247.92 955.034 246.048 955.034 242.664C955.034 239.328 953.666 237.384 951.266 237.384C948.842 237.384 947.498 239.256 947.498 242.664C947.498 246 948.89 247.92 951.266 247.92ZM960.297 234.456V231.72H961.857V234.456H960.297ZM960.297 249V236.304H961.857V249H960.297ZM969.939 249.12C966.747 249.12 964.851 246.672 964.851 242.592C964.851 238.344 966.795 236.04 969.939 236.04C971.811 236.04 973.155 236.784 973.971 238.2V236.304H975.531V249.456C975.531 253.008 973.371 254.568 970.539 254.568C967.635 254.568 965.643 253.128 965.187 250.32H966.747C967.035 252.24 968.475 253.272 970.539 253.272C972.651 253.272 973.971 252.096 973.971 249.504V246.888C973.107 248.352 971.715 249.12 969.939 249.12ZM970.203 247.776C972.651 247.776 973.971 245.928 973.971 242.568C973.971 239.304 972.603 237.384 970.203 237.384C967.779 237.384 966.435 239.232 966.435 242.592C966.435 245.88 967.803 247.776 970.203 247.776ZM979.258 234.456V231.72H980.818V234.456H979.258ZM979.258 249V236.304H980.818V249H979.258ZM984.748 245.52V237.552H982.828V236.304H984.748V233.376H986.308V236.304H989.14V237.552H986.308V245.52C986.308 247.2 986.788 247.944 988.732 247.944H989.116V249.072C988.924 249.144 988.492 249.192 988.06 249.192C985.756 249.192 984.748 248.064 984.748 245.52ZM992.72 240.432H991.16C991.568 237.672 993.296 236.04 996.368 236.04C999.632 236.04 1001.19 237.96 1001.19 240.936V246.024C1001.19 247.416 1001.31 248.328 1001.67 249H1000.02C999.704 248.4 999.632 247.44 999.632 246.552C998.552 248.448 996.656 249.264 995.048 249.264C992.432 249.264 990.728 248.016 990.728 245.664C990.728 243.936 991.664 242.784 993.488 242.184C995.24 241.608 997.016 241.44 999.632 241.44V241.008C999.632 238.68 998.6 237.384 996.224 237.384C994.112 237.384 993.008 238.56 992.72 240.432ZM992.312 245.616C992.312 247.056 993.44 247.92 995.192 247.92C997.688 247.92 999.632 245.856 999.632 243.504V242.616C993.608 242.64 992.312 243.888 992.312 245.616ZM1004.97 249V231.72H1006.53V249H1004.97ZM1015.16 249V236.304H1016.72V238.344C1017.52 236.832 1018.86 236.04 1020.52 236.04C1022.36 236.04 1023.61 236.928 1024.14 238.56C1024.93 236.928 1026.35 236.04 1028.1 236.04C1030.62 236.04 1032.08 237.648 1032.08 240.504V249H1030.52V240.84C1030.52 238.776 1029.68 237.36 1027.76 237.36C1025.65 237.36 1024.4 239.496 1024.4 241.416V249H1022.84V240.84C1022.84 238.776 1022 237.36 1020.08 237.36C1017.97 237.36 1016.72 239.496 1016.72 241.416V249H1015.16ZM1040.76 249.264C1037.18 249.264 1035.09 246.792 1035.09 242.664C1035.09 238.368 1037.25 236.04 1040.76 236.04C1044.31 236.04 1046.4 238.536 1046.4 242.664C1046.4 246.936 1044.24 249.264 1040.76 249.264ZM1040.76 247.92C1043.37 247.92 1044.81 246.048 1044.81 242.664C1044.81 239.328 1043.33 237.384 1040.76 237.384C1038.12 237.384 1036.68 239.256 1036.68 242.664C1036.68 246 1038.17 247.92 1040.76 247.92ZM1049.41 249V236.304H1050.97V238.44C1051.83 236.88 1053.29 236.04 1055.09 236.04C1057.78 236.04 1059.32 237.648 1059.32 240.504V249H1057.78V240.84C1057.78 238.776 1056.82 237.36 1054.69 237.36C1052.33 237.36 1050.97 239.496 1050.97 241.416V249H1049.41ZM1073.61 244.872C1072.91 247.848 1070.85 249.264 1068.06 249.264C1064.46 249.264 1062.33 246.792 1062.33 242.664C1062.33 238.368 1064.49 236.04 1067.94 236.04C1071.45 236.04 1073.54 238.464 1073.54 242.472V242.904H1063.91C1063.98 246.096 1065.5 247.92 1068.06 247.92C1070.06 247.92 1071.5 246.888 1072 244.872H1073.61ZM1067.94 237.384C1065.59 237.384 1064.2 238.896 1063.96 241.704H1071.93C1071.69 238.968 1070.27 237.384 1067.94 237.384ZM1076.55 254.496C1076.19 254.496 1075.78 254.4 1075.57 254.352V253.152H1076.12C1077.73 253.152 1078.11 252.888 1079.41 249.864L1079.91 248.664L1074.73 236.304H1076.43L1080.1 245.28L1080.73 247.032L1081.35 245.28L1084.93 236.304H1086.54L1080.63 250.704C1079.36 253.8 1078.66 254.496 1076.55 254.496ZM428.108 296.52V288.552H426.188V287.304H428.108V284.376H429.668V287.304H432.5V288.552H429.668V296.52C429.668 298.2 430.148 298.944 432.092 298.944H432.476V300.072C432.284 300.144 431.852 300.192 431.42 300.192C429.116 300.192 428.108 299.064 428.108 296.52ZM434.711 300V287.304H436.271V289.632C437.111 287.904 438.527 287.04 440.183 287.04C440.663 287.04 441.095 287.136 441.335 287.304V288.72C440.999 288.6 440.543 288.528 440.087 288.528C437.495 288.528 436.271 290.448 436.271 292.704V300H434.711ZM444.54 291.432H442.98C443.388 288.672 445.116 287.04 448.188 287.04C451.452 287.04 453.012 288.96 453.012 291.936V297.024C453.012 298.416 453.132 299.328 453.492 300H451.836C451.524 299.4 451.452 298.44 451.452 297.552C450.372 299.448 448.476 300.264 446.868 300.264C444.252 300.264 442.548 299.016 442.548 296.664C442.548 294.936 443.484 293.784 445.308 293.184C447.06 292.608 448.836 292.44 451.452 292.44V292.008C451.452 289.68 450.42 288.384 448.044 288.384C445.932 288.384 444.828 289.56 444.54 291.432ZM444.132 296.616C444.132 298.056 445.26 298.92 447.012 298.92C449.508 298.92 451.452 296.856 451.452 294.504V293.616C445.428 293.64 444.132 294.888 444.132 296.616ZM456.789 300V287.304H458.349V289.44C459.213 287.88 460.677 287.04 462.477 287.04C465.165 287.04 466.701 288.648 466.701 291.504V300H465.165V291.84C465.165 289.776 464.205 288.36 462.069 288.36C459.717 288.36 458.349 290.496 458.349 292.416V300H456.789ZM471.367 290.52C471.367 294.48 479.743 291.168 479.743 296.448C479.743 298.824 477.703 300.264 474.871 300.264C471.919 300.264 469.903 298.824 469.423 295.872H470.983C471.295 297.912 472.735 299.016 474.919 299.016C477.055 299.016 478.183 298.008 478.183 296.568C478.183 292.608 469.879 295.872 469.879 290.64C469.879 288.72 471.319 287.04 474.319 287.04C476.959 287.04 478.903 288.336 479.287 291.432H477.727C477.415 289.2 476.167 288.312 474.223 288.312C472.399 288.312 471.367 289.248 471.367 290.52ZM480.796 288.552V287.304H482.716V286.2C482.716 283.656 483.7 282.528 486.004 282.528C486.388 282.528 486.724 282.576 486.916 282.648V283.776H486.676C484.78 283.776 484.276 284.52 484.276 286.2V287.304H486.916V288.552H484.276V300H482.716V288.552H480.796ZM499.412 295.872C498.716 298.848 496.652 300.264 493.868 300.264C490.268 300.264 488.132 297.792 488.132 293.664C488.132 289.368 490.292 287.04 493.748 287.04C497.252 287.04 499.34 289.464 499.34 293.472V293.904H489.716C489.788 297.096 491.3 298.92 493.868 298.92C495.86 298.92 497.3 297.888 497.804 295.872H499.412ZM493.748 288.384C491.396 288.384 490.004 289.896 489.764 292.704H497.732C497.492 289.968 496.076 288.384 493.748 288.384ZM502.446 300V287.304H504.006V289.632C504.846 287.904 506.262 287.04 507.918 287.04C508.398 287.04 508.83 287.136 509.07 287.304V288.72C508.734 288.6 508.278 288.528 507.822 288.528C505.23 288.528 504.006 290.448 504.006 292.704V300H502.446ZM508.581 300V297.984H510.597V299.064C510.597 301.104 510.309 302.328 509.613 303.696H508.725C509.205 302.304 509.445 301.416 509.445 300H508.581ZM519.208 300V283.68H524.608C527.848 283.68 529.96 285.312 529.96 287.904C529.96 289.536 529.048 290.856 527.296 291.432C529.624 291.96 530.848 293.496 530.848 295.488C530.848 298.344 528.76 300 525.424 300H519.208ZM524.584 285H520.816V290.952H524.536C526.888 290.952 528.304 289.776 528.304 288C528.304 286.152 526.864 285 524.584 285ZM524.992 292.248H520.816V298.68H525.4C527.728 298.68 529.192 297.408 529.192 295.464C529.192 293.496 527.56 292.248 524.992 292.248ZM533.852 285.456V282.72H535.412V285.456H533.852ZM533.852 300V287.304H535.412V300H533.852ZM539.102 300V282.72H540.662V300H539.102ZM544.352 300V282.72H545.912V300H544.352ZM556.107 305.28H554.571V287.304H556.107V289.368C556.947 287.88 558.291 287.04 559.995 287.04C563.283 287.04 565.251 289.512 565.251 293.616C565.251 297.936 563.235 300.264 559.995 300.264C558.267 300.264 556.923 299.472 556.107 298.008V305.28ZM559.899 288.384C557.451 288.384 556.107 290.232 556.107 293.64C556.107 296.976 557.499 298.92 559.899 298.92C562.323 298.92 563.643 297.024 563.643 293.616C563.643 290.304 562.275 288.384 559.899 288.384ZM569.626 291.432H568.066C568.474 288.672 570.202 287.04 573.274 287.04C576.538 287.04 578.098 288.96 578.098 291.936V297.024C578.098 298.416 578.218 299.328 578.578 300H576.922C576.61 299.4 576.538 298.44 576.538 297.552C575.458 299.448 573.562 300.264 571.954 300.264C569.338 300.264 567.634 299.016 567.634 296.664C567.634 294.936 568.57 293.784 570.394 293.184C572.146 292.608 573.922 292.44 576.538 292.44V292.008C576.538 289.68 575.506 288.384 573.13 288.384C571.018 288.384 569.914 289.56 569.626 291.432ZM569.218 296.616C569.218 298.056 570.346 298.92 572.098 298.92C574.594 298.92 576.538 296.856 576.538 294.504V293.616C570.514 293.64 569.218 294.888 569.218 296.616ZM581.763 305.496C581.403 305.496 580.995 305.4 580.779 305.352V304.152H581.331C582.939 304.152 583.323 303.888 584.619 300.864L585.123 299.664L579.939 287.304H581.643L585.315 296.28L585.939 298.032L586.563 296.28L590.139 287.304H591.747L585.843 301.704C584.571 304.8 583.875 305.496 581.763 305.496ZM593.805 300V287.304H595.365V289.344C596.157 287.832 597.501 287.04 599.157 287.04C601.005 287.04 602.253 287.928 602.781 289.56C603.573 287.928 604.989 287.04 606.741 287.04C609.261 287.04 610.725 288.648 610.725 291.504V300H609.165V291.84C609.165 289.776 608.325 288.36 606.405 288.36C604.293 288.36 603.045 290.496 603.045 292.416V300H601.485V291.84C601.485 289.776 600.645 288.36 598.725 288.36C596.613 288.36 595.365 290.496 595.365 292.416V300H593.805ZM625.014 295.872C624.318 298.848 622.254 300.264 619.47 300.264C615.87 300.264 613.734 297.792 613.734 293.664C613.734 289.368 615.894 287.04 619.35 287.04C622.854 287.04 624.942 289.464 624.942 293.472V293.904H615.318C615.39 297.096 616.902 298.92 619.47 298.92C621.462 298.92 622.902 297.888 623.406 295.872H625.014ZM619.35 288.384C616.998 288.384 615.606 289.896 615.366 292.704H623.334C623.094 289.968 621.678 288.384 619.35 288.384ZM628.047 300V287.304H629.607V289.44C630.471 287.88 631.935 287.04 633.735 287.04C636.423 287.04 637.959 288.648 637.959 291.504V300H636.423V291.84C636.423 289.776 635.463 288.36 633.327 288.36C630.975 288.36 629.607 290.496 629.607 292.416V300H628.047ZM641.904 296.52V288.552H639.984V287.304H641.904V284.376H643.464V287.304H646.296V288.552H643.464V296.52C643.464 298.2 643.944 298.944 645.888 298.944H646.272V300.072C646.08 300.144 645.648 300.192 645.216 300.192C642.912 300.192 641.904 299.064 641.904 296.52ZM648.268 300V297.984H650.284V299.064C650.284 301.104 649.996 302.328 649.3 303.696H648.412C648.892 302.304 649.132 301.416 649.132 300H648.268ZM658.895 300V283.68H663.863C668.903 283.68 672.071 286.728 672.071 291.864C672.071 296.976 668.903 300 663.863 300H658.895ZM663.863 298.68C667.943 298.68 670.391 296.16 670.391 291.864C670.391 287.544 667.943 285 663.863 285H660.503V298.68H663.863ZM676.689 291.432H675.129C675.537 288.672 677.265 287.04 680.337 287.04C683.601 287.04 685.161 288.96 685.161 291.936V297.024C685.161 298.416 685.281 299.328 685.641 300H683.985C683.673 299.4 683.601 298.44 683.601 297.552C682.521 299.448 680.625 300.264 679.017 300.264C676.401 300.264 674.697 299.016 674.697 296.664C674.697 294.936 675.633 293.784 677.457 293.184C679.209 292.608 680.985 292.44 683.601 292.44V292.008C683.601 289.68 682.569 288.384 680.193 288.384C678.081 288.384 676.977 289.56 676.689 291.432ZM676.281 296.616C676.281 298.056 677.409 298.92 679.161 298.92C681.657 298.92 683.601 296.856 683.601 294.504V293.616C677.577 293.64 676.281 294.888 676.281 296.616ZM689.178 296.52V288.552H687.258V287.304H689.178V284.376H690.738V287.304H693.57V288.552H690.738V296.52C690.738 298.2 691.218 298.944 693.162 298.944H693.546V300.072C693.354 300.144 692.922 300.192 692.49 300.192C690.186 300.192 689.178 299.064 689.178 296.52ZM697.15 291.432H695.59C695.998 288.672 697.726 287.04 700.798 287.04C704.062 287.04 705.622 288.96 705.622 291.936V297.024C705.622 298.416 705.742 299.328 706.102 300H704.446C704.134 299.4 704.062 298.44 704.062 297.552C702.982 299.448 701.086 300.264 699.478 300.264C696.862 300.264 695.158 299.016 695.158 296.664C695.158 294.936 696.094 293.784 697.918 293.184C699.67 292.608 701.446 292.44 704.062 292.44V292.008C704.062 289.68 703.03 288.384 700.654 288.384C698.542 288.384 697.438 289.56 697.15 291.432ZM696.742 296.616C696.742 298.056 697.87 298.92 699.622 298.92C702.118 298.92 704.062 296.856 704.062 294.504V293.616C698.038 293.64 696.742 294.888 696.742 296.616ZM707.767 300L713.623 283.68H715.183L709.327 300H707.767ZM727.563 300L725.859 295.728H717.603L715.899 300H714.291L720.819 283.68H722.715L729.267 300H727.563ZM721.299 286.536L718.131 294.408H725.331L722.187 286.536L721.731 285.288L721.299 286.536ZM731.688 285.456V282.72H733.248V285.456H731.688ZM731.688 300V287.304H733.248V300H731.688ZM736.938 300V287.304H738.498V289.632C739.338 287.904 740.754 287.04 742.41 287.04C742.89 287.04 743.322 287.136 743.562 287.304V288.72C743.226 288.6 742.77 288.528 742.314 288.528C739.722 288.528 738.498 290.448 738.498 292.704V300H736.938ZM745.943 296.52V288.552H744.023V287.304H745.943V284.376H747.503V287.304H750.335V288.552H747.503V296.52C747.503 298.2 747.983 298.944 749.927 298.944H750.311V300.072C750.119 300.144 749.687 300.192 749.255 300.192C746.951 300.192 745.943 299.064 745.943 296.52ZM752.547 285.456V282.72H754.107V285.456H752.547ZM752.547 300V287.304H754.107V300H752.547ZM757.797 300V287.304H759.357V289.344C760.149 287.832 761.493 287.04 763.149 287.04C764.997 287.04 766.245 287.928 766.773 289.56C767.565 287.928 768.981 287.04 770.733 287.04C773.253 287.04 774.717 288.648 774.717 291.504V300H773.157V291.84C773.157 289.776 772.317 288.36 770.397 288.36C768.285 288.36 767.037 290.496 767.037 292.416V300H765.477V291.84C765.477 289.776 764.637 288.36 762.717 288.36C760.605 288.36 759.357 290.496 759.357 292.416V300H757.797ZM789.006 295.872C788.31 298.848 786.246 300.264 783.462 300.264C779.862 300.264 777.726 297.792 777.726 293.664C777.726 289.368 779.886 287.04 783.342 287.04C786.846 287.04 788.934 289.464 788.934 293.472V293.904H779.31C779.382 297.096 780.894 298.92 783.462 298.92C785.454 298.92 786.894 297.888 787.398 295.872H789.006ZM783.342 288.384C780.99 288.384 779.598 289.896 779.358 292.704H787.326C787.086 289.968 785.67 288.384 783.342 288.384ZM797.225 296.52V288.552H795.305V287.304H797.225V284.376H798.785V287.304H801.617V288.552H798.785V296.52C798.785 298.2 799.265 298.944 801.209 298.944H801.593V300.072C801.401 300.144 800.969 300.192 800.537 300.192C798.233 300.192 797.225 299.064 797.225 296.52ZM808.796 300.264C805.22 300.264 803.132 297.792 803.132 293.664C803.132 289.368 805.292 287.04 808.796 287.04C812.348 287.04 814.436 289.536 814.436 293.664C814.436 297.936 812.276 300.264 808.796 300.264ZM808.796 298.92C811.412 298.92 812.852 297.048 812.852 293.664C812.852 290.328 811.364 288.384 808.796 288.384C806.156 288.384 804.716 290.256 804.716 293.664C804.716 297 806.204 298.92 808.796 298.92ZM819.006 305.28H817.47V287.304H819.006V289.368C819.846 287.88 821.19 287.04 822.894 287.04C826.182 287.04 828.15 289.512 828.15 293.616C828.15 297.936 826.134 300.264 822.894 300.264C821.166 300.264 819.822 299.472 819.006 298.008V305.28ZM822.798 288.384C820.35 288.384 819.006 290.232 819.006 293.64C819.006 296.976 820.398 298.92 822.798 298.92C825.222 298.92 826.542 297.024 826.542 293.616C826.542 290.304 825.174 288.384 822.798 288.384ZM839.389 294.888V287.304H840.949V300H839.389V297.84C838.549 299.424 837.085 300.264 835.309 300.264C832.669 300.264 831.157 298.68 831.157 295.8V287.304H832.717V295.488C832.717 297.528 833.629 298.92 835.741 298.92C838.045 298.92 839.389 296.808 839.389 294.888ZM846.193 305.28H844.657V287.304H846.193V289.368C847.033 287.88 848.377 287.04 850.081 287.04C853.369 287.04 855.337 289.512 855.337 293.616C855.337 297.936 853.321 300.264 850.081 300.264C848.353 300.264 847.009 299.472 846.193 298.008V305.28ZM849.985 288.384C847.537 288.384 846.193 290.232 846.193 293.64C846.193 296.976 847.585 298.92 849.985 298.92C852.409 298.92 853.729 297.024 853.729 293.616C853.729 290.304 852.361 288.384 849.985 288.384ZM864.657 291.432H863.097C863.505 288.672 865.233 287.04 868.305 287.04C871.569 287.04 873.129 288.96 873.129 291.936V297.024C873.129 298.416 873.249 299.328 873.609 300H871.953C871.641 299.4 871.569 298.44 871.569 297.552C870.489 299.448 868.593 300.264 866.985 300.264C864.369 300.264 862.665 299.016 862.665 296.664C862.665 294.936 863.601 293.784 865.425 293.184C867.177 292.608 868.953 292.44 871.569 292.44V292.008C871.569 289.68 870.537 288.384 868.161 288.384C866.049 288.384 864.945 289.56 864.657 291.432ZM864.249 296.616C864.249 298.056 865.377 298.92 867.129 298.92C869.625 298.92 871.569 296.856 871.569 294.504V293.616C865.545 293.64 864.249 294.888 864.249 296.616ZM876.907 300V287.304H878.467V289.44C879.331 287.88 880.795 287.04 882.595 287.04C885.283 287.04 886.819 288.648 886.819 291.504V300H885.283V291.84C885.283 289.776 884.323 288.36 882.187 288.36C879.835 288.36 878.467 290.496 878.467 292.416V300H876.907ZM895.084 300.264C891.796 300.264 889.828 297.792 889.828 293.664C889.828 289.368 891.844 287.04 895.084 287.04C896.788 287.04 898.108 287.808 898.948 289.272V282.72H900.508V300H898.948V297.96C898.108 299.424 896.788 300.264 895.084 300.264ZM895.18 298.92C897.628 298.92 898.948 297.048 898.948 293.664C898.948 290.328 897.58 288.384 895.18 288.384C892.756 288.384 891.412 290.256 891.412 293.664C891.412 297 892.804 298.92 895.18 298.92ZM909.157 300V282.72H910.717V300H909.157ZM919.375 300.264C915.799 300.264 913.711 297.792 913.711 293.664C913.711 289.368 915.871 287.04 919.375 287.04C922.927 287.04 925.015 289.536 925.015 293.664C925.015 297.936 922.855 300.264 919.375 300.264ZM919.375 298.92C921.991 298.92 923.431 297.048 923.431 293.664C923.431 290.328 921.943 288.384 919.375 288.384C916.735 288.384 915.295 290.256 915.295 293.664C915.295 297 916.783 298.92 919.375 298.92ZM928.264 296.52V288.552H926.344V287.304H928.264V284.376H929.824V287.304H932.656V288.552H929.824V296.52C929.824 298.2 930.304 298.944 932.248 298.944H932.632V300.072C932.44 300.144 932.008 300.192 931.576 300.192C929.272 300.192 928.264 299.064 928.264 296.52ZM935.828 290.52C935.828 294.48 944.204 291.168 944.204 296.448C944.204 298.824 942.164 300.264 939.332 300.264C936.38 300.264 934.364 298.824 933.884 295.872H935.444C935.756 297.912 937.196 299.016 939.38 299.016C941.516 299.016 942.644 298.008 942.644 296.568C942.644 292.608 934.34 295.872 934.34 290.64C934.34 288.72 935.78 287.04 938.78 287.04C941.42 287.04 943.364 288.336 943.748 291.432H942.188C941.876 289.2 940.628 288.312 938.684 288.312C936.86 288.312 935.828 289.248 935.828 290.52ZM951.93 300V287.304H953.49V289.344C954.282 287.832 955.626 287.04 957.282 287.04C959.13 287.04 960.378 287.928 960.906 289.56C961.698 287.928 963.114 287.04 964.866 287.04C967.386 287.04 968.85 288.648 968.85 291.504V300H967.29V291.84C967.29 289.776 966.45 288.36 964.53 288.36C962.418 288.36 961.17 290.496 961.17 292.416V300H959.61V291.84C959.61 289.776 958.77 288.36 956.85 288.36C954.738 288.36 953.49 290.496 953.49 292.416V300H951.93ZM977.523 300.264C973.947 300.264 971.859 297.792 971.859 293.664C971.859 289.368 974.019 287.04 977.523 287.04C981.075 287.04 983.163 289.536 983.163 293.664C983.163 297.936 981.003 300.264 977.523 300.264ZM977.523 298.92C980.139 298.92 981.579 297.048 981.579 293.664C981.579 290.328 980.091 288.384 977.523 288.384C974.883 288.384 973.443 290.256 973.443 293.664C973.443 297 974.931 298.92 977.523 298.92ZM986.172 300V287.304H987.732V289.632C988.572 287.904 989.988 287.04 991.644 287.04C992.124 287.04 992.556 287.136 992.796 287.304V288.72C992.46 288.6 992.004 288.528 991.548 288.528C988.956 288.528 987.732 290.448 987.732 292.704V300H986.172ZM1005.29 295.872C1004.59 298.848 1002.53 300.264 999.743 300.264C996.143 300.264 994.007 297.792 994.007 293.664C994.007 289.368 996.167 287.04 999.623 287.04C1003.13 287.04 1005.22 289.464 1005.22 293.472V293.904H995.591C995.663 297.096 997.175 298.92 999.743 298.92C1001.74 298.92 1003.18 297.888 1003.68 295.872H1005.29ZM999.623 288.384C997.271 288.384 995.879 289.896 995.639 292.704H1003.61C1003.37 289.968 1001.95 288.384 999.623 288.384ZM1007.61 285.672V283.68H1009.63V284.952C1009.63 286.584 1009.34 287.52 1008.76 288.624H1007.85C1008.24 287.496 1008.48 286.8 1008.48 285.672H1007.61ZM1011.31 285.672V283.68H1013.37V284.952C1013.37 286.584 1013.01 287.52 1012.48 288.624H1011.55C1011.96 287.496 1012.17 286.8 1012.17 285.672H1011.31Z" fill="#15151D"/>
<path d="M670.945 130.935C670.945 136.885 667.165 140.525 661.04 140.525C654.915 140.525 651.135 136.885 651.135 130.935V116.2H655.86V130.935C655.86 134.54 657.785 136.71 661.04 136.71C664.33 136.71 666.255 134.54 666.255 130.935V116.2H670.945V130.935ZM691.402 127.89H686.922C686.502 125.44 685.032 124.425 683.142 124.425C680.377 124.425 678.907 126.63 678.907 130.655C678.907 134.61 680.447 136.815 683.282 136.815C685.207 136.815 686.572 135.765 687.027 133.63H691.542C690.702 138.32 687.412 140.525 683.177 140.525C677.647 140.525 674.287 136.745 674.287 130.655C674.287 124.285 677.752 120.715 683.142 120.715C687.412 120.715 690.772 123.095 691.402 127.89ZM694.644 140V114.8H699.124V123.76C700.349 121.73 702.309 120.715 704.689 120.715C708.434 120.715 710.989 122.955 710.989 127.505V140H706.509V128.415C706.509 125.86 705.424 124.425 703.149 124.425C700.664 124.425 699.124 126.595 699.124 129.115V140H694.644ZM732.233 133.875C731.218 138.215 727.858 140.525 723.378 140.525C717.708 140.525 714.243 136.78 714.243 130.655C714.243 124.285 717.743 120.715 723.203 120.715C728.698 120.715 732.093 124.425 732.093 130.48V131.53H718.863C719.073 134.96 720.648 136.85 723.378 136.85C725.478 136.85 726.913 135.87 727.508 133.875H732.233ZM723.203 124.39C720.823 124.39 719.388 125.895 718.968 128.73H727.403C726.983 125.93 725.548 124.39 723.203 124.39ZM742.468 140V116.2H747.193V125.86H757.728V116.2H762.418V140H757.728V129.71H747.193V140H742.468ZM771.206 127.4H766.691C767.286 123.235 770.331 120.715 775.056 120.715C780.271 120.715 782.931 123.795 782.931 128.135V135.415C782.931 137.725 783.141 139.02 783.491 140H778.836C778.591 139.37 778.486 138.46 778.451 137.445C776.911 139.615 774.601 140.525 772.361 140.525C768.686 140.525 766.061 138.705 766.061 135.1C766.061 132.545 767.496 130.62 770.366 129.675C772.851 128.835 775.266 128.625 778.416 128.59V128.135C778.416 125.72 777.261 124.425 774.776 124.425C772.641 124.425 771.486 125.615 771.206 127.4ZM770.576 134.855C770.576 136.29 771.696 137.2 773.516 137.2C776.281 137.2 778.416 134.96 778.416 132.16V131.355C772.046 131.46 770.576 132.965 770.576 134.855ZM791.683 147.7H787.203V121.24H791.683V123.375C792.873 121.66 794.553 120.715 796.618 120.715C801.518 120.715 804.528 124.46 804.528 130.585C804.528 136.955 801.448 140.525 796.618 140.525C794.553 140.525 792.838 139.65 791.683 137.97V147.7ZM795.813 124.425C793.118 124.425 791.683 126.595 791.683 130.585C791.683 134.575 793.188 136.815 795.813 136.815C798.473 136.815 799.908 134.61 799.908 130.585C799.908 126.63 798.438 124.425 795.813 124.425ZM812.259 147.7H807.779V121.24H812.259V123.375C813.449 121.66 815.129 120.715 817.194 120.715C822.094 120.715 825.104 124.46 825.104 130.585C825.104 136.955 822.024 140.525 817.194 140.525C815.129 140.525 813.414 139.65 812.259 137.97V147.7ZM816.389 124.425C813.694 124.425 812.259 126.595 812.259 130.585C812.259 134.575 813.764 136.815 816.389 136.815C819.049 136.815 820.484 134.61 820.484 130.585C820.484 126.63 819.014 124.425 816.389 124.425ZM828.355 119.14V114.8H832.835V119.14H828.355ZM828.355 140V121.24H832.835V140H828.355ZM836.934 140V121.24H841.414V123.76C842.639 121.73 844.599 120.715 846.979 120.715C850.724 120.715 853.279 122.955 853.279 127.505V140H848.799V128.415C848.799 125.86 847.714 124.425 845.439 124.425C842.954 124.425 841.414 126.595 841.414 129.115V140H836.934ZM874.523 133.875C873.508 138.215 870.148 140.525 865.668 140.525C859.998 140.525 856.533 136.78 856.533 130.655C856.533 124.285 860.033 120.715 865.493 120.715C870.988 120.715 874.383 124.425 874.383 130.48V131.53H861.153C861.363 134.96 862.938 136.85 865.668 136.85C867.768 136.85 869.203 135.87 869.798 133.875H874.523ZM865.493 124.39C863.113 124.39 861.678 125.895 861.258 128.73H869.693C869.273 125.93 867.838 124.39 865.493 124.39ZM881.49 126.28C881.49 130.585 893.32 126.945 893.32 134.47C893.32 138.075 889.995 140.525 885.305 140.525C880.685 140.525 877.36 138.39 876.695 133.875H881.175C881.49 135.905 883.1 137.06 885.445 137.06C887.65 137.06 888.805 136.115 888.805 134.75C888.805 130.55 877.22 134.155 877.22 126.56C877.22 123.515 879.6 120.715 884.5 120.715C888.805 120.715 892.06 122.745 892.62 127.4H888.14C887.79 125.125 886.46 124.215 884.325 124.215C882.54 124.215 881.49 125.09 881.49 126.28ZM900.118 126.28C900.118 130.585 911.948 126.945 911.948 134.47C911.948 138.075 908.623 140.525 903.933 140.525C899.313 140.525 895.988 138.39 895.323 133.875H899.803C900.118 135.905 901.728 137.06 904.073 137.06C906.278 137.06 907.433 136.115 907.433 134.75C907.433 130.55 895.848 134.155 895.848 126.56C895.848 123.515 898.228 120.715 903.128 120.715C907.433 120.715 910.688 122.745 911.248 127.4H906.768C906.418 125.125 905.088 124.215 902.953 124.215C901.168 124.215 900.118 125.09 900.118 126.28Z" fill="#15151D"/>
<path d="M659.85 180.68C659.57 180.68 659.337 180.528 659.15 180.225C659.01 180.085 658.917 179.887 658.87 179.63C658.847 179.397 658.928 178.965 659.115 178.335C659.302 177.682 659.617 176.69 660.06 175.36C660.293 174.473 660.48 173.832 660.62 173.435C660.76 173.015 660.83 172.712 660.83 172.525C660.83 172.268 660.853 172.058 660.9 171.895C660.97 171.708 661.005 171.533 661.005 171.37C661.145 171.37 661.285 171.242 661.425 170.985C661.565 170.728 661.682 170.378 661.775 169.935C661.868 169.538 661.95 169.223 662.02 168.99C662.113 168.733 662.16 168.558 662.16 168.465C662.277 168.278 662.393 167.987 662.51 167.59C662.65 167.193 662.86 166.715 663.14 166.155C663.327 165.455 663.537 164.732 663.77 163.985C664.003 163.215 664.237 162.503 664.47 161.85C664.727 161.173 664.937 160.648 665.1 160.275C665.357 159.552 665.555 159.05 665.695 158.77C665.835 158.467 665.835 158.268 665.695 158.175C665.532 158.058 665.497 157.86 665.59 157.58C665.683 157.3 665.94 156.985 666.36 156.635C666.617 156.332 666.838 156.122 667.025 156.005C667.212 155.865 667.445 155.795 667.725 155.795C668.028 155.795 668.46 155.818 669.02 155.865C669.44 155.888 669.883 155.9 670.35 155.9C670.84 155.9 671.143 155.9 671.26 155.9C671.47 155.993 671.727 156.098 672.03 156.215C672.333 156.308 672.602 156.402 672.835 156.495C673.092 156.588 673.22 156.67 673.22 156.74C673.22 156.88 673.267 156.973 673.36 157.02C673.477 157.043 673.593 157.067 673.71 157.09C673.873 157.09 674.095 157.218 674.375 157.475C674.655 157.708 674.947 158.012 675.25 158.385C675.553 158.735 675.787 159.108 675.95 159.505C676.137 159.902 676.277 160.275 676.37 160.625C676.487 160.975 676.487 161.477 676.37 162.13C676.347 162.48 676.288 162.83 676.195 163.18C676.125 163.53 676.043 163.763 675.95 163.88C675.81 163.973 675.682 164.09 675.565 164.23C675.448 164.37 675.39 164.498 675.39 164.615C675.39 164.708 675.308 164.895 675.145 165.175C674.982 165.432 674.772 165.735 674.515 166.085C674.258 166.435 673.978 166.785 673.675 167.135C673.372 167.485 673.08 167.788 672.8 168.045C672.497 168.418 672.135 168.768 671.715 169.095C671.318 169.422 670.957 169.69 670.63 169.9C670.023 170.18 669.347 170.46 668.6 170.74C667.877 171.02 667.177 171.253 666.5 171.44C665.847 171.627 665.298 171.708 664.855 171.685C664.178 171.778 663.735 171.872 663.525 171.965C663.338 172.035 663.198 172.233 663.105 172.56C662.988 172.863 662.872 173.178 662.755 173.505C662.662 173.808 662.615 174.018 662.615 174.135C662.568 174.228 662.452 174.52 662.265 175.01C662.102 175.477 661.915 176.025 661.705 176.655C661.518 177.285 661.332 177.903 661.145 178.51C660.958 179.117 660.818 179.618 660.725 180.015C660.632 180.342 660.515 180.528 660.375 180.575C660.235 180.645 660.06 180.68 659.85 180.68ZM664.19 169.83C664.283 169.923 664.645 169.935 665.275 169.865C665.905 169.795 666.582 169.62 667.305 169.34C667.772 169.177 668.238 168.978 668.705 168.745C669.195 168.512 669.662 168.255 670.105 167.975C670.338 167.812 670.688 167.52 671.155 167.1C671.622 166.68 672.088 166.178 672.555 165.595C672.625 165.478 672.742 165.257 672.905 164.93C673.092 164.58 673.255 164.253 673.395 163.95C673.605 163.623 673.815 163.145 674.025 162.515C674.235 161.862 674.282 161.325 674.165 160.905C674.048 160.298 673.745 159.738 673.255 159.225C672.765 158.688 672.182 158.327 671.505 158.14C670.992 158.047 670.56 158 670.21 158C669.883 158 669.522 158.035 669.125 158.105C668.752 158.222 668.472 158.385 668.285 158.595C668.122 158.805 667.9 159.248 667.62 159.925C667.457 160.252 667.223 160.753 666.92 161.43C666.617 162.083 666.36 162.702 666.15 163.285C665.73 164.825 665.31 166.097 664.89 167.1C664.493 168.08 664.248 168.698 664.155 168.955C664.178 169.212 664.167 169.398 664.12 169.515C664.073 169.608 664.097 169.713 664.19 169.83ZM677.127 179C676.684 179.117 676.322 179.023 676.042 178.72C675.785 178.417 675.634 177.95 675.587 177.32C675.54 176.69 675.61 175.943 675.797 175.08C675.914 174.8 676.007 174.532 676.077 174.275C676.147 173.995 676.182 173.773 676.182 173.61C676.229 173.377 676.322 173.038 676.462 172.595C676.602 172.128 676.754 171.65 676.917 171.16C677.08 170.67 677.232 170.238 677.372 169.865C677.535 169.468 677.64 169.223 677.687 169.13C677.78 169.13 677.862 169.048 677.932 168.885C678.002 168.722 678.037 168.558 678.037 168.395C678.037 168.208 678.072 167.998 678.142 167.765C678.235 167.532 678.329 167.368 678.422 167.275C678.422 167.158 678.445 167.03 678.492 166.89C678.562 166.727 678.597 166.598 678.597 166.505C678.597 166.412 678.62 166.318 678.667 166.225C678.737 166.132 678.772 166.038 678.772 165.945C678.935 165.642 679.145 165.163 679.402 164.51C679.682 163.833 679.974 163.087 680.277 162.27C680.604 161.453 680.907 160.648 681.187 159.855C681.467 159.062 681.689 158.397 681.852 157.86C682.039 157.3 682.132 156.962 682.132 156.845C682.132 156.658 682.179 156.518 682.272 156.425C682.365 156.332 682.505 156.285 682.692 156.285C682.762 156.215 682.844 156.168 682.937 156.145C683.054 156.122 683.159 156.11 683.252 156.11C683.252 156.11 683.299 156.157 683.392 156.25C683.485 156.343 683.625 156.483 683.812 156.67C683.999 156.833 684.104 157.02 684.127 157.23C684.174 157.44 684.197 157.685 684.197 157.965C684.197 158.268 684.162 158.537 684.092 158.77C684.022 159.003 683.882 159.342 683.672 159.785C683.462 160.228 683.135 160.917 682.692 161.85C682.505 162.317 682.307 162.76 682.097 163.18C681.887 163.577 681.782 163.822 681.782 163.915C681.782 164.008 681.735 164.148 681.642 164.335C681.572 164.522 681.49 164.755 681.397 165.035C681.304 165.222 681.175 165.502 681.012 165.875C680.849 166.225 680.674 166.61 680.487 167.03C680.324 167.427 680.184 167.777 680.067 168.08C679.95 168.36 679.892 168.523 679.892 168.57C679.892 168.663 679.88 168.757 679.857 168.85C679.857 168.943 679.81 169.037 679.717 169.13C679.624 169.13 679.565 169.2 679.542 169.34C679.542 169.457 679.542 169.515 679.542 169.515C679.542 169.748 679.355 170.367 678.982 171.37C678.609 172.653 678.259 173.832 677.932 174.905C677.629 175.978 677.477 176.842 677.477 177.495C677.477 178.055 677.465 178.428 677.442 178.615C677.419 178.778 677.314 178.907 677.127 179ZM682.235 177.74C682.142 177.553 682.025 177.413 681.885 177.32C681.745 177.203 681.675 177.098 681.675 177.005C681.675 176.912 681.664 176.818 681.64 176.725C681.64 176.608 681.594 176.503 681.5 176.41C681.384 176.27 681.395 175.955 681.535 175.465C681.675 174.952 681.909 174.333 682.235 173.61C682.562 172.863 682.947 172.082 683.39 171.265C683.577 171.078 683.764 170.833 683.95 170.53C684.137 170.227 684.277 170.028 684.37 169.935C684.37 169.842 684.405 169.76 684.475 169.69C684.545 169.597 684.627 169.55 684.72 169.55V169.34C684.72 169.223 684.825 169.025 685.035 168.745C685.269 168.465 685.549 168.162 685.875 167.835C686.202 167.485 686.54 167.158 686.89 166.855C687.24 166.528 687.532 166.295 687.765 166.155C688.255 165.828 688.757 165.63 689.27 165.56C689.807 165.49 690.262 165.607 690.635 165.91C690.705 165.98 690.822 166.097 690.985 166.26C691.149 166.423 691.335 166.61 691.545 166.82C691.779 167.007 692.012 167.205 692.245 167.415L693.54 168.57L692.91 170.32C692.607 171.253 692.525 172.07 692.665 172.77C692.829 173.47 693.062 174.077 693.365 174.59C693.482 174.847 693.715 175.092 694.065 175.325C694.439 175.558 694.789 175.698 695.115 175.745C695.302 175.768 695.477 175.838 695.64 175.955C695.804 176.072 695.885 176.258 695.885 176.515C695.885 176.748 695.839 176.935 695.745 177.075C695.652 177.215 695.489 177.308 695.255 177.355C694.485 177.448 693.762 177.262 693.085 176.795C692.432 176.328 691.825 175.558 691.265 174.485C691.172 174.345 691.044 174.088 690.88 173.715C690.74 173.318 690.659 173.062 690.635 172.945C690.542 173.062 690.367 173.283 690.11 173.61C689.854 173.913 689.655 174.135 689.515 174.275C687.859 175.955 686.424 177.087 685.21 177.67C684.02 178.23 683.029 178.253 682.235 177.74ZM683.495 175.78C683.495 175.943 683.74 175.943 684.23 175.78C684.744 175.593 685.292 175.267 685.875 174.8C686.669 174.123 687.462 173.377 688.255 172.56C689.072 171.743 689.725 170.985 690.215 170.285L690.985 169.025C690.752 168.488 690.495 168.127 690.215 167.94C689.959 167.73 689.737 167.625 689.55 167.625C689.247 167.625 688.792 167.905 688.185 168.465C687.602 169.025 686.972 169.772 686.295 170.705C685.619 171.638 684.977 172.665 684.37 173.785C684.137 174.252 683.927 174.707 683.74 175.15C683.577 175.57 683.495 175.78 683.495 175.78ZM696.709 187.435C696.195 187.528 695.845 187.54 695.659 187.47C695.472 187.4 695.215 187.283 694.889 187.12C694.632 186.933 694.434 186.793 694.294 186.7C694.154 186.607 694.084 186.513 694.084 186.42C694.084 186.35 694.107 186.268 694.154 186.175C694.2 186.105 694.282 186.035 694.399 185.965C694.539 185.918 694.725 185.895 694.959 185.895C695.122 185.988 695.39 186.035 695.764 186.035C696.16 186.035 696.405 185.988 696.499 185.895C696.499 185.895 696.604 185.825 696.814 185.685C697.047 185.568 697.35 185.475 697.724 185.405C698.447 185.055 699.089 184.612 699.649 184.075C700.209 183.538 700.745 182.838 701.259 181.975C701.469 181.648 701.69 181.263 701.924 180.82C702.157 180.4 702.32 179.98 702.414 179.56C702.6 179.093 702.81 178.463 703.044 177.67C703.3 176.877 703.522 176.095 703.709 175.325C703.895 174.532 704 173.937 704.024 173.54C704.164 172.233 704.385 171.032 704.689 169.935C705.015 168.815 705.295 167.567 705.529 166.19C705.669 165.863 705.774 165.677 705.844 165.63C705.914 165.56 706.065 165.525 706.299 165.525C706.555 165.525 706.742 165.548 706.859 165.595C706.999 165.618 707.15 165.758 707.314 166.015C707.547 166.458 707.629 166.983 707.559 167.59C707.512 168.173 707.337 168.687 707.034 169.13C706.8 169.457 706.59 169.97 706.404 170.67C706.24 171.347 706.077 172.198 705.914 173.225C705.797 173.738 705.669 174.345 705.529 175.045C705.412 175.722 705.284 176.48 705.144 177.32C705.05 177.553 704.922 177.915 704.759 178.405C704.595 178.872 704.49 179.245 704.444 179.525C704.42 179.618 704.35 179.805 704.234 180.085C704.117 180.365 704 180.633 703.884 180.89C703.767 181.17 703.685 181.357 703.639 181.45C702.729 183.34 701.69 184.787 700.524 185.79C699.357 186.793 698.085 187.342 696.709 187.435ZM699.369 177.285C699.112 177.285 698.844 177.145 698.564 176.865C698.307 176.585 698.132 176.363 698.039 176.2C697.945 175.967 697.829 175.745 697.689 175.535C697.549 175.325 697.444 175.068 697.374 174.765C697.327 174.462 697.35 174.088 697.444 173.645C697.537 173.342 697.665 172.91 697.829 172.35C698.015 171.767 698.214 171.137 698.424 170.46C698.657 169.783 698.89 169.118 699.124 168.465C699.38 167.788 699.614 167.193 699.824 166.68C700.034 166.143 700.22 165.758 700.384 165.525C700.524 165.338 700.675 165.222 700.839 165.175C701.025 165.128 701.212 165.152 701.399 165.245C701.585 165.315 701.749 165.467 701.889 165.7C702.145 166.027 702.25 166.307 702.204 166.54C702.157 166.773 701.947 167.228 701.574 167.905C701.48 168.162 701.364 168.442 701.224 168.745C701.084 169.025 701.014 169.212 701.014 169.305C700.99 169.352 700.944 169.515 700.874 169.795C700.827 170.052 700.769 170.297 700.699 170.53C700.629 170.763 700.559 170.88 700.489 170.88C700.395 170.973 700.29 171.242 700.174 171.685C700.057 172.105 699.952 172.583 699.859 173.12C699.765 173.633 699.707 174.088 699.684 174.485C699.66 174.858 699.695 175.045 699.789 175.045C700.512 175.045 701.259 174.765 702.029 174.205C702.822 173.645 703.615 172.828 704.409 171.755L705.004 174.24C704.677 174.403 704.374 174.578 704.094 174.765C703.814 174.928 703.557 175.127 703.324 175.36C703.254 175.453 703.09 175.582 702.834 175.745C702.577 175.908 702.32 176.06 702.064 176.2C701.83 176.317 701.679 176.375 701.609 176.375C701.609 176.375 701.574 176.387 701.504 176.41C701.457 176.41 701.434 176.457 701.434 176.55C701.434 176.597 701.282 176.69 700.979 176.83C700.675 176.947 700.36 177.052 700.034 177.145C699.707 177.238 699.485 177.285 699.369 177.285ZM720.894 178.51C719.727 178.51 718.875 178.09 718.339 177.25C718.175 177.017 718.094 176.783 718.094 176.55C718.117 176.293 718.187 176.118 718.304 176.025C718.444 175.932 718.607 176.013 718.794 176.27C719.12 176.457 719.587 176.55 720.194 176.55C720.497 176.55 720.812 176.527 721.139 176.48C721.465 176.41 721.792 176.317 722.119 176.2C722.469 176.037 722.702 175.897 722.819 175.78C722.935 175.64 722.912 175.523 722.749 175.43H722.784C722.177 175.267 721.559 175.01 720.929 174.66C720.322 174.287 719.797 173.89 719.354 173.47C718.91 173.027 718.654 172.63 718.584 172.28C718.397 171.557 718.444 170.822 718.724 170.075C719.004 169.305 719.4 168.628 719.914 168.045C720.1 167.928 720.334 167.788 720.614 167.625C720.894 167.438 721.115 167.333 721.279 167.31V167.345C721.722 166.878 722.259 166.505 722.889 166.225C723.542 165.945 724.23 165.688 724.954 165.455L725.479 165.385C725.759 165.338 725.992 165.315 726.179 165.315C726.155 165.315 726.202 165.338 726.319 165.385C726.435 165.408 726.54 165.432 726.634 165.455C726.774 165.525 726.89 165.56 726.984 165.56C727.287 165.607 727.567 165.747 727.824 165.98C728.08 166.213 728.279 166.493 728.419 166.82C728.582 167.123 728.64 167.415 728.594 167.695C728.547 168.138 728.407 168.535 728.174 168.885C727.964 169.235 727.707 169.433 727.404 169.48C727.45 169.457 727.415 169.422 727.299 169.375C727.205 169.305 727.1 169.235 726.984 169.165L726.879 169.235C726.879 169.235 726.867 169.212 726.844 169.165C726.844 169.095 726.82 169.013 726.774 168.92C726.704 168.78 726.669 168.628 726.669 168.465C726.669 168.278 726.68 168.08 726.704 167.87C726.75 167.613 726.75 167.462 726.704 167.415C726.68 167.368 726.529 167.333 726.249 167.31C725.922 167.24 725.444 167.298 724.814 167.485C724.207 167.672 723.694 167.928 723.274 168.255C722.76 168.582 722.329 168.897 721.979 169.2C721.629 169.48 721.349 169.76 721.139 170.04C720.929 170.297 720.742 170.6 720.579 170.95C720.462 171.113 720.357 171.277 720.264 171.44C720.194 171.58 720.159 171.708 720.159 171.825C720.159 172.082 720.345 172.35 720.719 172.63C721.115 172.887 721.699 173.19 722.469 173.54C723.075 173.797 723.589 174.077 724.009 174.38C724.429 174.683 724.72 175.033 724.884 175.43C724.93 175.523 724.942 175.64 724.919 175.78C724.919 175.897 724.895 175.978 724.849 176.025C724.895 176.072 724.919 176.107 724.919 176.13V176.095C725.105 176.375 725.105 176.667 724.919 176.97C724.755 177.273 724.464 177.542 724.044 177.775C723.647 177.985 723.157 178.148 722.574 178.265H722.609C722.305 178.358 722.002 178.428 721.699 178.475C721.419 178.498 721.15 178.51 720.894 178.51ZM732.368 178.755C732.111 178.708 731.843 178.58 731.563 178.37C731.306 178.137 731.073 177.88 730.863 177.6C730.676 177.297 730.548 177.028 730.478 176.795C730.478 176.748 730.443 176.69 730.373 176.62C730.326 176.55 730.303 176.515 730.303 176.515C730.209 176.445 730.151 176.142 730.128 175.605C730.128 175.045 730.163 174.427 730.233 173.75C730.303 173.073 730.384 172.537 730.478 172.14C730.594 171.767 730.769 171.265 731.003 170.635C731.236 169.982 731.434 169.398 731.598 168.885L732.543 166.855L731.143 166.47C730.979 166.423 730.839 166.33 730.723 166.19C730.629 166.05 730.583 165.933 730.583 165.84C730.583 165.653 730.688 165.432 730.898 165.175C731.108 164.895 731.259 164.755 731.353 164.755C731.469 164.778 731.679 164.79 731.983 164.79C732.309 164.79 732.624 164.778 732.928 164.755C733.231 164.732 733.418 164.708 733.488 164.685C733.581 164.638 733.674 164.58 733.768 164.51C733.861 164.417 733.931 164.288 733.978 164.125C734.094 163.868 734.199 163.635 734.293 163.425C734.386 163.192 734.514 162.935 734.678 162.655C734.841 162.352 734.969 162.095 735.063 161.885C735.179 161.675 735.354 161.383 735.588 161.01C735.704 160.847 735.833 160.648 735.973 160.415C736.113 160.182 736.288 159.983 736.498 159.82C736.708 159.633 736.918 159.552 737.128 159.575C737.361 159.575 737.653 159.727 738.003 160.03C738.189 160.263 738.294 160.438 738.318 160.555C738.341 160.672 738.248 160.893 738.038 161.22C737.851 161.617 737.629 162.013 737.373 162.41C737.139 162.807 736.918 163.203 736.708 163.6C736.334 164.113 736.264 164.405 736.498 164.475C736.731 164.545 737.384 164.498 738.458 164.335C739.134 164.218 739.624 164.253 739.928 164.44C740.231 164.603 740.406 164.883 740.453 165.28C740.523 165.84 740.464 166.178 740.278 166.295C740.091 166.412 739.554 166.47 738.668 166.47C738.108 166.563 737.629 166.622 737.233 166.645C736.836 166.645 736.544 166.645 736.358 166.645C736.054 166.668 735.856 166.68 735.763 166.68C735.669 166.68 735.529 166.703 735.343 166.75C735.156 166.797 735.016 166.878 734.923 166.995C734.853 167.088 734.771 167.228 734.678 167.415C734.584 167.508 734.444 167.753 734.258 168.15C734.071 168.547 733.838 168.978 733.558 169.445C733.231 170.425 732.951 171.405 732.718 172.385C732.484 173.342 732.298 174.275 732.158 175.185C732.064 175.768 732.076 176.177 732.193 176.41C732.309 176.62 732.613 176.748 733.103 176.795C733.359 176.818 733.768 176.818 734.328 176.795C734.911 176.748 735.366 176.678 735.693 176.585C735.949 176.468 736.218 176.352 736.498 176.235C736.778 176.095 737.034 175.955 737.268 175.815C737.478 175.698 737.688 175.582 737.898 175.465C738.108 175.325 738.213 175.255 738.213 175.255C738.329 175.068 738.458 175.01 738.598 175.08C738.738 175.15 738.854 175.325 738.948 175.605C738.948 175.885 738.889 176.177 738.773 176.48C738.656 176.783 738.224 177.145 737.478 177.565C736.428 178.218 735.459 178.615 734.573 178.755C733.709 178.872 732.974 178.872 732.368 178.755ZM744.864 177.67C744.374 177.763 744.059 177.798 743.919 177.775C743.803 177.728 743.616 177.588 743.359 177.355C742.986 177.168 742.671 176.935 742.414 176.655C742.181 176.375 742.006 176.083 741.889 175.78C741.796 175.453 741.761 175.185 741.784 174.975C741.854 174.158 742.053 173.283 742.379 172.35C742.706 171.417 743.103 170.518 743.569 169.655C744.036 168.792 744.538 168.057 745.074 167.45C745.634 166.82 746.171 166.412 746.684 166.225C747.151 166.038 747.594 165.968 748.014 166.015C748.434 166.062 748.738 166.283 748.924 166.68C749.274 167.357 749.193 167.788 748.679 167.975C748.609 167.975 748.528 168.01 748.434 168.08C748.341 168.127 748.294 168.197 748.294 168.29C748.388 168.337 748.644 168.348 749.064 168.325C749.484 168.278 749.904 168.208 750.324 168.115C750.768 167.998 751.059 167.882 751.199 167.765C751.339 167.695 751.444 167.66 751.514 167.66C751.584 167.66 751.759 167.683 752.039 167.73C752.436 167.847 752.634 167.987 752.634 168.15C752.634 168.243 752.669 168.337 752.739 168.43C752.809 168.5 752.891 168.535 752.984 168.535C753.148 168.558 753.124 168.663 752.914 168.85C752.728 169.037 752.401 169.293 751.934 169.62C751.491 169.9 751.211 170.087 751.094 170.18C751.001 170.25 750.989 170.413 751.059 170.67C751.246 171.113 751.258 171.627 751.094 172.21C750.931 172.793 750.639 173.388 750.219 173.995C749.799 174.602 749.286 175.173 748.679 175.71C748.096 176.223 747.466 176.667 746.789 177.04C746.136 177.39 745.494 177.6 744.864 177.67ZM744.269 176.13C744.363 176.13 744.526 176.083 744.759 175.99C744.993 175.873 745.179 175.78 745.319 175.71C745.413 175.617 745.529 175.512 745.669 175.395C745.833 175.255 745.961 175.173 746.054 175.15C746.148 175.15 746.264 175.115 746.404 175.045C746.544 174.952 746.743 174.777 746.999 174.52C747.256 174.24 747.594 173.832 748.014 173.295C748.481 172.782 748.843 172.315 749.099 171.895C749.356 171.452 749.426 171.043 749.309 170.67C749.286 170.577 749.216 170.518 749.099 170.495C749.006 170.472 748.878 170.413 748.714 170.32C748.481 170.32 748.259 170.262 748.049 170.145C747.863 170.005 747.641 169.83 747.384 169.62L746.824 168.92L746.229 169.515C745.856 169.888 745.459 170.448 745.039 171.195C744.643 171.918 744.304 172.665 744.024 173.435C743.744 174.182 743.581 174.777 743.534 175.22C743.511 175.57 743.569 175.803 743.709 175.92C743.849 176.037 744.036 176.107 744.269 176.13ZM755.663 177.915C755.593 177.938 755.477 177.927 755.313 177.88C755.15 177.833 754.987 177.775 754.823 177.705C754.66 177.635 754.555 177.577 754.508 177.53C754.415 177.437 754.322 177.297 754.228 177.11C754.158 176.923 754.158 176.655 754.228 176.305C754.298 175.932 754.532 175.453 754.928 174.87C755.045 174.637 755.185 174.287 755.348 173.82C755.512 173.353 755.675 172.863 755.838 172.35C756.025 171.813 756.188 171.335 756.328 170.915C756.492 170.495 756.608 170.203 756.678 170.04C756.725 169.643 756.702 169.363 756.608 169.2C756.538 169.013 756.34 168.908 756.013 168.885C755.78 168.885 755.593 168.862 755.453 168.815C755.337 168.768 755.278 168.535 755.278 168.115C755.325 167.788 755.407 167.567 755.523 167.45C755.663 167.31 755.85 167.158 756.083 166.995C756.317 166.878 756.55 166.797 756.783 166.75C757.04 166.703 757.285 166.692 757.518 166.715C757.752 166.738 757.938 166.82 758.078 166.96C758.242 167.053 758.347 167.263 758.393 167.59C758.44 167.893 758.463 168.208 758.463 168.535C758.487 168.862 758.51 169.107 758.533 169.27C758.767 169.083 759.082 168.827 759.478 168.5C759.898 168.15 760.26 167.823 760.563 167.52C760.937 167.263 761.38 167.007 761.893 166.75C762.407 166.47 762.78 166.33 763.013 166.33C763.27 166.33 763.527 166.4 763.783 166.54C764.04 166.657 764.215 166.808 764.308 166.995C764.542 167.392 764.647 167.742 764.623 168.045C764.623 168.348 764.495 168.663 764.238 168.99C764.005 169.293 763.713 169.503 763.363 169.62C763.037 169.737 762.827 169.795 762.733 169.795C762.593 169.795 762.418 169.69 762.208 169.48C761.998 169.27 761.882 169.095 761.858 168.955C761.858 168.885 761.707 168.955 761.403 169.165C761.123 169.352 760.808 169.597 760.458 169.9C760.108 170.18 759.817 170.437 759.583 170.67C759.187 171.16 758.767 171.825 758.323 172.665C757.88 173.505 757.355 174.52 756.748 175.71C756.468 176.293 756.27 176.795 756.153 177.215C756.037 177.612 755.873 177.845 755.663 177.915ZM768.591 178.16C767.681 177.787 767.086 177.273 766.806 176.62C766.549 175.943 766.502 174.905 766.666 173.505C766.712 172.782 766.736 172.303 766.736 172.07C766.736 171.837 766.607 171.603 766.351 171.37C766.281 171.277 766.152 171.148 765.966 170.985C765.802 170.822 765.732 170.682 765.756 170.565C765.732 170.402 765.744 170.227 765.791 170.04C765.837 169.83 765.907 169.725 766.001 169.725C766.094 169.725 766.187 169.702 766.281 169.655C766.397 169.608 766.502 169.608 766.596 169.655C766.689 169.655 766.794 169.667 766.911 169.69C767.027 169.713 767.086 169.772 767.086 169.865C767.179 170.028 767.331 170.052 767.541 169.935C767.751 169.795 767.972 169.492 768.206 169.025C768.439 168.652 768.742 168.278 769.116 167.905C769.512 167.532 769.897 167.193 770.271 166.89C770.667 166.563 770.994 166.33 771.251 166.19C771.367 166.143 771.542 166.085 771.776 166.015C772.009 165.945 772.254 165.887 772.511 165.84C772.791 165.793 773.024 165.782 773.211 165.805C773.631 165.828 773.981 165.945 774.261 166.155C774.564 166.365 774.844 166.61 775.101 166.89C775.404 167.1 775.591 167.38 775.661 167.73C775.754 168.08 775.777 168.453 775.731 168.85C775.684 169.247 775.579 169.608 775.416 169.935C775.346 170.168 775.147 170.448 774.821 170.775C774.494 171.102 774.121 171.417 773.701 171.72C773.281 172.023 772.896 172.245 772.546 172.385C772.242 172.455 771.846 172.513 771.356 172.56C770.889 172.607 770.446 172.63 770.026 172.63C769.629 172.607 769.361 172.56 769.221 172.49C769.057 172.397 768.929 172.525 768.836 172.875C768.742 173.225 768.672 173.727 768.626 174.38C768.579 174.893 768.579 175.267 768.626 175.5C768.672 175.733 768.719 175.897 768.766 175.99C768.929 176.153 769.151 176.363 769.431 176.62C769.734 176.853 770.154 176.888 770.691 176.725C771.134 176.608 771.566 176.305 771.986 175.815C772.429 175.325 772.837 174.928 773.211 174.625C773.304 174.462 773.456 174.368 773.666 174.345C773.899 174.298 774.144 174.31 774.401 174.38C774.657 174.543 774.762 174.742 774.716 174.975C774.692 175.185 774.576 175.512 774.366 175.955C774.296 176.118 774.132 176.328 773.876 176.585C773.642 176.818 773.374 177.063 773.071 177.32C772.791 177.553 772.534 177.74 772.301 177.88C771.601 178.253 770.947 178.452 770.341 178.475C769.734 178.475 769.151 178.37 768.591 178.16ZM770.656 171.055C771.169 170.938 771.577 170.857 771.881 170.81C772.184 170.763 772.476 170.635 772.756 170.425C773.036 170.192 773.386 169.76 773.806 169.13C773.899 168.873 773.922 168.617 773.876 168.36C773.852 168.103 773.794 167.928 773.701 167.835C773.491 167.602 773.234 167.532 772.931 167.625C772.651 167.695 772.382 167.823 772.126 168.01C771.962 168.08 771.717 168.255 771.391 168.535C771.087 168.792 770.784 169.095 770.481 169.445C770.177 169.772 769.932 170.075 769.746 170.355C769.559 170.635 769.512 170.798 769.606 170.845C769.559 170.938 769.687 170.997 769.991 171.02C770.317 171.043 770.539 171.055 770.656 171.055ZM798.676 180.82C797.602 180.423 796.774 179.805 796.191 178.965C795.631 178.102 795.327 176.9 795.281 175.36C795.257 173.797 795.502 171.802 796.016 169.375C796.179 168.558 796.412 167.625 796.716 166.575C797.019 165.525 797.369 164.452 797.766 163.355C798.186 162.235 798.617 161.162 799.061 160.135C799.527 159.085 799.982 158.163 800.426 157.37C800.962 156.413 801.371 155.818 801.651 155.585C801.954 155.328 802.222 155.223 802.456 155.27C802.899 155.387 803.214 155.608 803.401 155.935C803.611 156.238 803.681 156.577 803.611 156.95C803.564 157.3 803.342 157.603 802.946 157.86C802.689 158.163 802.351 158.723 801.931 159.54C801.534 160.333 801.126 161.103 800.706 161.85C800.239 163.203 799.831 164.405 799.481 165.455C799.131 166.482 798.839 167.45 798.606 168.36C798.372 169.27 798.162 170.227 797.976 171.23C797.766 172.21 797.602 173.015 797.486 173.645C797.392 174.275 797.322 174.8 797.276 175.22C797.252 175.617 797.241 175.967 797.241 176.27C797.241 176.573 797.241 176.888 797.241 177.215C797.427 177.518 797.579 177.787 797.696 178.02C797.812 178.253 797.964 178.393 798.151 178.44C798.547 178.627 798.991 178.673 799.481 178.58C799.994 178.487 800.496 178.3 800.986 178.02C801.102 177.787 801.254 177.623 801.441 177.53C801.627 177.437 801.721 177.39 801.721 177.39C801.767 177.507 801.814 177.542 801.861 177.495C801.931 177.425 801.977 177.343 802.001 177.25C801.977 177.157 802.001 177.075 802.071 177.005C802.141 176.912 802.222 176.818 802.316 176.725C802.502 176.655 802.771 176.422 803.121 176.025C803.494 175.605 803.867 175.138 804.241 174.625C804.637 174.112 804.964 173.645 805.221 173.225C805.501 172.805 805.641 172.548 805.641 172.455C805.641 172.338 805.687 172.233 805.781 172.14C805.874 172.047 805.979 171.93 806.096 171.79C806.212 171.673 806.446 171.3 806.796 170.67C807.169 170.017 807.566 169.258 807.986 168.395C808.429 167.532 808.826 166.738 809.176 166.015C809.246 165.758 809.374 165.35 809.561 164.79C809.747 164.207 809.946 163.542 810.156 162.795C810.389 162.048 810.611 161.302 810.821 160.555C811.031 159.785 811.217 159.108 811.381 158.525C811.567 157.918 811.684 157.475 811.731 157.195C811.777 156.892 811.847 156.647 811.941 156.46C812.034 156.25 812.092 156.098 812.116 156.005C812.232 155.958 812.372 155.97 812.536 156.04C812.699 156.11 812.862 156.192 813.026 156.285C813.212 156.378 813.376 156.46 813.516 156.53C813.656 156.717 813.714 156.95 813.691 157.23C813.667 157.51 813.586 157.942 813.446 158.525C813.329 159.085 813.154 159.902 812.921 160.975C812.431 162.888 811.836 164.65 811.136 166.26C810.459 167.87 809.724 169.573 808.931 171.37C808.931 171.37 808.931 171.382 808.931 171.405C808.931 171.405 808.931 171.463 808.931 171.58C808.651 171.743 808.429 171.988 808.266 172.315C808.149 172.525 808.044 172.712 807.951 172.875C807.881 173.015 807.787 173.12 807.671 173.19C807.601 173.4 807.531 173.587 807.461 173.75C807.391 173.913 807.356 173.995 807.356 173.995C807.332 174.112 807.251 174.217 807.111 174.31C806.971 174.403 806.831 174.497 806.691 174.59C806.574 174.637 806.504 174.73 806.481 174.87C806.457 175.01 806.411 175.127 806.341 175.22C805.827 175.99 805.244 176.748 804.591 177.495C803.937 178.242 803.261 178.883 802.561 179.42C801.884 179.98 801.231 180.377 800.601 180.61C800.181 180.773 799.831 180.867 799.551 180.89C799.294 180.913 799.002 180.89 798.676 180.82ZM814.58 178.51C813.414 178.51 812.562 178.09 812.025 177.25C811.862 177.017 811.78 176.783 811.78 176.55C811.804 176.293 811.874 176.118 811.99 176.025C812.13 175.932 812.294 176.013 812.48 176.27C812.807 176.457 813.274 176.55 813.88 176.55C814.184 176.55 814.499 176.527 814.825 176.48C815.152 176.41 815.479 176.317 815.805 176.2C816.155 176.037 816.389 175.897 816.505 175.78C816.622 175.64 816.599 175.523 816.435 175.43H816.47C815.864 175.267 815.245 175.01 814.615 174.66C814.009 174.287 813.484 173.89 813.04 173.47C812.597 173.027 812.34 172.63 812.27 172.28C812.084 171.557 812.13 170.822 812.41 170.075C812.69 169.305 813.087 168.628 813.6 168.045C813.787 167.928 814.02 167.788 814.3 167.625C814.58 167.438 814.802 167.333 814.965 167.31V167.345C815.409 166.878 815.945 166.505 816.575 166.225C817.229 165.945 817.917 165.688 818.64 165.455L819.165 165.385C819.445 165.338 819.679 165.315 819.865 165.315C819.842 165.315 819.889 165.338 820.005 165.385C820.122 165.408 820.227 165.432 820.32 165.455C820.46 165.525 820.577 165.56 820.67 165.56C820.974 165.607 821.254 165.747 821.51 165.98C821.767 166.213 821.965 166.493 822.105 166.82C822.269 167.123 822.327 167.415 822.28 167.695C822.234 168.138 822.094 168.535 821.86 168.885C821.65 169.235 821.394 169.433 821.09 169.48C821.137 169.457 821.102 169.422 820.985 169.375C820.892 169.305 820.787 169.235 820.67 169.165L820.565 169.235C820.565 169.235 820.554 169.212 820.53 169.165C820.53 169.095 820.507 169.013 820.46 168.92C820.39 168.78 820.355 168.628 820.355 168.465C820.355 168.278 820.367 168.08 820.39 167.87C820.437 167.613 820.437 167.462 820.39 167.415C820.367 167.368 820.215 167.333 819.935 167.31C819.609 167.24 819.13 167.298 818.5 167.485C817.894 167.672 817.38 167.928 816.96 168.255C816.447 168.582 816.015 168.897 815.665 169.2C815.315 169.48 815.035 169.76 814.825 170.04C814.615 170.297 814.429 170.6 814.265 170.95C814.149 171.113 814.044 171.277 813.95 171.44C813.88 171.58 813.845 171.708 813.845 171.825C813.845 172.082 814.032 172.35 814.405 172.63C814.802 172.887 815.385 173.19 816.155 173.54C816.762 173.797 817.275 174.077 817.695 174.38C818.115 174.683 818.407 175.033 818.57 175.43C818.617 175.523 818.629 175.64 818.605 175.78C818.605 175.897 818.582 175.978 818.535 176.025C818.582 176.072 818.605 176.107 818.605 176.13V176.095C818.792 176.375 818.792 176.667 818.605 176.97C818.442 177.273 818.15 177.542 817.73 177.775C817.334 177.985 816.844 178.148 816.26 178.265H816.295C815.992 178.358 815.689 178.428 815.385 178.475C815.105 178.498 814.837 178.51 814.58 178.51ZM829.449 177.775C828.959 178.195 828.387 178.44 827.734 178.51C827.104 178.58 826.486 178.487 825.879 178.23C825.272 177.95 824.771 177.53 824.374 176.97C823.977 176.457 823.721 175.873 823.604 175.22C823.487 174.543 823.476 173.668 823.569 172.595C823.639 171.685 823.931 170.775 824.444 169.865C824.957 168.932 825.576 168.103 826.299 167.38C827.046 166.657 827.781 166.155 828.504 165.875C828.854 165.642 829.146 165.537 829.379 165.56C829.636 165.56 830.021 165.583 830.534 165.63C831.071 165.7 831.467 165.805 831.724 165.945C832.004 166.085 832.226 166.272 832.389 166.505C832.739 166.855 832.972 167.205 833.089 167.555C833.206 167.882 833.264 168.208 833.264 168.535C833.171 169.048 832.821 169.678 832.214 170.425C831.631 171.148 830.861 171.743 829.904 172.21C829.391 172.373 828.831 172.443 828.224 172.42C827.617 172.397 827.116 172.245 826.719 171.965C826.276 171.778 825.984 171.813 825.844 172.07C825.704 172.303 825.576 172.887 825.459 173.82C825.366 174.707 825.436 175.36 825.669 175.78C825.902 176.177 826.217 176.41 826.614 176.48C827.081 176.573 827.442 176.643 827.699 176.69C827.979 176.713 828.317 176.608 828.714 176.375C829.087 176.142 829.321 176.013 829.414 175.99C829.507 175.943 829.577 175.897 829.624 175.85C829.694 175.78 829.846 175.628 830.079 175.395C830.242 175.232 830.371 175.115 830.464 175.045C830.557 174.952 830.662 174.905 830.779 174.905C830.896 174.905 831.001 174.963 831.094 175.08C831.187 175.173 831.281 175.243 831.374 175.29C831.607 175.29 831.654 175.43 831.514 175.71C831.397 175.99 831.152 176.328 830.779 176.725C830.406 177.098 829.962 177.448 829.449 177.775ZM829.414 170.355C829.671 170.238 829.939 170.075 830.219 169.865C830.499 169.632 830.732 169.387 830.919 169.13C831.129 168.85 831.234 168.617 831.234 168.43C831.234 168.103 831.082 167.835 830.779 167.625C830.476 167.392 830.021 167.357 829.414 167.52C829.157 167.59 828.866 167.765 828.539 168.045C828.212 168.302 827.897 168.593 827.594 168.92C827.314 169.247 827.081 169.538 826.894 169.795C826.731 170.052 826.672 170.203 826.719 170.25C826.789 170.367 826.987 170.46 827.314 170.53C827.641 170.577 828.002 170.588 828.399 170.565C828.819 170.542 829.157 170.472 829.414 170.355ZM835.336 177.775C835.126 177.612 834.974 177.448 834.881 177.285C834.811 177.122 834.811 176.807 834.881 176.34C834.951 175.687 835.044 175.115 835.161 174.625C835.278 174.112 835.418 173.528 835.581 172.875C835.628 172.595 835.756 172.117 835.966 171.44C836.199 170.763 836.479 170.028 836.806 169.235C837.133 168.442 837.459 167.695 837.786 166.995C838.113 166.272 838.393 165.735 838.626 165.385C838.813 165.245 839.034 165.187 839.291 165.21C839.571 165.233 839.804 165.338 839.991 165.525C840.248 165.735 840.283 166.108 840.096 166.645C839.933 167.158 839.583 167.975 839.046 169.095C838.766 169.725 838.556 170.203 838.416 170.53C838.276 170.833 838.218 171.02 838.241 171.09C838.264 171.137 838.369 171.102 838.556 170.985C838.696 170.728 838.953 170.437 839.326 170.11C839.699 169.76 840.096 169.422 840.516 169.095C840.936 168.768 841.333 168.477 841.706 168.22C842.079 167.963 842.336 167.8 842.476 167.73C842.663 167.613 842.873 167.52 843.106 167.45C843.363 167.357 843.538 167.287 843.631 167.24C844.168 166.983 844.716 166.89 845.276 166.96C845.836 167.03 846.186 167.24 846.326 167.59C846.349 167.777 846.419 167.917 846.536 168.01C846.676 168.103 846.746 168.15 846.746 168.15C846.839 168.15 846.886 168.185 846.886 168.255C846.909 168.325 846.921 168.36 846.921 168.36C846.921 168.523 846.793 168.628 846.536 168.675C846.303 168.698 845.999 168.722 845.626 168.745C845.323 168.768 845.054 168.827 844.821 168.92C844.588 169.013 844.308 169.13 843.981 169.27C843.094 169.783 842.243 170.285 841.426 170.775C840.633 171.265 839.863 171.918 839.116 172.735C838.953 172.922 838.789 173.143 838.626 173.4C838.463 173.657 838.288 173.937 838.101 174.24C837.984 174.357 837.868 174.613 837.751 175.01C837.634 175.407 837.529 175.792 837.436 176.165C837.366 176.515 837.331 176.725 837.331 176.795C837.331 176.795 837.296 176.912 837.226 177.145C837.156 177.355 837.039 177.565 836.876 177.775C836.596 178.148 836.363 178.335 836.176 178.335C835.989 178.335 835.709 178.148 835.336 177.775Z" fill="#40AEFF"/>
<circle cx="579.5" cy="146.5" r="39.5" fill="#3F2119"/>
<path d="M588.945 150.935C588.945 156.885 585.165 160.525 579.04 160.525C572.915 160.525 569.135 156.885 569.135 150.935V136.2H573.86V150.935C573.86 154.54 575.785 156.71 579.04 156.71C582.33 156.71 584.255 154.54 584.255 150.935V136.2H588.945V150.935Z" fill="white"/>
</g>
<defs>
<linearGradient id="paint0_linear_1980_8536" x1="1448.5" y1="51.4996" x2="1095.55" y2="327.574" gradientUnits="userSpaceOnUse">
<stop stop-color="#3C5DC7"/>
<stop offset="0.119641" stop-color="#5B21FF"/>
<stop offset="0.288809" stop-color="#AA3FFF"/>
<stop offset="0.531073" stop-color="#E54190"/>
<stop offset="0.639675" stop-color="#F8522E"/>
<stop offset="0.921468" stop-color="white"/>
</linearGradient>
<linearGradient id="paint1_linear_1980_8536" x1="6" y1="86.5" x2="364.317" y2="295.312" gradientUnits="userSpaceOnUse">
<stop stop-color="#0742FE"/>
<stop offset="0.119641" stop-color="#5B21FF"/>
<stop offset="0.288809" stop-color="#AA3FFF"/>
<stop offset="0.453092" stop-color="#E54190"/>
<stop offset="0.639675" stop-color="#F8522E"/>
<stop offset="0.826875" stop-color="white"/>
</linearGradient>
<clipPath id="clip0_1980_8536">
<rect width="1737" height="560" fill="white" transform="translate(-150)"/>
</clipPath>
<clipPath id="clip1_1980_8536">
<rect width="811" height="312" fill="white" transform="translate(340 107)"/>
</clipPath>
</defs>
</svg>
