<svg width="134" height="102" viewBox="0 0 134 102" fill="none" xmlns="http://www.w3.org/2000/svg">
<circle cx="52" cy="33" r="30" fill="#FDC500"/>
<circle cx="80" cy="62" r="39" fill="#FDC500"/>
<circle cx="28" cy="69" r="21" fill="#FDC500"/>
<path d="M34.3421 55.341C34.4957 55.4966 34.6047 55.6232 34.6692 55.7208C34.7336 55.8184 34.7698 55.9137 34.7776 56.0067C34.7871 56.1183 34.7237 56.2548 34.5874 56.4162C34.4605 56.5768 34.3273 56.6629 34.1878 56.6747C34.0018 56.6904 33.8506 56.6751 33.7343 56.6287C33.618 56.5824 33.5175 56.5019 33.4329 56.3873C33.2652 56.1766 33.0678 56.0013 32.8405 55.8612C32.6125 55.7119 32.2706 55.6565 31.8149 55.695C31.4243 55.728 30.9853 55.8541 30.498 56.0732C30.0201 56.2915 29.6851 56.5399 29.4932 56.8184C29.3268 57.0666 29.1939 57.4338 29.0945 57.9199C29.0044 58.4052 28.9782 58.8711 29.0159 59.3175C29.0614 59.8569 29.2197 60.3446 29.4907 60.7807C29.7702 61.2067 30.1446 61.5357 30.6138 61.7676C31.0923 61.9989 31.6477 62.0878 32.2802 62.0343C32.6243 62.0053 32.9722 61.9103 33.3239 61.7495C33.6841 61.5785 33.9861 61.3282 34.2299 60.9985L34.2159 60.9997C34.3684 60.8089 34.5702 60.7028 34.8213 60.6816C34.9701 60.6691 35.1151 60.7224 35.2563 60.8416C35.4068 60.96 35.4876 61.0843 35.4986 61.2145C35.5104 61.354 35.4977 61.4815 35.4606 61.5971C35.4321 61.7025 35.3675 61.825 35.2669 61.9647C34.9217 62.4247 34.4954 62.7557 33.988 62.9578C33.4805 63.1599 32.8641 63.2916 32.1386 63.3529C31.4969 63.4071 30.833 63.3087 30.1467 63.0575C29.4698 62.8056 28.9361 62.476 28.5458 62.0688C28.337 61.8148 28.1231 61.4442 27.9039 60.9569C27.6933 60.4595 27.5746 60.0527 27.5479 59.7365C27.4796 58.9274 27.5357 58.1499 27.7162 57.4041C27.9052 56.6481 28.2277 56.0308 28.6837 55.5521C28.9841 55.227 29.4349 54.9641 30.0362 54.7634C30.6374 54.5628 31.1938 54.4408 31.7053 54.3976C32.3284 54.345 32.8241 54.3921 33.1925 54.5389C33.5693 54.6757 33.9525 54.9431 34.3421 55.341ZM41.7545 58.0025C41.8399 58.1264 41.9164 58.312 41.9842 58.5591C42.0511 58.797 42.0928 59.0136 42.1093 59.2089C42.1399 59.5716 42.1045 60.0945 42.003 60.7774C41.4602 62.0035 40.5611 62.6695 39.3056 62.7756C38.8406 62.8149 38.3533 62.7015 37.8438 62.4354C37.3342 62.1694 36.9696 61.8442 36.7498 61.4601C36.4311 60.6814 36.2627 60.1852 36.2447 59.9713C36.2132 59.5993 36.2589 59.1973 36.3816 58.7655C36.5137 58.3328 36.6923 57.9524 36.9175 57.6243C37.0575 57.3971 37.3259 57.1917 37.7225 57.0084C38.1183 56.8157 38.4837 56.7052 38.8185 56.6769C39.4695 56.6219 40.0335 56.7008 40.5104 56.9134C40.9865 57.1167 41.4012 57.4797 41.7545 58.0025ZM40.7305 60.351C40.7668 60.2262 40.7638 59.9127 40.7213 59.4105C40.6986 59.1408 40.625 58.88 40.5007 58.6283C40.3857 58.3757 40.2274 58.1643 40.0256 57.994C40.0055 57.977 39.952 57.9534 39.8651 57.9233C39.7775 57.8838 39.6577 57.8518 39.5057 57.8272C39.3623 57.7925 39.1976 57.783 39.0116 57.7987C38.4908 57.8427 38.1272 58.0841 37.9207 58.5231C37.7143 58.962 37.6334 59.4465 37.6782 59.9766C37.6861 60.0696 37.7242 60.2444 37.7927 60.5009C37.8705 60.7565 37.9308 60.9154 37.9735 60.9773C38.0069 61.0401 38.0845 61.1272 38.2063 61.2387C38.3366 61.3401 38.4894 61.4302 38.6647 61.509C38.8485 61.5778 39.0334 61.6043 39.2194 61.5886C39.6379 61.5533 39.9644 61.4273 40.199 61.2108C40.4329 60.985 40.61 60.6984 40.7305 60.351ZM52.2295 61.1359C52.068 60.8873 51.9553 60.6064 51.8914 60.2933C51.8267 59.971 51.7704 59.5261 51.7224 58.9588C51.6769 58.4194 51.5628 57.956 51.3802 57.5687C51.1976 57.1814 50.8738 57.0073 50.4088 57.0466C50.2321 57.0615 50.0601 57.1323 49.8928 57.2588C49.7341 57.3753 49.6195 57.5161 49.5492 57.6812C49.4402 57.9433 49.375 58.2252 49.3536 58.5267C49.3315 58.8189 49.3365 59.1557 49.3687 59.537C49.3892 59.7788 49.4239 60.0241 49.4731 60.2728C49.4793 60.3472 49.4942 60.4678 49.5176 60.6344C49.5496 60.7909 49.5711 60.9343 49.5821 61.0645C49.6292 61.6225 49.4575 61.918 49.0669 61.951C48.5554 61.9942 48.2629 61.7473 48.1894 61.2102C48.1572 60.8289 48.1446 60.6239 48.1515 60.5952L48.1008 59.9954C48.0725 59.6606 48.0311 59.3362 47.9765 59.0224C47.9219 58.7085 47.8693 58.4741 47.8187 58.3192C47.7091 58.0193 47.5775 57.7916 47.4238 57.636C47.2795 57.4796 47.0631 57.4135 46.7748 57.4379C46.3656 57.4725 46.0504 57.6771 45.8292 58.0517C45.676 58.3456 45.5884 58.6949 45.5664 59.0995C45.5538 59.6157 45.5462 60.0238 45.5434 60.3238C45.5492 60.6137 45.5681 60.9493 45.6003 61.3306C45.6231 61.6003 45.5951 61.8228 45.5162 61.998C45.4467 62.1725 45.291 62.27 45.0492 62.2904C44.8725 62.3053 44.6825 62.2745 44.4794 62.198C44.2847 62.1114 44.1803 61.9844 44.1662 61.817C44.1513 61.6403 44.1549 61.4621 44.1772 61.2822C44.2161 60.745 44.1779 59.7929 44.0624 58.4257C44.0435 58.2025 43.9696 57.9933 43.8408 57.7982C43.7204 57.5929 43.5858 57.4966 43.437 57.5091C43.3998 57.5123 43.3316 57.5368 43.2325 57.5826C43.1426 57.6277 43.0744 57.6522 43.0279 57.6561C42.907 57.6663 42.7907 57.6199 42.679 57.517C42.5765 57.4132 42.5222 57.3241 42.5159 57.2497C42.4962 57.0172 42.5914 56.8125 42.8012 56.6355C43.0196 56.4485 43.2543 56.3444 43.5054 56.3232C43.8495 56.2941 44.1515 56.3763 44.4114 56.5698C44.6713 56.7632 44.8824 57.0451 45.0448 57.4155C45.2273 57.0254 45.4905 56.7034 45.8343 56.4496C46.1774 56.1864 46.5721 56.036 47.0185 55.9983C47.2975 55.9747 47.5239 55.9931 47.6976 56.0533C47.8798 56.1035 48.0322 56.189 48.1548 56.3097C48.2766 56.4212 48.4365 56.595 48.6344 56.8312C48.8417 56.514 49.1197 56.2563 49.4683 56.0583C49.8261 55.8595 50.2004 55.7435 50.591 55.7105C51.056 55.6713 51.4906 55.8266 51.8948 56.1764C52.2983 56.517 52.5859 56.9283 52.7577 57.4102C52.8441 57.6558 52.9175 58.1367 52.978 58.8528L53.1021 59.6572C53.1895 60.1369 53.3723 60.4165 53.6507 60.496C53.9747 60.5623 54.1411 60.6466 54.1497 60.7489C54.1686 60.9721 54.1265 61.1395 54.0236 61.2513C53.9446 61.3141 53.8334 61.3844 53.6901 61.4621C53.5468 61.5398 53.4333 61.5821 53.3496 61.5892C52.8474 61.6316 52.474 61.4805 52.2295 61.1359ZM54.8737 52.3842C55.2015 52.3846 55.4927 52.449 55.747 52.5774C56.0006 52.6965 56.1396 52.9002 56.1639 53.1885C56.182 53.4024 56.0943 53.5831 55.9006 53.7306C55.7156 53.868 55.4835 53.9485 55.2045 53.972C54.9348 53.9948 54.7429 53.9408 54.6288 53.8099C54.5147 53.679 54.4514 53.5392 54.4388 53.3904C54.4153 53.1114 54.4235 52.8765 54.4636 52.6858C54.513 52.4943 54.6497 52.3938 54.8737 52.3842ZM56.5118 58.4699L56.5459 58.8745C56.5766 59.2372 56.6149 59.5805 56.661 59.9045C56.7157 60.2183 56.7753 60.5364 56.84 60.8588C56.8494 60.9704 56.793 61.0782 56.6706 61.1822C56.5475 61.2769 56.4301 61.329 56.3185 61.3384C56.1418 61.3533 55.9577 61.3361 55.7662 61.2867C55.5832 61.2272 55.4688 61.1479 55.423 61.0488C55.342 60.7559 55.2917 60.4932 55.2721 60.2607C55.2077 59.498 55.1121 58.6444 54.9855 57.6997C54.8776 56.8658 54.8095 56.2815 54.7812 55.9467C54.7671 55.7793 54.8386 55.628 54.9958 55.493C55.153 55.3579 55.3246 55.2826 55.5106 55.2669C55.7803 55.2441 55.9714 55.2888 56.0839 55.4011C56.2057 55.5125 56.2776 55.6985 56.2996 55.9589L56.5118 58.4699ZM57.6827 56.2214C57.6036 56.1719 57.5384 56.1212 57.4872 56.0693C57.4352 56.0081 57.4025 55.8985 57.3891 55.7404C57.3742 55.5637 57.4233 55.4237 57.5363 55.3205C57.6579 55.2072 57.8024 55.1435 57.9698 55.1294C58.2953 55.1019 58.5813 55.162 58.828 55.3098C59.0839 55.4567 59.2803 55.6743 59.417 55.9625C59.5894 55.5639 59.8278 55.2815 60.1323 55.1153C60.4359 54.9398 60.8667 54.8284 61.4247 54.7813C61.6479 54.7624 61.8817 54.8129 62.126 54.9328C62.3788 55.0426 62.6111 55.1869 62.8229 55.3657C62.9983 55.5569 63.1547 55.8013 63.2923 56.0988C63.429 56.387 63.5076 56.6519 63.528 56.8938C63.5398 57.0333 63.5497 57.2619 63.5579 57.5797C63.5675 57.9161 63.5806 58.1819 63.5971 58.3772C63.6521 59.0282 63.8115 59.4175 64.0751 59.5451C64.1139 59.5606 64.1856 59.5779 64.2903 59.5972C64.3949 59.6164 64.4717 59.6381 64.5206 59.662C64.5787 59.6852 64.6102 59.7247 64.6149 59.7805C64.643 60.0029 64.575 60.196 64.4109 60.3597C64.2553 60.5134 64.0566 60.6004 63.8148 60.6208C63.4521 60.6515 63.1601 60.5778 62.939 60.3998C62.7179 60.2218 62.5486 59.9363 62.4312 59.5435C62.3721 59.3986 62.3304 59.182 62.306 58.8937C62.2927 58.7356 62.2804 58.4791 62.2691 58.1241C62.2734 57.8427 62.2622 57.5439 62.2355 57.2277C62.208 56.9022 62.0911 56.6264 61.8846 56.4003C61.6774 56.1649 61.4111 56.061 61.0856 56.0885C60.8903 56.105 60.6908 56.1827 60.4871 56.3217C60.2826 56.4514 60.1456 56.6034 60.076 56.7779C59.9609 57.078 59.8926 57.3788 59.8712 57.6804C59.8084 58.2664 59.7993 58.8245 59.8441 59.3546C59.8551 59.4848 59.8856 59.7351 59.9356 60.1055C59.938 60.1334 59.9439 60.2032 59.9533 60.3148C59.9619 60.4171 59.9562 60.5159 59.9362 60.6113C59.9254 60.7059 59.8953 60.7927 59.8458 60.8718C59.8117 60.9122 59.7451 60.9553 59.646 61.0011C59.5468 61.0469 59.46 61.073 59.3856 61.0793C59.2554 61.0903 59.088 61.0482 58.8832 60.9531C58.6785 60.858 58.5516 60.7423 58.5027 60.6059L58.4722 60.4118C58.4659 60.3374 58.4658 60.225 58.4718 60.0747C58.5284 59.4142 58.5363 58.8422 58.4955 58.3586C58.4774 58.1447 58.459 57.9823 58.4403 57.8715L58.3721 57.231C58.3556 57.0356 58.2841 56.8544 58.1576 56.6871C58.0302 56.5105 57.8719 56.3553 57.6827 56.2214ZM66.397 60.2201C66.3201 60.086 66.2738 59.926 66.2581 59.74C66.2432 59.5633 66.351 59.2873 66.5816 58.9119C66.1226 58.8008 65.7468 58.5656 65.4542 58.2063C65.1709 57.8462 65.0076 57.4104 64.9644 56.8989C64.9361 56.5641 64.9896 56.2551 65.1249 55.9721C65.2595 55.6797 65.4556 55.3962 65.7134 55.1215C66.1516 54.6536 66.7892 54.3843 67.6262 54.3136C67.961 54.2853 68.3812 54.3248 68.8866 54.4319C69.4301 53.8802 69.9251 53.5855 70.3715 53.5478C70.6505 53.5242 70.8552 53.5632 70.9855 53.6645C71.1243 53.7558 71.2048 53.9317 71.2268 54.1921C71.2354 54.2944 71.2018 54.3956 71.126 54.4957C71.0586 54.5857 70.9645 54.6358 70.8436 54.646L70.3402 54.6744C70.024 54.7012 69.8013 54.7809 69.672 54.9135C69.8667 55.1125 70.0341 55.3747 70.174 55.7001C70.3231 56.0247 70.4158 56.4009 70.452 56.8287C70.4999 57.396 70.154 57.9591 69.4145 58.518C68.9529 58.8193 68.4016 59.0017 67.7607 59.0652C67.6925 59.1459 67.6333 59.2211 67.583 59.2909C67.5412 59.3507 67.5219 59.3991 67.5251 59.4363C67.5337 59.5386 67.6287 59.6102 67.8102 59.6511C67.9916 59.692 68.2648 59.711 68.6299 59.7083C68.9012 59.7041 69.2085 59.739 69.552 59.813C69.9039 59.877 70.1827 59.9611 70.3882 60.0655C70.6449 60.2218 70.8284 60.3983 70.9387 60.5951C71.0583 60.791 71.1311 61.0425 71.157 61.3494C71.1908 61.7493 71.0331 62.0998 70.6838 62.4009C70.3447 62.7106 69.9342 62.9513 69.4523 63.1232C68.9703 63.295 68.5434 63.3967 68.1714 63.4281C67.725 63.4658 67.3389 63.4422 67.0133 63.3573C66.6978 63.2809 66.3926 63.1615 66.0979 62.9991C65.8908 62.8761 65.7224 62.7124 65.5928 62.5079C65.4631 62.3034 65.3884 62.0849 65.3688 61.8524C65.3531 61.6664 65.4714 61.4035 65.7237 61.0637C65.9853 60.7232 66.2458 60.481 66.5053 60.3374C66.475 60.3118 66.4389 60.2727 66.397 60.2201ZM67.6222 57.9248C68.0593 57.8879 68.4168 57.7406 68.6948 57.4829C68.972 57.216 69.0929 56.8732 69.0575 56.4547C69.0292 56.1199 68.9092 55.8631 68.6974 55.6843C68.4848 55.4962 68.2018 55.4171 67.8484 55.4469C67.1137 55.509 66.6485 55.7122 66.4528 56.0566C66.4032 56.1357 66.3596 56.2846 66.3219 56.5032C66.2834 56.7125 66.2688 56.873 66.2783 56.9846C66.2916 57.1427 66.3612 57.3007 66.4869 57.4587C66.6212 57.6066 66.7907 57.7281 66.9954 57.8232C67.1993 57.909 67.4083 57.9428 67.6222 57.9248ZM66.6884 61.8393C66.7017 61.9974 66.8573 62.1201 67.155 62.2073C67.4628 62.3031 67.7841 62.3368 68.1189 62.3085C68.491 62.2771 68.8664 62.1751 69.2452 62.0026C69.6341 61.8386 69.8191 61.6451 69.8003 61.4218C69.7728 61.0963 69.4668 60.9114 68.8823 60.8671C68.2405 60.809 67.7343 60.7487 67.3637 60.6863C67.3375 60.8197 67.2261 60.9977 67.0295 61.2204C66.9018 61.3717 66.8085 61.4872 66.7497 61.5671C66.7009 61.6556 66.6805 61.7463 66.6884 61.8393ZM81.4115 56.6194C81.4484 57.0565 81.3779 57.4418 81.2 57.7753C81.0307 58.0987 80.7291 58.4099 80.2954 58.7088C80.0042 58.9207 79.6579 59.0905 79.2566 59.218C78.8552 59.3456 78.4453 59.4271 78.0268 59.4624C77.599 59.4986 77.0571 59.4038 76.4011 59.1782C75.9265 58.9935 75.5414 58.7591 75.2458 58.475C74.9595 58.1901 74.801 57.8663 74.7704 57.5036C74.7491 57.2525 74.7896 57.0664 74.8918 56.9454C74.9932 56.815 75.1694 56.7393 75.4205 56.7181C75.5507 56.7071 75.6903 56.7515 75.8392 56.8513C75.9874 56.9418 76.0797 57.037 76.1163 57.137C76.2787 57.5073 76.5313 57.781 76.8741 57.9581C77.2161 58.1259 77.6289 58.1894 78.1125 58.1485C78.6705 58.1014 79.1269 57.9598 79.4816 57.7238C79.8456 57.487 80.0131 57.1965 79.984 56.8524C79.9558 56.5176 79.726 56.2373 79.2948 56.0114C78.8636 55.7856 78.4298 55.6396 77.9933 55.5734C77.3654 55.4579 76.8044 55.3039 76.3105 55.1114C75.7971 54.9113 75.4046 54.6447 75.133 54.3117C74.8613 53.9787 74.709 53.6169 74.676 53.2263C74.6453 52.8636 74.7399 52.4857 74.9595 52.0924C75.1784 51.6899 75.4529 51.3904 75.7828 51.194C75.961 51.0852 76.2689 50.9609 76.7067 50.8209C77.153 50.6708 77.4784 50.5871 77.683 50.5698C77.9527 50.547 78.2531 50.5544 78.5841 50.592C78.9151 50.6296 79.188 50.7002 79.4028 50.8039C79.8317 51.0018 80.1516 51.1855 80.3626 51.355C80.5737 51.5245 80.691 51.7488 80.7145 52.0278C80.7287 52.1952 80.6761 52.3495 80.5569 52.4907C80.447 52.6311 80.2386 52.7143 79.9317 52.7402C79.8573 52.7465 79.7802 52.7202 79.7003 52.6614C79.6204 52.6026 79.5191 52.5128 79.3965 52.392C79.2312 52.2093 79.076 52.0913 78.931 52.0379C78.7876 52.0032 78.5787 51.9694 78.3043 51.9363C78.0391 51.9025 77.8043 51.8943 77.5997 51.9116C77.3765 51.9304 77.1479 51.9966 76.914 52.11C76.68 52.2234 76.4868 52.3756 76.3343 52.5664C76.1904 52.7472 76.1278 52.9491 76.1467 53.1724C76.1624 53.3584 76.2598 53.514 76.439 53.6394C76.6267 53.7547 76.845 53.844 77.0939 53.9072C77.3823 53.9953 77.6928 54.0674 78.0254 54.1236C78.4642 54.2176 78.8232 54.3091 79.1023 54.3979C79.39 54.4766 79.6707 54.5841 79.9444 54.7202C80.4229 54.9514 80.7766 55.2025 81.0056 55.4735C81.2338 55.7352 81.3691 56.1172 81.4115 56.6194ZM87.7686 54.1154C87.854 54.2393 87.9306 54.4249 87.9983 54.672C88.0652 54.9099 88.1069 55.1265 88.1234 55.3218C88.1454 55.5822 88.1311 55.9113 88.0804 56.3089C88.0289 56.6973 87.9807 56.959 87.9359 57.0939C87.5217 58.1779 86.5985 58.7805 85.1662 58.9014C84.7105 58.9399 84.2516 58.8289 83.7893 58.5682C83.3263 58.2982 82.9845 57.9665 82.7639 57.573L82.6427 57.3022C82.6302 57.2658 82.5673 57.1306 82.4539 56.8967C82.3489 56.6526 82.291 56.4655 82.28 56.3353C82.2478 55.954 82.3035 55.5044 82.447 54.9864C82.5906 54.4685 82.7707 54.0505 82.9874 53.7325C83.1274 53.5052 83.4144 53.2984 83.8482 53.1118C84.2813 52.916 84.6699 52.8036 85.014 52.7745C85.6557 52.7203 86.1821 52.7976 86.5931 53.0064C87.0134 53.2144 87.4053 53.5841 87.7686 54.1154ZM86.6749 56.4698C86.7066 56.4016 86.7293 56.2826 86.7431 56.1128C86.7569 55.9431 86.7543 55.7466 86.7355 55.5234C86.7127 55.2537 86.6391 54.9929 86.5148 54.7412C86.3998 54.4886 86.2415 54.2772 86.0398 54.1069C86.0289 54.0891 85.994 54.0639 85.935 54.0314C85.8753 53.9897 85.7834 53.9553 85.6594 53.9283C85.5345 53.892 85.3791 53.8817 85.1931 53.8974C84.8304 53.9281 84.5325 54.0609 84.2995 54.2961C84.0665 54.5312 83.8982 54.8123 83.7947 55.1395C83.7005 55.466 83.6664 55.7826 83.6923 56.0895C83.6994 56.1732 83.7418 56.3429 83.8196 56.5986C83.8974 56.8543 83.9534 57.0182 83.9876 57.0902C84.073 57.2142 84.2301 57.3554 84.459 57.5141C84.687 57.6634 84.9359 57.7267 85.2056 57.7039C85.6241 57.6685 85.9413 57.5434 86.1574 57.3284C86.3827 57.1127 86.5552 56.8265 86.6749 56.4698ZM94.6016 53.5382C94.687 53.6621 94.7636 53.8476 94.8313 54.0948C94.8982 54.3327 94.94 54.5493 94.9565 54.7446C94.9871 55.1073 94.9517 55.6301 94.8501 56.3131C94.3074 57.5391 93.4083 58.2052 92.1527 58.3113C91.6877 58.3505 91.2005 58.2372 90.6909 57.9711C90.1814 57.705 89.8167 57.3799 89.5969 56.9957C89.2783 56.2171 89.1099 55.7209 89.0918 55.507C89.0604 55.135 89.1061 54.733 89.2288 54.3011C89.3609 53.8685 89.5395 53.4881 89.7646 53.16C89.9047 52.9327 90.173 52.7274 90.5697 52.544C90.9655 52.3514 91.3308 52.2409 91.6656 52.2126C92.3167 52.1576 92.8806 52.2364 93.3576 52.449C93.8337 52.6523 94.2484 53.0154 94.6016 53.5382ZM93.5777 55.8867C93.614 55.7619 93.6109 55.4484 93.5685 54.9461C93.5457 54.6764 93.4722 54.4157 93.3479 54.1639C93.2329 53.9114 93.0745 53.7 92.8728 53.5297C92.8526 53.5126 92.7991 53.4891 92.7123 53.4589C92.6246 53.4195 92.5049 53.3875 92.3529 53.3628C92.2095 53.3281 92.0448 53.3186 91.8588 53.3343C91.3379 53.3783 90.9743 53.6198 90.7679 54.0587C90.5614 54.4977 90.4806 54.9822 90.5254 55.5123C90.5332 55.6053 90.5714 55.7801 90.6399 56.0365C90.7177 56.2922 90.7779 56.451 90.8206 56.513C90.854 56.5757 90.9316 56.6629 91.0535 56.7743C91.1838 56.8757 91.3366 56.9658 91.5118 57.0447C91.6956 57.1135 91.8805 57.14 92.0665 57.1243C92.485 57.0889 92.8116 56.963 93.0462 56.7465C93.28 56.5207 93.4572 56.2341 93.5777 55.8867ZM102.586 56.2919C102.634 56.3065 102.71 56.3235 102.815 56.3428C102.92 56.362 102.996 56.3836 103.045 56.4076C103.094 56.4316 103.121 56.4715 103.126 56.5273C103.154 56.7497 103.086 56.9428 102.922 57.1065C102.766 57.2601 102.572 57.3468 102.339 57.3664C101.977 57.3971 101.685 57.3234 101.464 57.1454C101.243 56.9673 101.069 56.6823 100.942 56.2902C100.891 56.1353 100.854 55.9183 100.831 55.6393C100.817 55.4812 100.805 55.2246 100.794 54.8697C100.781 54.4961 100.765 54.1977 100.746 53.9745C100.719 53.649 100.602 53.3732 100.395 53.1471C100.197 52.9109 99.9357 52.8066 99.6102 52.8341C99.4149 52.8506 99.2154 52.9283 99.0117 53.0673C98.8072 53.197 98.6702 53.349 98.6007 53.5235C98.4839 53.805 98.411 54.1062 98.382 54.4271C98.3268 54.9938 98.3247 55.5794 98.3758 56.1839C98.4002 56.4722 98.4237 56.695 98.4463 56.8523C98.4495 56.8895 98.4558 56.9639 98.4652 57.0755C98.4831 57.177 98.4821 57.2755 98.462 57.3708C98.4505 57.4561 98.42 57.5383 98.3705 57.6174C98.3279 57.6678 98.2566 57.7113 98.1567 57.7479C98.0668 57.7929 97.98 57.819 97.8963 57.8261C97.7661 57.8371 97.5987 57.795 97.3939 57.6999C97.1892 57.6048 97.067 57.4887 97.0273 57.3515L96.9933 57.1155C96.9863 57.0318 96.9873 56.9334 96.9965 56.8202C97.0531 56.1598 97.061 55.5878 97.0201 55.1042C97.002 54.8903 96.9832 54.7232 96.9637 54.6031L96.8944 53.9486C96.8755 53.7254 96.8017 53.5162 96.6728 53.3211C96.5431 53.1166 96.4039 53.0206 96.2551 53.0332C96.2086 53.0371 96.145 53.0612 96.0645 53.1055C95.9831 53.1405 95.9146 53.1603 95.8588 53.165C95.7658 53.1729 95.6595 53.135 95.5401 53.0515C95.4299 52.9671 95.3705 52.8738 95.3619 52.7715C95.3454 52.5762 95.3971 52.4126 95.5171 52.2807C95.6472 52.1573 95.7746 52.0575 95.8993 51.9814C96.0333 51.9045 96.1886 51.8586 96.3653 51.8437C96.5141 51.8311 96.6362 51.8349 96.7316 51.8549C96.8269 51.875 96.9576 51.9248 97.1236 52.0044C97.2112 52.0439 97.3175 52.1379 97.4424 52.2866C97.5674 52.4353 97.6793 52.6506 97.778 52.9327C97.9821 52.4658 98.2534 52.1291 98.5919 51.9226C98.9389 51.7059 99.3914 51.574 99.9494 51.5269C100.163 51.5088 100.397 51.5593 100.651 51.6784C100.914 51.7967 101.141 51.9414 101.334 52.1124C101.518 52.3029 101.679 52.5469 101.817 52.8444C101.954 53.1325 102.032 53.3975 102.053 53.6393C102.064 53.7788 102.074 54.0075 102.083 54.3253C102.076 54.5787 102.084 54.845 102.108 55.124C102.163 55.775 102.322 56.1643 102.586 56.2919ZM104.984 49.0222C105.027 49.5244 105.061 50.2614 105.087 51.2334C105.11 52.1681 105.142 52.8819 105.184 53.3749C105.195 53.5051 105.227 53.774 105.28 54.1816C105.284 54.3405 105.238 54.4661 105.143 54.5585C105.047 54.6415 104.929 54.6889 104.79 54.7007C104.641 54.7133 104.503 54.6875 104.376 54.6233C104.249 54.5591 104.166 54.4677 104.128 54.3492C103.952 53.596 103.819 52.6893 103.729 51.6291L103.56 49.4516C103.53 49.1075 103.549 48.825 103.614 48.604C103.689 48.3729 103.874 48.2448 104.172 48.2197C104.423 48.1985 104.616 48.2665 104.751 48.4237C104.885 48.5716 104.963 48.7711 104.984 49.0222ZM104.781 55.432C105.414 55.3786 105.75 55.589 105.79 56.0633C105.81 56.3051 105.75 56.535 105.609 56.753C105.477 56.9609 105.295 57.0746 105.062 57.0943C104.783 57.1178 104.548 57.0534 104.357 56.9009C104.166 56.7391 104.06 56.542 104.041 56.3095C104.023 56.1049 104.082 55.9126 104.217 55.7326C104.361 55.5519 104.549 55.4517 104.781 55.432Z" fill="black"/>
<path d="M80.829 24.5754C77.2939 11.72 66.3415 -1.00554 45.4587 2.63031C24.5758 6.26616 16.6934 28.9439 24.3465 47.6067C14.6355 49.9986 6.622 59.7441 8.19914 70.482C9.9332 82.2883 17.8428 89.0035 29.4491 88.8499C35.244 88.7732 40.7045 86.4722 44.5811 82.5957C51.4838 94.0119 63.4587 100.199 78.8824 99.9951C100.853 99.7052 121.965 81.5632 119.854 57.4282C117.969 35.8829 102.092 22.4978 80.829 24.5754ZM80.829 24.5754C81.6991 28.168 82.3952 33.0159 81.4816 41.4563" stroke="#FDC500" stroke-width="4"/>
</svg>
