<svg width="134" height="56" viewBox="0 0 134 56" fill="none" xmlns="http://www.w3.org/2000/svg">
<rect y="11.2549" width="130" height="44" rx="9" transform="rotate(-4.82867 0 11.2549)" fill="#FDC500"/>
<path d="M34.3421 27.6525C34.4957 27.8082 34.6047 27.9348 34.6692 28.0323C34.7336 28.1299 34.7698 28.2252 34.7776 28.3182C34.7871 28.4298 34.7237 28.5663 34.5874 28.7277C34.4605 28.8883 34.3273 28.9745 34.1878 28.9863C34.0018 29.002 33.8506 28.9866 33.7343 28.9403C33.618 28.8939 33.5175 28.8134 33.4329 28.6988C33.2652 28.4881 33.0678 28.3128 32.8405 28.1728C32.6125 28.0234 32.2706 27.968 31.8149 28.0065C31.4243 28.0395 30.9853 28.1656 30.498 28.3847C30.0201 28.603 29.6851 28.8515 29.4932 29.1299C29.3268 29.3782 29.1939 29.7453 29.0945 30.2314C29.0044 30.7167 28.9782 31.1826 29.0159 31.629C29.0614 32.1684 29.2197 32.6561 29.4907 33.0922C29.7702 33.5182 30.1446 33.8472 30.6138 34.0792C31.0923 34.3104 31.6477 34.3993 32.2802 34.3459C32.6243 34.3168 32.9722 34.2218 33.3239 34.061C33.6841 33.8901 33.9861 33.6397 34.2299 33.3101L34.2159 33.3112C34.3684 33.1204 34.5702 33.0144 34.8213 32.9931C34.9701 32.9806 35.1151 33.0339 35.2563 33.1531C35.4068 33.2715 35.4876 33.3958 35.4986 33.526C35.5104 33.6655 35.4977 33.793 35.4606 33.9086C35.4321 34.014 35.3675 34.1366 35.2669 34.2762C34.9217 34.7362 34.4954 35.0673 33.988 35.2694C33.4805 35.4715 32.8641 35.6032 32.1386 35.6644C31.4969 35.7187 30.833 35.6202 30.1467 35.3691C29.4698 35.1172 28.9361 34.7876 28.5458 34.3803C28.337 34.1263 28.1231 33.7557 27.9039 33.2684C27.6933 32.771 27.5746 32.3642 27.5479 32.048C27.4796 31.2389 27.5357 30.4614 27.7162 29.7156C27.9052 28.9597 28.2277 28.3423 28.6837 27.8636C28.9841 27.5385 29.4349 27.2756 30.0362 27.0749C30.6374 26.8743 31.1938 26.7523 31.7053 26.7091C32.3284 26.6565 32.8241 26.7036 33.1925 26.8505C33.5693 26.9872 33.9525 27.2546 34.3421 27.6525ZM41.7545 30.314C41.8399 30.4379 41.9164 30.6235 41.9842 30.8707C42.0511 31.1085 42.0928 31.3251 42.1093 31.5204C42.1399 31.8831 42.1045 32.406 42.003 33.089C41.4602 34.315 40.5611 34.981 39.3056 35.0871C38.8406 35.1264 38.3533 35.013 37.8438 34.747C37.3342 34.4809 36.9696 34.1558 36.7498 33.7716C36.4311 32.993 36.2627 32.4967 36.2447 32.2828C36.2132 31.9108 36.2589 31.5089 36.3816 31.077C36.5137 30.6443 36.6923 30.264 36.9175 29.9358C37.0575 29.7086 37.3259 29.5033 37.7225 29.3199C38.1183 29.1272 38.4837 29.0167 38.8185 28.9885C39.4695 28.9335 40.0335 29.0123 40.5104 29.2249C40.9865 29.4282 41.4012 29.7912 41.7545 30.314ZM40.7305 32.6626C40.7668 32.5377 40.7638 32.2242 40.7213 31.722C40.6986 31.4523 40.625 31.1915 40.5007 30.9398C40.3857 30.6872 40.2274 30.4758 40.0256 30.3055C40.0055 30.2885 39.952 30.2649 39.8651 30.2348C39.7775 30.1954 39.6577 30.1633 39.5057 30.1387C39.3623 30.104 39.1976 30.0945 39.0116 30.1102C38.4908 30.1542 38.1272 30.3957 37.9207 30.8346C37.7143 31.2735 37.6334 31.758 37.6782 32.2882C37.6861 32.3812 37.7242 32.5559 37.7927 32.8124C37.8705 33.0681 37.9308 33.2269 37.9735 33.2889C38.0069 33.3516 38.0845 33.4387 38.2063 33.5502C38.3366 33.6516 38.4894 33.7417 38.6647 33.8206C38.8485 33.8893 39.0334 33.9159 39.2194 33.9002C39.6379 33.8648 39.9644 33.7389 40.199 33.5223C40.4329 33.2965 40.61 33.0099 40.7305 32.6626ZM52.2295 33.4474C52.068 33.1988 51.9553 32.9179 51.8914 32.6049C51.8267 32.2825 51.7704 31.8377 51.7224 31.2704C51.6769 30.7309 51.5628 30.2676 51.3802 29.8802C51.1976 29.4929 50.8738 29.3189 50.4088 29.3581C50.2321 29.3731 50.0601 29.4438 49.8928 29.5703C49.7341 29.6868 49.6195 29.8276 49.5492 29.9928C49.4402 30.2549 49.375 30.5367 49.3536 30.8382C49.3315 31.1305 49.3365 31.4672 49.3687 31.8485C49.3892 32.0903 49.4239 32.3356 49.4731 32.5844C49.4793 32.6588 49.4942 32.7793 49.5176 32.9459C49.5496 33.1024 49.5711 33.2458 49.5821 33.376C49.6292 33.934 49.4575 34.2295 49.0669 34.2625C48.5554 34.3057 48.2629 34.0588 48.1894 33.5217C48.1572 33.1404 48.1446 32.9354 48.1515 32.9068L48.1008 32.3069C48.0725 31.9721 48.0311 31.6478 47.9765 31.3339C47.9219 31.0201 47.8693 30.7856 47.8187 30.6307C47.7091 30.3308 47.5775 30.1031 47.4238 29.9475C47.2795 29.7911 47.0631 29.7251 46.7748 29.7494C46.3656 29.784 46.0504 29.9886 45.8292 30.3632C45.676 30.6571 45.5884 31.0064 45.5664 31.411C45.5538 31.9273 45.5462 32.3354 45.5434 32.6353C45.5492 32.9252 45.5681 33.2608 45.6003 33.6421C45.6231 33.9118 45.5951 34.1343 45.5162 34.3096C45.4467 34.484 45.291 34.5815 45.0492 34.6019C44.8725 34.6168 44.6825 34.586 44.4794 34.5095C44.2847 34.423 44.1803 34.296 44.1662 34.1286C44.1513 33.9519 44.1549 33.7736 44.1772 33.5937C44.2161 33.0565 44.1779 32.1044 44.0624 30.7373C44.0435 30.5141 43.9696 30.3049 43.8408 30.1097C43.7204 29.9044 43.5858 29.8081 43.437 29.8206C43.3998 29.8238 43.3316 29.8483 43.2325 29.8941C43.1426 29.9392 43.0744 29.9637 43.0279 29.9676C42.907 29.9778 42.7907 29.9314 42.679 29.8285C42.5765 29.7247 42.5222 29.6357 42.5159 29.5613C42.4962 29.3288 42.5914 29.124 42.8012 28.9471C43.0196 28.76 43.2543 28.6559 43.5054 28.6347C43.8495 28.6056 44.1515 28.6878 44.4114 28.8813C44.6713 29.0748 44.8824 29.3567 45.0448 29.727C45.2273 29.3369 45.4905 29.0149 45.8343 28.7611C46.1774 28.4979 46.5721 28.3475 47.0185 28.3098C47.2975 28.2862 47.5239 28.3046 47.6976 28.3648C47.8798 28.415 48.0322 28.5005 48.1548 28.6213C48.2766 28.7327 48.4365 28.9066 48.6344 29.1427C48.8417 28.8255 49.1197 28.5679 49.4683 28.3698C49.8261 28.171 50.2004 28.0551 50.591 28.0221C51.056 27.9828 51.4906 28.1381 51.8948 28.488C52.2983 28.8286 52.5859 29.2398 52.7577 29.7217C52.8441 29.9673 52.9175 30.4482 52.978 31.1643L53.1021 31.9687C53.1895 32.4484 53.3723 32.728 53.6507 32.8075C53.9747 32.8738 54.1411 32.9581 54.1497 33.0604C54.1686 33.2836 54.1265 33.4511 54.0236 33.5628C53.9446 33.6257 53.8334 33.6959 53.6901 33.7736C53.5468 33.8513 53.4333 33.8936 53.3496 33.9007C52.8474 33.9431 52.474 33.792 52.2295 33.4474ZM54.8737 24.6958C55.2015 24.6962 55.4927 24.7606 55.747 24.8889C56.0006 25.008 56.1396 25.2117 56.1639 25.5C56.182 25.7139 56.0943 25.8946 55.9006 26.0421C55.7156 26.1795 55.4835 26.26 55.2045 26.2835C54.9348 26.3063 54.7429 26.2523 54.6288 26.1214C54.5147 25.9906 54.4514 25.8507 54.4388 25.7019C54.4153 25.4229 54.4235 25.1881 54.4636 24.9973C54.513 24.8058 54.6497 24.7053 54.8737 24.6958ZM56.5118 30.7815L56.5459 31.186C56.5766 31.5487 56.6149 31.8921 56.661 32.216C56.7157 32.5298 56.7753 32.848 56.84 33.1703C56.8494 33.2819 56.793 33.3897 56.6706 33.4937C56.5475 33.5884 56.4301 33.6405 56.3185 33.6499C56.1418 33.6648 55.9577 33.6476 55.7662 33.5982C55.5832 33.5388 55.4688 33.4594 55.423 33.3603C55.342 33.0674 55.2917 32.8047 55.2721 32.5722C55.2077 31.8096 55.1121 30.9559 54.9855 30.0112C54.8776 29.1773 54.8095 28.593 54.7812 28.2582C54.7671 28.0908 54.8386 27.9396 54.9958 27.8045C55.153 27.6695 55.3246 27.5941 55.5106 27.5784C55.7803 27.5556 55.9714 27.6003 56.0839 27.7126C56.2057 27.8241 56.2776 28.01 56.2996 28.2704L56.5118 30.7815ZM57.6827 28.5329C57.6036 28.4834 57.5384 28.4327 57.4872 28.3808C57.4352 28.3197 57.4025 28.21 57.3891 28.0519C57.3742 27.8752 57.4233 27.7353 57.5363 27.632C57.6579 27.5187 57.8024 27.455 57.9698 27.4409C58.2953 27.4134 58.5813 27.4735 58.828 27.6213C59.0839 27.7683 59.2803 27.9858 59.417 28.274C59.5894 27.8754 59.8278 27.593 60.1323 27.4268C60.4359 27.2513 60.8667 27.14 61.4247 27.0928C61.6479 27.074 61.8817 27.1245 62.126 27.2443C62.3788 27.3541 62.6111 27.4984 62.8229 27.6772C62.9983 27.8685 63.1547 28.1128 63.2923 28.4103C63.429 28.6985 63.5076 28.9635 63.528 29.2053C63.5398 29.3448 63.5497 29.5734 63.5579 29.8912C63.5675 30.2276 63.5806 30.4934 63.5971 30.6887C63.6521 31.3397 63.8115 31.729 64.0751 31.8566C64.1139 31.8721 64.1856 31.8894 64.2903 31.9087C64.3949 31.928 64.4717 31.9496 64.5206 31.9736C64.5787 31.9967 64.6102 32.0362 64.6149 32.092C64.643 32.3145 64.575 32.5075 64.4109 32.6713C64.2553 32.8249 64.0566 32.9119 63.8148 32.9324C63.4521 32.963 63.1601 32.8893 62.939 32.7113C62.7179 32.5333 62.5486 32.2478 62.4312 31.855C62.3721 31.7101 62.3304 31.4935 62.306 31.2052C62.2927 31.0471 62.2804 30.7906 62.2691 30.4356C62.2734 30.1542 62.2622 29.8555 62.2355 29.5393C62.208 29.2137 62.0911 28.9379 61.8846 28.7119C61.6774 28.4765 61.4111 28.3725 61.0856 28.4C60.8903 28.4165 60.6908 28.4942 60.4871 28.6332C60.2826 28.7629 60.1456 28.915 60.076 29.0894C59.9609 29.3895 59.8926 29.6903 59.8712 29.9919C59.8084 30.5779 59.7993 31.136 59.8441 31.6661C59.8551 31.7963 59.8856 32.0466 59.9356 32.4171C59.938 32.445 59.9439 32.5147 59.9533 32.6263C59.9619 32.7286 59.9562 32.8275 59.9362 32.9228C59.9254 33.0174 59.8953 33.1042 59.8458 33.1833C59.8117 33.2237 59.7451 33.2668 59.646 33.3126C59.5468 33.3585 59.46 33.3845 59.3856 33.3908C59.2554 33.4018 59.088 33.3598 58.8832 33.2647C58.6785 33.1696 58.5516 33.0538 58.5027 32.9175L58.4722 32.7233C58.4659 32.6489 58.4658 32.5366 58.4718 32.3862C58.5284 31.7257 58.5363 31.1537 58.4955 30.6701C58.4774 30.4562 58.459 30.2938 58.4403 30.183L58.3721 29.5425C58.3556 29.3472 58.2841 29.1659 58.1576 28.9986C58.0302 28.822 57.8719 28.6668 57.6827 28.5329ZM66.397 32.5316C66.3201 32.3976 66.2738 32.2376 66.2581 32.0516C66.2432 31.8749 66.351 31.5988 66.5816 31.2234C66.1226 31.1123 65.7468 30.8771 65.4542 30.5178C65.1709 30.1577 65.0076 29.7219 64.9644 29.2104C64.9361 28.8756 64.9896 28.5666 65.1249 28.2836C65.2595 27.9912 65.4556 27.7077 65.7134 27.433C66.1516 26.9651 66.7892 26.6959 67.6262 26.6251C67.961 26.5969 68.3812 26.6363 68.8866 26.7435C69.4301 26.1918 69.9251 25.8971 70.3715 25.8593C70.6505 25.8358 70.8552 25.8747 70.9855 25.9761C71.1243 26.0674 71.2048 26.2432 71.2268 26.5036C71.2354 26.6059 71.2018 26.7071 71.126 26.8072C71.0586 26.8972 70.9645 26.9473 70.8436 26.9575L70.3402 26.986C70.024 27.0127 69.8013 27.0924 69.672 27.2251C69.8667 27.424 70.0341 27.6862 70.174 28.0116C70.3231 28.3362 70.4158 28.7124 70.452 29.1402C70.4999 29.7075 70.154 30.2706 69.4145 30.8295C68.9529 31.1308 68.4016 31.3132 67.7607 31.3767C67.6925 31.4574 67.6333 31.5326 67.583 31.6024C67.5412 31.6622 67.5219 31.7106 67.5251 31.7478C67.5337 31.8501 67.6287 31.9217 67.8102 31.9626C67.9916 32.0035 68.2648 32.0225 68.6299 32.0198C68.9012 32.0156 69.2085 32.0505 69.552 32.1246C69.9039 32.1885 70.1827 32.2727 70.3882 32.3771C70.6449 32.5333 70.8284 32.7099 70.9387 32.9066C71.0583 33.1026 71.1311 33.354 71.157 33.6609C71.1908 34.0608 71.0331 34.4113 70.6838 34.7125C70.3447 35.0221 69.9342 35.2629 69.4523 35.4347C68.9703 35.6065 68.5434 35.7082 68.1714 35.7396C67.725 35.7773 67.3389 35.7537 67.0133 35.6688C66.6978 35.5925 66.3926 35.4731 66.0979 35.3106C65.8908 35.1876 65.7224 35.0239 65.5928 34.8194C65.4631 34.6149 65.3884 34.3964 65.3688 34.1639C65.3531 33.9779 65.4714 33.715 65.7237 33.3753C65.9853 33.0347 66.2458 32.7926 66.5053 32.6489C66.475 32.6233 66.4389 32.5842 66.397 32.5316ZM67.6222 30.2363C68.0593 30.1994 68.4168 30.0521 68.6948 29.7944C68.972 29.5275 69.0929 29.1848 69.0575 28.7663C69.0292 28.4315 68.9092 28.1746 68.6974 27.9958C68.4848 27.8077 68.2018 27.7286 67.8484 27.7585C67.1137 27.8205 66.6485 28.0237 66.4528 28.3681C66.4032 28.4472 66.3596 28.5961 66.3219 28.8147C66.2834 29.024 66.2688 29.1845 66.2783 29.2961C66.2916 29.4542 66.3612 29.6122 66.4869 29.7702C66.6212 29.9181 66.7907 30.0396 66.9954 30.1347C67.1993 30.2205 67.4083 30.2544 67.6222 30.2363ZM66.6884 34.1508C66.7017 34.3089 66.8573 34.4316 67.155 34.5188C67.4628 34.6146 67.7841 34.6483 68.1189 34.62C68.491 34.5886 68.8664 34.4867 69.2452 34.3142C69.6341 34.1502 69.8191 33.9566 69.8003 33.7334C69.7728 33.4079 69.4668 33.223 68.8823 33.1787C68.2405 33.1205 67.7343 33.0602 67.3637 32.9979C67.3375 33.1312 67.2261 33.3092 67.0295 33.5319C66.9018 33.6832 66.8085 33.7988 66.7497 33.8787C66.7009 33.9671 66.6805 34.0578 66.6884 34.1508ZM81.4115 28.9309C81.4484 29.368 81.3779 29.7533 81.2 30.0868C81.0307 30.4102 80.7291 30.7214 80.2954 31.0203C80.0042 31.2322 79.6579 31.402 79.2566 31.5295C78.8552 31.6571 78.4453 31.7386 78.0268 31.7739C77.599 31.8101 77.0571 31.7154 76.4011 31.4898C75.9265 31.3051 75.5414 31.0706 75.2458 30.7865C74.9595 30.5016 74.801 30.1778 74.7704 29.8151C74.7491 29.564 74.7896 29.3779 74.8918 29.2569C74.9932 29.1266 75.1694 29.0508 75.4205 29.0296C75.5507 29.0186 75.6903 29.063 75.8392 29.1628C75.9874 29.2533 76.0797 29.3486 76.1163 29.4485C76.2787 29.8188 76.5313 30.0925 76.8741 30.2696C77.2161 30.4374 77.6289 30.5009 78.1125 30.4601C78.6705 30.4129 79.1269 30.2713 79.4816 30.0353C79.8456 29.7985 80.0131 29.508 79.984 29.1639C79.9558 28.8291 79.726 28.5488 79.2948 28.323C78.8636 28.0971 78.4298 27.9511 77.9933 27.885C77.3654 27.7694 76.8044 27.6154 76.3105 27.423C75.7971 27.2228 75.4046 26.9562 75.133 26.6232C74.8613 26.2903 74.709 25.9285 74.676 25.5379C74.6453 25.1752 74.7399 24.7972 74.9595 24.404C75.1784 24.0014 75.4529 23.702 75.7828 23.5055C75.961 23.3968 76.2689 23.2724 76.7067 23.1324C77.153 22.9823 77.4784 22.8986 77.683 22.8813C77.9527 22.8585 78.2531 22.8659 78.5841 22.9035C78.9151 22.9411 79.188 23.0118 79.4028 23.1154C79.8317 23.3133 80.1516 23.497 80.3626 23.6665C80.5737 23.836 80.691 24.0603 80.7145 24.3393C80.7287 24.5067 80.6761 24.661 80.5569 24.8022C80.447 24.9426 80.2386 25.0258 79.9317 25.0517C79.8573 25.058 79.7802 25.0317 79.7003 24.9729C79.6204 24.9141 79.5191 24.8243 79.3965 24.7035C79.2312 24.5208 79.076 24.4028 78.931 24.3495C78.7876 24.3148 78.5787 24.2809 78.3043 24.2479C78.0391 24.2141 77.8043 24.2058 77.5997 24.2231C77.3765 24.2419 77.1479 24.3081 76.914 24.4215C76.68 24.5349 76.4868 24.6871 76.3343 24.8779C76.1904 25.0587 76.1278 25.2607 76.1467 25.4839C76.1624 25.6699 76.2598 25.8256 76.439 25.9509C76.6267 26.0662 76.845 26.1555 77.0939 26.2187C77.3823 26.3068 77.6928 26.3789 78.0254 26.4351C78.4642 26.5292 78.8232 26.6206 79.1023 26.7094C79.39 26.7882 79.6707 26.8956 79.9444 27.0317C80.4229 27.2629 80.7766 27.514 81.0056 27.785C81.2338 28.0468 81.3691 28.4287 81.4115 28.9309ZM87.7686 26.4269C87.854 26.5508 87.9306 26.7364 87.9983 26.9836C88.0652 27.2214 88.1069 27.438 88.1234 27.6333C88.1454 27.8937 88.1311 28.2228 88.0804 28.6205C88.0289 29.0089 87.9807 29.2705 87.9359 29.4054C87.5217 30.4895 86.5985 31.092 85.1662 31.213C84.7105 31.2515 84.2516 31.1404 83.7893 30.8797C83.3263 30.6097 82.9845 30.278 82.7639 29.8845L82.6427 29.6137C82.6302 29.5773 82.5673 29.4421 82.4539 29.2082C82.3489 28.9641 82.291 28.777 82.28 28.6468C82.2478 28.2655 82.3035 27.8159 82.447 27.298C82.5906 26.78 82.7707 26.3621 82.9874 26.044C83.1274 25.8168 83.4144 25.6099 83.8482 25.4234C84.2813 25.2276 84.6699 25.1151 85.014 25.086C85.6557 25.0318 86.1821 25.1091 86.5931 25.3179C87.0134 25.526 87.4053 25.8956 87.7686 26.4269ZM86.6749 28.7813C86.7066 28.7131 86.7293 28.5941 86.7431 28.4243C86.7569 28.2546 86.7543 28.0581 86.7355 27.8349C86.7127 27.5652 86.6391 27.3045 86.5148 27.0527C86.3998 26.8001 86.2415 26.5887 86.0398 26.4184C86.0289 26.4006 85.994 26.3755 85.935 26.343C85.8753 26.3012 85.7834 26.2668 85.6594 26.2398C85.5345 26.2035 85.3791 26.1932 85.1931 26.2089C84.8304 26.2396 84.5325 26.3725 84.2995 26.6076C84.0665 26.8427 83.8982 27.1239 83.7947 27.4511C83.7005 27.7775 83.6664 28.0942 83.6923 28.4011C83.6994 28.4848 83.7418 28.6545 83.8196 28.9102C83.8974 29.1658 83.9534 29.3297 83.9876 29.4018C84.073 29.5257 84.2301 29.667 84.459 29.8256C84.687 29.9749 84.9359 30.0382 85.2056 30.0154C85.6241 29.9801 85.9413 29.8549 86.1574 29.64C86.3827 29.4242 86.5552 29.138 86.6749 28.7813ZM94.6016 25.8497C94.687 25.9736 94.7636 26.1592 94.8313 26.4063C94.8982 26.6442 94.94 26.8608 94.9565 27.0561C94.9871 27.4188 94.9517 27.9417 94.8501 28.6246C94.3074 29.8507 93.4083 30.5167 92.1527 30.6228C91.6877 30.6621 91.2005 30.5487 90.6909 30.2826C90.1814 30.0166 89.8167 29.6914 89.5969 29.3072C89.2783 28.5286 89.1099 28.0324 89.0918 27.8185C89.0604 27.4465 89.1061 27.0445 89.2288 26.6127C89.3609 26.18 89.5395 25.7996 89.7646 25.4715C89.9047 25.2443 90.173 25.0389 90.5697 24.8556C90.9655 24.6629 91.3308 24.5524 91.6656 24.5241C92.3167 24.4691 92.8806 24.5479 93.3576 24.7606C93.8337 24.9639 94.2484 25.3269 94.6016 25.8497ZM93.5777 28.1982C93.614 28.0734 93.6109 27.7599 93.5685 27.2577C93.5457 26.988 93.4722 26.7272 93.3479 26.4755C93.2329 26.2229 93.0745 26.0115 92.8728 25.8412C92.8526 25.8242 92.7991 25.8006 92.7123 25.7705C92.6246 25.731 92.5049 25.699 92.3529 25.6744C92.2095 25.6397 92.0448 25.6301 91.8588 25.6459C91.3379 25.6899 90.9743 25.9313 90.7679 26.3703C90.5614 26.8092 90.4806 27.2937 90.5254 27.8238C90.5332 27.9168 90.5714 28.0916 90.6399 28.3481C90.7177 28.6037 90.7779 28.7626 90.8206 28.8245C90.854 28.8873 90.9316 28.9744 91.0535 29.0859C91.1838 29.1872 91.3366 29.2774 91.5118 29.3562C91.6956 29.425 91.8805 29.4515 92.0665 29.4358C92.485 29.4005 92.8116 29.2745 93.0462 29.058C93.28 28.8322 93.4572 28.5456 93.5777 28.1982ZM102.586 28.6034C102.634 28.6181 102.71 28.635 102.815 28.6543C102.92 28.6735 102.996 28.6952 103.045 28.7191C103.094 28.7431 103.121 28.783 103.126 28.8388C103.154 29.0612 103.086 29.2543 102.922 29.418C102.766 29.5717 102.572 29.6583 102.339 29.6779C101.977 29.7086 101.685 29.6349 101.464 29.4569C101.243 29.2789 101.069 28.9938 100.942 28.6018C100.891 28.4468 100.854 28.2298 100.831 27.9508C100.817 27.7927 100.805 27.5362 100.794 27.1812C100.781 26.8076 100.765 26.5092 100.746 26.286C100.719 25.9605 100.602 25.6847 100.395 25.4586C100.197 25.2224 99.9357 25.1181 99.6102 25.1456C99.4149 25.1621 99.2154 25.2398 99.0117 25.3788C98.8072 25.5085 98.6702 25.6605 98.6007 25.835C98.4839 26.1165 98.411 26.4177 98.382 26.7386C98.3268 27.3053 98.3247 27.8909 98.3758 28.4954C98.4002 28.7837 98.4237 29.0065 98.4463 29.1638C98.4495 29.201 98.4558 29.2754 98.4652 29.387C98.4831 29.4886 98.4821 29.587 98.462 29.6823C98.4505 29.7676 98.42 29.8498 98.3705 29.9289C98.3279 29.9794 98.2566 30.0228 98.1567 30.0594C98.0668 30.1044 97.98 30.1305 97.8963 30.1376C97.7661 30.1486 97.5987 30.1065 97.3939 30.0114C97.1892 29.9163 97.067 29.8002 97.0273 29.663L96.9933 29.4271C96.9863 29.3434 96.9873 29.2449 96.9965 29.1318C97.0531 28.4713 97.061 27.8993 97.0201 27.4157C97.002 27.2018 96.9832 27.0348 96.9637 26.9146L96.8944 26.2602C96.8755 26.037 96.8017 25.8278 96.6728 25.6326C96.5431 25.4281 96.4039 25.3322 96.2551 25.3447C96.2086 25.3487 96.145 25.3728 96.0645 25.417C95.9831 25.452 95.9146 25.4718 95.8588 25.4766C95.7658 25.4844 95.6595 25.4466 95.5401 25.363C95.4299 25.2786 95.3705 25.1853 95.3619 25.083C95.3454 24.8877 95.3971 24.7241 95.5171 24.5922C95.6472 24.4688 95.7746 24.369 95.8993 24.2929C96.0333 24.2161 96.1886 24.1702 96.3653 24.1552C96.5141 24.1427 96.6362 24.1464 96.7316 24.1664C96.8269 24.1865 96.9576 24.2363 97.1236 24.316C97.2112 24.3554 97.3175 24.4495 97.4424 24.5981C97.5674 24.7468 97.6793 24.9622 97.778 25.2442C97.9821 24.7773 98.2534 24.4406 98.5919 24.2341C98.9389 24.0174 99.3914 23.8855 99.9494 23.8384C100.163 23.8203 100.397 23.8708 100.651 23.9899C100.914 24.1082 101.141 24.2529 101.334 24.424C101.518 24.6144 101.679 24.8584 101.817 25.1559C101.954 25.4441 102.032 25.7091 102.053 25.9509C102.064 26.0904 102.074 26.319 102.083 26.6368C102.076 26.8902 102.084 27.1565 102.108 27.4355C102.163 28.0865 102.322 28.4758 102.586 28.6034ZM104.984 21.3337C105.027 21.8359 105.061 22.573 105.087 23.5449C105.11 24.4796 105.142 25.1935 105.184 25.6864C105.195 25.8166 105.227 26.0855 105.28 26.4931C105.284 26.652 105.238 26.7776 105.143 26.87C105.047 26.953 104.929 27.0004 104.79 27.0122C104.641 27.0248 104.503 26.999 104.376 26.9348C104.249 26.8706 104.166 26.7792 104.128 26.6607C103.952 25.9075 103.819 25.0008 103.729 23.9406L103.56 21.7632C103.53 21.419 103.549 21.1365 103.614 20.9155C103.689 20.6845 103.874 20.5564 104.172 20.5312C104.423 20.51 104.616 20.578 104.751 20.7352C104.885 20.8831 104.963 21.0826 104.984 21.3337ZM104.781 27.7435C105.414 27.6901 105.75 27.9006 105.79 28.3749C105.81 28.6167 105.75 28.8466 105.609 29.0645C105.477 29.2724 105.295 29.3861 105.062 29.4058C104.783 29.4294 104.548 29.3649 104.357 29.2124C104.166 29.0507 104.06 28.8535 104.041 28.621C104.023 28.4164 104.082 28.2241 104.217 28.0441C104.361 27.8634 104.549 27.7632 104.781 27.7435Z" fill="black"/>
</svg>
