<svg width="130" height="539" viewBox="0 0 130 539" fill="none" xmlns="http://www.w3.org/2000/svg">
<path d="M55.145 468.555L71.795 491.495L55.145 500.56L71.795 509.625L55.145 532.565L41.27 519.615L37.94 538.3L10.745 529.42L19.07 512.4L0.199997 514.805L0.199996 486.315L19.07 488.72L10.745 471.7L37.94 462.82L41.27 481.505L55.145 468.555ZM90.665 355.475C111.2 355.475 129.515 372.68 129.515 405.24C129.515 433.175 113.235 453.155 87.52 456.67L87.52 420.78C95.845 419.115 100.84 414.305 100.84 405.425C100.84 396.915 96.955 391.365 89 391.365C82.71 391.365 78.27 396.175 78.27 409.68L78.27 419.855L53.11 419.855L53.11 411.715C53.11 397.47 47.005 394.325 41.825 394.325C36.09 394.325 32.205 398.95 32.205 405.425C32.205 412.825 36.645 417.08 44.23 418.56L44.23 454.45C19.255 451.12 3.52998 431.88 3.52998 405.24C3.52998 374.9 21.845 358.435 41.455 358.435C52 358.435 59.215 362.505 64.025 370.46C70.13 360.285 79.01 355.475 90.665 355.475ZM129.515 299.203C129.515 329.358 113.975 348.783 90.48 348.783C79.195 348.783 69.945 342.863 64.025 332.688C58.29 340.643 50.15 345.083 40.715 345.083C18.33 345.083 3.52998 327.138 3.52998 299.203C3.52998 271.268 18.33 253.323 40.715 253.323C50.52 253.323 58.66 257.948 64.21 266.088C70.5 255.728 79.75 249.623 90.48 249.623C113.975 249.623 129.515 269.048 129.515 299.203ZM31.465 299.203C31.465 306.048 35.535 309.933 42.38 309.933C49.04 309.933 53.48 306.048 53.48 299.203C53.48 292.358 49.04 288.473 42.38 288.473C35.535 288.473 31.465 292.358 31.465 299.203ZM101.58 299.203C101.58 290.878 96.77 285.698 88.815 285.698C80.675 285.698 75.865 290.878 75.865 299.203C75.865 307.528 80.675 312.708 88.815 312.708C96.77 312.708 101.58 307.528 101.58 299.203ZM3.52997 193.167C3.52997 192.982 3.52997 192.797 3.52997 192.797C3.71498 161.902 24.99 141.552 65.32 141.552C106.205 141.552 129.515 161.902 129.515 194.277C129.515 218.142 116.195 237.382 91.59 242.192L91.59 205.377C97.695 204.267 99.915 198.717 99.915 192.982C99.915 183.917 93.44 178.182 80.305 176.332C84.005 181.512 86.04 187.802 86.04 194.462C86.04 222.952 71.055 241.267 45.155 241.267C20.18 241.267 3.52997 222.027 3.52997 193.167ZM32.205 192.057C32.205 199.827 37.015 204.452 45.155 204.452C53.295 204.452 58.29 199.827 58.29 192.057C58.29 184.287 53.295 179.662 45.155 179.662C37.015 179.662 32.205 184.287 32.205 192.057ZM126 117.655L101.21 112.475L101.21 128.2L76.235 128.2L76.235 107.48L49.965 101.93L49.965 115.805L24.99 115.805L24.99 96.9348L0.199979 91.7548L0.199978 62.5248L24.99 67.7048L24.99 45.1348L0.199977 39.9548L0.199975 10.7248L24.99 15.9048L24.99 0.179797L49.965 0.179796L49.965 20.8998L76.235 26.4498L76.235 12.5748L101.21 12.5748L101.21 31.4448L126 36.6248L126 65.8548L101.21 60.6748L101.21 83.2448L126 88.4248L126 117.655ZM76.235 78.2498L76.235 55.6798L49.965 50.1298L49.965 72.6998L76.235 78.2498Z" fill="#10276C" fill-opacity="0.1"/>
</svg>
