<svg width="626" height="152" viewBox="0 0 626 152" fill="none" xmlns="http://www.w3.org/2000/svg">
<path d="M81.355 64.655L54.695 84.005L44.16 64.655L33.625 84.005L6.965 64.655L22.015 48.53L0.3 44.66L10.62 13.055L30.4 22.73L27.605 0.799998L60.715 0.799998L57.92 22.73L77.7 13.055L88.02 44.66L66.305 48.53L81.355 64.655ZM212.772 105.935C212.772 129.8 192.777 151.085 154.937 151.085C122.472 151.085 99.2521 132.165 95.1671 102.28L136.877 102.28C138.812 111.955 144.402 117.76 154.722 117.76C164.612 117.76 171.062 113.245 171.062 104C171.062 96.69 165.472 91.53 149.777 91.53H137.952V62.29H147.412C163.967 62.29 167.622 55.195 167.622 49.175C167.622 42.51 162.247 37.995 154.722 37.995C146.122 37.995 141.177 43.155 139.457 51.97L97.7471 51.97C101.617 22.945 123.977 4.66999 154.937 4.66999C190.197 4.66999 209.332 25.955 209.332 48.745C209.332 61 204.602 69.385 195.357 74.975C207.182 82.07 212.772 92.39 212.772 105.935ZM278.169 151.085C243.124 151.085 220.549 133.025 220.549 105.72C220.549 92.605 227.429 81.855 239.254 74.975C230.009 68.31 224.849 58.85 224.849 47.885C224.849 21.87 245.704 4.66999 278.169 4.66999C310.634 4.66999 331.489 21.87 331.489 47.885C331.489 59.28 326.114 68.74 316.654 75.19C328.694 82.5 335.789 93.25 335.789 105.72C335.789 133.025 313.214 151.085 278.169 151.085ZM278.169 37.135C270.214 37.135 265.699 41.865 265.699 49.82C265.699 57.56 270.214 62.72 278.169 62.72C286.124 62.72 290.639 57.56 290.639 49.82C290.639 41.865 286.124 37.135 278.169 37.135ZM278.169 118.62C287.844 118.62 293.864 113.03 293.864 103.785C293.864 94.325 287.844 88.735 278.169 88.735C268.494 88.735 262.474 94.325 262.474 103.785C262.474 113.03 268.494 118.62 278.169 118.62ZM401.401 4.66999C401.616 4.66999 401.831 4.66999 401.831 4.66999C437.736 4.885 461.386 29.61 461.386 76.48C461.386 123.995 437.736 151.085 400.111 151.085C372.376 151.085 350.016 135.605 344.426 107.01H387.211C388.501 114.105 394.951 116.685 401.616 116.685C412.151 116.685 418.816 109.16 420.966 93.895C414.946 98.195 407.636 100.56 399.896 100.56C366.786 100.56 345.501 83.145 345.501 53.045C345.501 24.02 367.861 4.66999 401.401 4.66999ZM402.691 37.995C393.661 37.995 388.286 43.585 388.286 53.045C388.286 62.505 393.661 68.31 402.691 68.31C411.721 68.31 417.096 62.505 417.096 53.045C417.096 43.585 411.721 37.995 402.691 37.995ZM489.158 147L495.178 118.19L476.903 118.19V89.165L500.983 89.165L507.433 58.635L491.308 58.635V29.61L513.238 29.61L519.258 0.799998L553.228 0.799998L547.208 29.61L573.438 29.61L579.458 0.799998L613.428 0.799998L607.408 29.61L625.683 29.61V58.635H601.603L595.153 89.165H611.278V118.19H589.348L583.328 147H549.358L555.378 118.19H529.148L523.128 147H489.158ZM534.953 89.165H561.183L567.633 58.635L541.403 58.635L534.953 89.165Z" fill="#C6CFED"/>
</svg>
